<svg width="25" height="24" viewBox="0 0 25 24" fill="none" xmlns="http://www.w3.org/2000/svg">
<path d="M20.5 14.1499V18.4C20.5 19.4944 19.7131 20.4359 18.6282 20.58C16.5415 20.857 14.4124 21 12.25 21C10.0876 21 7.95854 20.857 5.87185 20.58C4.7869 20.4359 4 19.4944 4 18.4V14.1499M20.5 14.1499C20.9719 13.7476 21.25 13.1389 21.25 12.4889V8.70569C21.25 7.62475 20.4821 6.69082 19.4131 6.53086C18.2877 6.36247 17.1495 6.23315 16 6.14432M20.5 14.1499C20.3064 14.315 20.0802 14.4453 19.8271 14.5294C17.4453 15.3212 14.8977 15.75 12.25 15.75C9.60229 15.75 7.05469 15.3212 4.67289 14.5294C4.41984 14.4452 4.19361 14.3149 4 14.1499M4 14.1499C3.52808 13.7476 3.25 13.1389 3.25 12.4889V8.70569C3.25 7.62475 4.0179 6.69082 5.08694 6.53086C6.21233 6.36247 7.35049 6.23315 8.5 6.14432M16 6.14432V5.25C16 4.00736 14.9926 3 13.75 3H10.75C9.50736 3 8.5 4.00736 8.5 5.25V6.14432M16 6.14432C14.7626 6.0487 13.512 6 12.25 6C10.988 6 9.73744 6.0487 8.5 6.14432M12.25 12.75H12.2575V12.7575H12.25V12.75Z" stroke="#ADB5BD" stroke-width="1.5" stroke-linecap="round" stroke-linejoin="round"/>
</svg>
