<svg width="25" height="24" viewBox="0 0 25 24" fill="none" xmlns="http://www.w3.org/2000/svg">
<path d="M16.5 10.5V6C16.5 3.92893 14.8211 2.25 12.75 2.25C10.6789 2.25 9 3.92893 9 6V10.5M20.356 8.50723L21.6192 20.5072C21.6891 21.1715 21.1683 21.75 20.5004 21.75H4.99963C4.33172 21.75 3.81089 21.1715 3.88081 20.5072L5.14397 8.50723C5.20424 7.93466 5.68706 7.5 6.26279 7.5H19.2372C19.8129 7.5 20.2958 7.93466 20.356 8.50723ZM9.375 10.5C9.375 10.7071 9.2071 10.875 9 10.875C8.79289 10.875 8.625 10.7071 8.625 10.5C8.625 10.2929 8.79289 10.125 9 10.125C9.2071 10.125 9.375 10.2929 9.375 10.5ZM16.875 10.5C16.875 10.7071 16.7071 10.875 16.5 10.875C16.2929 10.875 16.125 10.7071 16.125 10.5C16.125 10.2929 16.2929 10.125 16.5 10.125C16.7071 10.125 16.875 10.2929 16.875 10.5Z" stroke="#ADB5BD" stroke-width="1.5" stroke-linecap="round" stroke-linejoin="round"/>
</svg>
