<svg width="30" height="30" viewBox="0 0 30 30" fill="none" xmlns="http://www.w3.org/2000/svg">
<path d="M13.75 4.99998H8.5C6.3998 4.99998 5.3497 4.99998 4.54754 5.4087C3.84193 5.76823 3.26825 6.34191 2.90873 7.04751C2.5 7.84968 2.5 8.89978 2.5 11V21.5C2.5 23.6002 2.5 24.6503 2.90873 25.4524C3.26825 26.158 3.84193 26.7317 4.54754 27.0913C5.3497 27.5 6.3998 27.5 8.5 27.5H19C21.1002 27.5 22.1503 27.5 22.9525 27.0913C23.6581 26.7317 24.2317 26.158 24.5913 25.4524C25 24.6503 25 23.6002 25 21.5V16.25M9.99997 20H12.0931C12.7046 20 13.0104 20 13.2981 19.9309C13.5532 19.8697 13.797 19.7687 14.0207 19.6316C14.273 19.477 14.4892 19.2608 14.9216 18.8284L26.875 6.87498C27.9105 5.83945 27.9105 4.16051 26.875 3.12498C25.8395 2.08945 24.1605 2.08944 23.125 3.12498L11.1715 15.0784C10.7392 15.5108 10.523 15.727 10.3684 15.9793C10.2313 16.2029 10.1303 16.4468 10.069 16.7019C9.99997 16.9896 9.99997 17.2954 9.99997 17.9068V20Z" stroke="#020A16" stroke-linecap="round" stroke-linejoin="round"/>
</svg>
