<svg width="171" height="121" viewBox="0 0 171 121" fill="none" xmlns="http://www.w3.org/2000/svg">
<rect width="171" height="121" rx="12" fill="#E6F3FC"/>
<path d="M15.7451 12.9238H18.7734V23H16.8115V16.1846C16.8115 15.9886 16.8138 15.7152 16.8184 15.3643C16.8229 15.0088 16.8252 14.7354 16.8252 14.5439L14.918 23H12.874L10.9805 14.5439C10.9805 14.7354 10.9827 15.0088 10.9873 15.3643C10.9919 15.7152 10.9941 15.9886 10.9941 16.1846V23H9.03223V12.9238H12.0947L13.9268 20.8467L15.7451 12.9238ZM23.9141 21.626C24.4837 21.626 24.9212 21.4232 25.2266 21.0176C25.5319 20.612 25.6846 20.0355 25.6846 19.2881C25.6846 18.5407 25.5319 17.9665 25.2266 17.5654C24.9212 17.1598 24.4837 16.957 23.9141 16.957C23.3444 16.957 22.9046 17.1598 22.5947 17.5654C22.2894 17.9665 22.1367 18.5407 22.1367 19.2881C22.1367 20.0355 22.2894 20.612 22.5947 21.0176C22.9046 21.4232 23.3444 21.626 23.9141 21.626ZM27.7285 19.2881C27.7285 20.3818 27.4141 21.3184 26.7852 22.0977C26.1562 22.8724 25.2015 23.2598 23.9209 23.2598C22.6403 23.2598 21.6855 22.8724 21.0566 22.0977C20.4277 21.3184 20.1133 20.3818 20.1133 19.2881C20.1133 18.2126 20.4277 17.2806 21.0566 16.4922C21.6855 15.7038 22.6403 15.3096 23.9209 15.3096C25.2015 15.3096 26.1562 15.7038 26.7852 16.4922C27.4141 17.2806 27.7285 18.2126 27.7285 19.2881ZM30.6475 20.6211C30.6885 20.9674 30.7773 21.2135 30.9141 21.3594C31.1556 21.6191 31.6022 21.749 32.2539 21.749C32.6367 21.749 32.9398 21.6921 33.1631 21.5781C33.391 21.4642 33.5049 21.2933 33.5049 21.0654C33.5049 20.8467 33.4137 20.6803 33.2314 20.5664C33.0492 20.4525 32.3724 20.2565 31.2012 19.9785C30.3581 19.7689 29.7633 19.5068 29.417 19.1924C29.0706 18.8825 28.8975 18.4359 28.8975 17.8525C28.8975 17.1644 29.1663 16.5742 29.7041 16.082C30.2464 15.5853 31.0075 15.3369 31.9873 15.3369C32.917 15.3369 33.6735 15.5238 34.2568 15.8975C34.8447 16.2666 35.182 16.9069 35.2686 17.8184H33.3203C33.293 17.5677 33.2223 17.3695 33.1084 17.2236C32.8942 16.9593 32.5296 16.8271 32.0146 16.8271C31.5908 16.8271 31.2878 16.8932 31.1055 17.0254C30.9277 17.1576 30.8389 17.3125 30.8389 17.4902C30.8389 17.7135 30.9346 17.8753 31.126 17.9756C31.3174 18.0804 31.9941 18.2604 33.1562 18.5156C33.931 18.6979 34.512 18.9736 34.8994 19.3428C35.2822 19.7165 35.4736 20.1836 35.4736 20.7441C35.4736 21.4824 35.1979 22.0863 34.6465 22.5557C34.0996 23.0205 33.252 23.2529 32.1035 23.2529C30.9323 23.2529 30.0664 23.0068 29.5059 22.5146C28.9499 22.0179 28.6719 21.3867 28.6719 20.6211H30.6475ZM36.1572 17.0049V15.6172H37.1963V13.5391H39.124V15.6172H40.334V17.0049H39.124V20.9424C39.124 21.2477 39.1628 21.4391 39.2402 21.5166C39.3177 21.5895 39.5547 21.626 39.9512 21.626C40.0104 21.626 40.0719 21.626 40.1357 21.626C40.2041 21.6214 40.2702 21.6169 40.334 21.6123V23.0684L39.4111 23.1025C38.4906 23.1344 37.8617 22.9749 37.5244 22.624C37.3057 22.4007 37.1963 22.0566 37.1963 21.5918V17.0049H36.1572ZM51.3125 16.1299C51.3125 15.6058 51.1735 15.2321 50.8955 15.0088C50.6221 14.7855 50.237 14.6738 49.7402 14.6738H47.7783V17.6406H49.7402C50.237 17.6406 50.6221 17.5199 50.8955 17.2783C51.1735 17.0368 51.3125 16.654 51.3125 16.1299ZM53.3975 16.1162C53.3975 17.3057 53.0967 18.1465 52.4951 18.6387C51.8936 19.1309 51.0345 19.377 49.918 19.377H47.7783V23H45.6865V12.9238H50.0752C51.0869 12.9238 51.8936 13.1836 52.4951 13.7031C53.0967 14.2227 53.3975 15.027 53.3975 16.1162ZM58.9277 15.3574C59.388 15.3574 59.805 15.4372 60.1787 15.5967C60.557 15.7562 60.8669 16 61.1084 16.3281C61.3135 16.6061 61.4388 16.8932 61.4844 17.1895C61.5299 17.4811 61.5527 17.9596 61.5527 18.625V23H59.5635V18.4678C59.5635 18.0667 59.4951 17.7432 59.3584 17.4971C59.1807 17.1507 58.8434 16.9775 58.3467 16.9775C57.8317 16.9775 57.4398 17.1507 57.1709 17.4971C56.9066 17.8389 56.7744 18.3288 56.7744 18.9668V23H54.833V12.958H56.7744V16.5195C57.057 16.0866 57.3828 15.7858 57.752 15.6172C58.1257 15.444 58.5176 15.3574 58.9277 15.3574ZM66.7207 21.626C67.2904 21.626 67.7279 21.4232 68.0332 21.0176C68.3385 20.612 68.4912 20.0355 68.4912 19.2881C68.4912 18.5407 68.3385 17.9665 68.0332 17.5654C67.7279 17.1598 67.2904 16.957 66.7207 16.957C66.151 16.957 65.7113 17.1598 65.4014 17.5654C65.096 17.9665 64.9434 18.5407 64.9434 19.2881C64.9434 20.0355 65.096 20.612 65.4014 21.0176C65.7113 21.4232 66.151 21.626 66.7207 21.626ZM70.5352 19.2881C70.5352 20.3818 70.2207 21.3184 69.5918 22.0977C68.9629 22.8724 68.0081 23.2598 66.7275 23.2598C65.4469 23.2598 64.4922 22.8724 63.8633 22.0977C63.2344 21.3184 62.9199 20.3818 62.9199 19.2881C62.9199 18.2126 63.2344 17.2806 63.8633 16.4922C64.4922 15.7038 65.4469 15.3096 66.7275 15.3096C68.0081 15.3096 68.9629 15.7038 69.5918 16.4922C70.2207 17.2806 70.5352 18.2126 70.5352 19.2881ZM71.1709 17.0049V15.6172H72.21V13.5391H74.1377V15.6172H75.3477V17.0049H74.1377V20.9424C74.1377 21.2477 74.1764 21.4391 74.2539 21.5166C74.3314 21.5895 74.5684 21.626 74.9648 21.626C75.0241 21.626 75.0856 21.626 75.1494 21.626C75.2178 21.6214 75.2839 21.6169 75.3477 21.6123V23.0684L74.4248 23.1025C73.5042 23.1344 72.8753 22.9749 72.5381 22.624C72.3193 22.4007 72.21 22.0566 72.21 21.5918V17.0049H71.1709ZM79.9414 21.626C80.5111 21.626 80.9486 21.4232 81.2539 21.0176C81.5592 20.612 81.7119 20.0355 81.7119 19.2881C81.7119 18.5407 81.5592 17.9665 81.2539 17.5654C80.9486 17.1598 80.5111 16.957 79.9414 16.957C79.3717 16.957 78.932 17.1598 78.6221 17.5654C78.3167 17.9665 78.1641 18.5407 78.1641 19.2881C78.1641 20.0355 78.3167 20.612 78.6221 21.0176C78.932 21.4232 79.3717 21.626 79.9414 21.626ZM83.7559 19.2881C83.7559 20.3818 83.4414 21.3184 82.8125 22.0977C82.1836 22.8724 81.2288 23.2598 79.9482 23.2598C78.6676 23.2598 77.7129 22.8724 77.084 22.0977C76.4551 21.3184 76.1406 20.3818 76.1406 19.2881C76.1406 18.2126 76.4551 17.2806 77.084 16.4922C77.7129 15.7038 78.6676 15.3096 79.9482 15.3096C81.2288 15.3096 82.1836 15.7038 82.8125 16.4922C83.4414 17.2806 83.7559 18.2126 83.7559 19.2881ZM86.6748 20.6211C86.7158 20.9674 86.8047 21.2135 86.9414 21.3594C87.1829 21.6191 87.6296 21.749 88.2812 21.749C88.6641 21.749 88.9671 21.6921 89.1904 21.5781C89.4183 21.4642 89.5322 21.2933 89.5322 21.0654C89.5322 20.8467 89.4411 20.6803 89.2588 20.5664C89.0765 20.4525 88.3997 20.2565 87.2285 19.9785C86.3854 19.7689 85.7907 19.5068 85.4443 19.1924C85.098 18.8825 84.9248 18.4359 84.9248 17.8525C84.9248 17.1644 85.1937 16.5742 85.7314 16.082C86.2738 15.5853 87.0348 15.3369 88.0146 15.3369C88.9443 15.3369 89.7008 15.5238 90.2842 15.8975C90.8721 16.2666 91.2093 16.9069 91.2959 17.8184H89.3477C89.3203 17.5677 89.2497 17.3695 89.1357 17.2236C88.9215 16.9593 88.557 16.8271 88.042 16.8271C87.6182 16.8271 87.3151 16.8932 87.1328 17.0254C86.9551 17.1576 86.8662 17.3125 86.8662 17.4902C86.8662 17.7135 86.9619 17.8753 87.1533 17.9756C87.3447 18.0804 88.0215 18.2604 89.1836 18.5156C89.9583 18.6979 90.5394 18.9736 90.9268 19.3428C91.3096 19.7165 91.501 20.1836 91.501 20.7441C91.501 21.4824 91.2253 22.0863 90.6738 22.5557C90.127 23.0205 89.2793 23.2529 88.1309 23.2529C86.9596 23.2529 86.0938 23.0068 85.5332 22.5146C84.9772 22.0179 84.6992 21.3867 84.6992 20.6211H86.6748ZM97.0586 15.3574C97.5189 15.3574 97.9359 15.4372 98.3096 15.5967C98.6878 15.7562 98.9977 16 99.2393 16.3281C99.4443 16.6061 99.5697 16.8932 99.6152 17.1895C99.6608 17.4811 99.6836 17.9596 99.6836 18.625V23H97.6943V18.4678C97.6943 18.0667 97.626 17.7432 97.4893 17.4971C97.3115 17.1507 96.9743 16.9775 96.4775 16.9775C95.9626 16.9775 95.5706 17.1507 95.3018 17.4971C95.0374 17.8389 94.9053 18.3288 94.9053 18.9668V23H92.9639V12.958H94.9053V16.5195C95.1878 16.0866 95.5137 15.7858 95.8828 15.6172C96.2565 15.444 96.6484 15.3574 97.0586 15.3574ZM104.852 21.626C105.421 21.626 105.859 21.4232 106.164 21.0176C106.469 20.612 106.622 20.0355 106.622 19.2881C106.622 18.5407 106.469 17.9665 106.164 17.5654C105.859 17.1598 105.421 16.957 104.852 16.957C104.282 16.957 103.842 17.1598 103.532 17.5654C103.227 17.9665 103.074 18.5407 103.074 19.2881C103.074 20.0355 103.227 20.612 103.532 21.0176C103.842 21.4232 104.282 21.626 104.852 21.626ZM108.666 19.2881C108.666 20.3818 108.352 21.3184 107.723 22.0977C107.094 22.8724 106.139 23.2598 104.858 23.2598C103.578 23.2598 102.623 22.8724 101.994 22.0977C101.365 21.3184 101.051 20.3818 101.051 19.2881C101.051 18.2126 101.365 17.2806 101.994 16.4922C102.623 15.7038 103.578 15.3096 104.858 15.3096C106.139 15.3096 107.094 15.7038 107.723 16.4922C108.352 17.2806 108.666 18.2126 108.666 19.2881ZM113.41 21.626C113.98 21.626 114.417 21.4232 114.723 21.0176C115.028 20.612 115.181 20.0355 115.181 19.2881C115.181 18.5407 115.028 17.9665 114.723 17.5654C114.417 17.1598 113.98 16.957 113.41 16.957C112.84 16.957 112.401 17.1598 112.091 17.5654C111.785 17.9665 111.633 18.5407 111.633 19.2881C111.633 20.0355 111.785 20.612 112.091 21.0176C112.401 21.4232 112.84 21.626 113.41 21.626ZM117.225 19.2881C117.225 20.3818 116.91 21.3184 116.281 22.0977C115.652 22.8724 114.698 23.2598 113.417 23.2598C112.136 23.2598 111.182 22.8724 110.553 22.0977C109.924 21.3184 109.609 20.3818 109.609 19.2881C109.609 18.2126 109.924 17.2806 110.553 16.4922C111.182 15.7038 112.136 15.3096 113.417 15.3096C114.698 15.3096 115.652 15.7038 116.281 16.4922C116.91 17.2806 117.225 18.2126 117.225 19.2881ZM117.86 17.0049V15.6172H118.899V13.5391H120.827V15.6172H122.037V17.0049H120.827V20.9424C120.827 21.2477 120.866 21.4391 120.943 21.5166C121.021 21.5895 121.258 21.626 121.654 21.626C121.714 21.626 121.775 21.626 121.839 21.626C121.907 21.6214 121.973 21.6169 122.037 21.6123V23.0684L121.114 23.1025C120.194 23.1344 119.565 22.9749 119.228 22.624C119.009 22.4007 118.899 22.0566 118.899 21.5918V17.0049H117.86ZM124.806 20.6211C124.847 20.9674 124.936 21.2135 125.072 21.3594C125.314 21.6191 125.76 21.749 126.412 21.749C126.795 21.749 127.098 21.6921 127.321 21.5781C127.549 21.4642 127.663 21.2933 127.663 21.0654C127.663 20.8467 127.572 20.6803 127.39 20.5664C127.207 20.4525 126.531 20.2565 125.359 19.9785C124.516 19.7689 123.922 19.5068 123.575 19.1924C123.229 18.8825 123.056 18.4359 123.056 17.8525C123.056 17.1644 123.325 16.5742 123.862 16.082C124.405 15.5853 125.166 15.3369 126.146 15.3369C127.075 15.3369 127.832 15.5238 128.415 15.8975C129.003 16.2666 129.34 16.9069 129.427 17.8184H127.479C127.451 17.5677 127.381 17.3695 127.267 17.2236C127.052 16.9593 126.688 16.8271 126.173 16.8271C125.749 16.8271 125.446 16.8932 125.264 17.0254C125.086 17.1576 124.997 17.3125 124.997 17.4902C124.997 17.7135 125.093 17.8753 125.284 17.9756C125.476 18.0804 126.152 18.2604 127.314 18.5156C128.089 18.6979 128.67 18.9736 129.058 19.3428C129.44 19.7165 129.632 20.1836 129.632 20.7441C129.632 21.4824 129.356 22.0863 128.805 22.5557C128.258 23.0205 127.41 23.2529 126.262 23.2529C125.09 23.2529 124.225 23.0068 123.664 22.5146C123.108 22.0179 122.83 21.3867 122.83 20.6211H124.806ZM14.7402 37.1299C14.7402 36.6058 14.6012 36.2321 14.3232 36.0088C14.0498 35.7855 13.6647 35.6738 13.168 35.6738H11.2061V38.6406H13.168C13.6647 38.6406 14.0498 38.5199 14.3232 38.2783C14.6012 38.0368 14.7402 37.654 14.7402 37.1299ZM16.8252 37.1162C16.8252 38.3057 16.5244 39.1465 15.9229 39.6387C15.3213 40.1309 14.4622 40.377 13.3457 40.377H11.2061V44H9.11426V33.9238H13.5029C14.5146 33.9238 15.3213 34.1836 15.9229 34.7031C16.5244 35.2227 16.8252 36.027 16.8252 37.1162ZM22.3555 36.3574C22.8158 36.3574 23.2327 36.4372 23.6064 36.5967C23.9847 36.7562 24.2946 37 24.5361 37.3281C24.7412 37.6061 24.8665 37.8932 24.9121 38.1895C24.9577 38.4811 24.9805 38.9596 24.9805 39.625V44H22.9912V39.4678C22.9912 39.0667 22.9229 38.7432 22.7861 38.4971C22.6084 38.1507 22.2712 37.9775 21.7744 37.9775C21.2594 37.9775 20.8675 38.1507 20.5986 38.4971C20.3343 38.8389 20.2021 39.3288 20.2021 39.9668V44H18.2607V33.958H20.2021V37.5195C20.4847 37.0866 20.8105 36.7858 21.1797 36.6172C21.5534 36.444 21.9453 36.3574 22.3555 36.3574ZM30.1484 42.626C30.7181 42.626 31.1556 42.4232 31.4609 42.0176C31.7663 41.612 31.9189 41.0355 31.9189 40.2881C31.9189 39.5407 31.7663 38.9665 31.4609 38.5654C31.1556 38.1598 30.7181 37.957 30.1484 37.957C29.5788 37.957 29.139 38.1598 28.8291 38.5654C28.5238 38.9665 28.3711 39.5407 28.3711 40.2881C28.3711 41.0355 28.5238 41.612 28.8291 42.0176C29.139 42.4232 29.5788 42.626 30.1484 42.626ZM33.9629 40.2881C33.9629 41.3818 33.6484 42.3184 33.0195 43.0977C32.3906 43.8724 31.4359 44.2598 30.1553 44.2598C28.8747 44.2598 27.9199 43.8724 27.291 43.0977C26.6621 42.3184 26.3477 41.3818 26.3477 40.2881C26.3477 39.2126 26.6621 38.2806 27.291 37.4922C27.9199 36.7038 28.8747 36.3096 30.1553 36.3096C31.4359 36.3096 32.3906 36.7038 33.0195 37.4922C33.6484 38.2806 33.9629 39.2126 33.9629 40.2881ZM34.5986 38.0049V36.6172H35.6377V34.5391H37.5654V36.6172H38.7754V38.0049H37.5654V41.9424C37.5654 42.2477 37.6042 42.4391 37.6816 42.5166C37.7591 42.5895 37.9961 42.626 38.3926 42.626C38.4518 42.626 38.5133 42.626 38.5771 42.626C38.6455 42.6214 38.7116 42.6169 38.7754 42.6123V44.0684L37.8525 44.1025C36.932 44.1344 36.3031 43.9749 35.9658 43.624C35.7471 43.4007 35.6377 43.0566 35.6377 42.5918V38.0049H34.5986ZM43.3691 42.626C43.9388 42.626 44.3763 42.4232 44.6816 42.0176C44.987 41.612 45.1396 41.0355 45.1396 40.2881C45.1396 39.5407 44.987 38.9665 44.6816 38.5654C44.3763 38.1598 43.9388 37.957 43.3691 37.957C42.7995 37.957 42.3597 38.1598 42.0498 38.5654C41.7445 38.9665 41.5918 39.5407 41.5918 40.2881C41.5918 41.0355 41.7445 41.612 42.0498 42.0176C42.3597 42.4232 42.7995 42.626 43.3691 42.626ZM47.1836 40.2881C47.1836 41.3818 46.8691 42.3184 46.2402 43.0977C45.6113 43.8724 44.6566 44.2598 43.376 44.2598C42.0954 44.2598 41.1406 43.8724 40.5117 43.0977C39.8828 42.3184 39.5684 41.3818 39.5684 40.2881C39.5684 39.2126 39.8828 38.2806 40.5117 37.4922C41.1406 36.7038 42.0954 36.3096 43.376 36.3096C44.6566 36.3096 45.6113 36.7038 46.2402 37.4922C46.8691 38.2806 47.1836 39.2126 47.1836 40.2881ZM51.7842 42.4004C52.2399 42.4004 52.625 42.2295 52.9395 41.8877C53.2539 41.5413 53.4111 40.9922 53.4111 40.2402C53.4111 39.5339 53.2607 38.9961 52.96 38.627C52.6637 38.2578 52.265 38.0732 51.7637 38.0732C51.0801 38.0732 50.6084 38.3945 50.3486 39.0371C50.2119 39.3789 50.1436 39.8005 50.1436 40.3018C50.1436 40.7347 50.2165 41.1198 50.3623 41.457C50.6266 42.0859 51.1006 42.4004 51.7842 42.4004ZM51.2988 36.3711C51.6725 36.3711 51.9984 36.4281 52.2764 36.542C52.7503 36.738 53.1331 37.098 53.4248 37.6221V36.5488H55.3184V43.6172C55.3184 44.5788 55.1566 45.3034 54.833 45.791C54.277 46.6296 53.2106 47.0488 51.6338 47.0488C50.6813 47.0488 49.9043 46.862 49.3027 46.4883C48.7012 46.1146 48.3685 45.5563 48.3047 44.8135H50.4238C50.4785 45.0413 50.5674 45.2054 50.6904 45.3057C50.9001 45.4834 51.2533 45.5723 51.75 45.5723C52.4518 45.5723 52.9212 45.3376 53.1582 44.8682C53.3132 44.5674 53.3906 44.0615 53.3906 43.3506V42.8721C53.2038 43.1911 53.0033 43.4303 52.7891 43.5898C52.4017 43.8861 51.8981 44.0342 51.2783 44.0342C50.3213 44.0342 49.5557 43.6992 48.9814 43.0293C48.4118 42.3548 48.127 41.4434 48.127 40.2949C48.127 39.1875 48.4027 38.2578 48.9541 37.5059C49.5055 36.7493 50.2871 36.3711 51.2988 36.3711ZM61.1904 36.3711C61.2269 36.3711 61.2565 36.3734 61.2793 36.3779C61.3066 36.3779 61.3636 36.3802 61.4502 36.3848V38.3809C61.3271 38.3672 61.2178 38.3581 61.1221 38.3535C61.0264 38.349 60.9489 38.3467 60.8896 38.3467C60.1058 38.3467 59.5794 38.6019 59.3105 39.1123C59.1602 39.3994 59.085 39.8415 59.085 40.4385V44H57.123V36.5488H58.9824V37.8477C59.2832 37.3509 59.5452 37.0114 59.7686 36.8291C60.1331 36.5238 60.6071 36.3711 61.1904 36.3711ZM66.707 40.377C66.584 40.4544 66.4587 40.5182 66.3311 40.5684C66.208 40.6139 66.0371 40.6572 65.8184 40.6982L65.3809 40.7803C64.9707 40.8532 64.6768 40.9421 64.499 41.0469C64.1982 41.2246 64.0479 41.5003 64.0479 41.874C64.0479 42.2067 64.139 42.4482 64.3213 42.5986C64.5081 42.7445 64.7337 42.8174 64.998 42.8174C65.4173 42.8174 65.8024 42.6943 66.1533 42.4482C66.5088 42.2021 66.6934 41.7533 66.707 41.1016V40.377ZM65.5244 39.4678C65.8844 39.4222 66.1419 39.3652 66.2969 39.2969C66.5749 39.1784 66.7139 38.9938 66.7139 38.7432C66.7139 38.4378 66.6068 38.2282 66.3926 38.1143C66.1829 37.9958 65.873 37.9365 65.4629 37.9365C65.0026 37.9365 64.6768 38.0505 64.4854 38.2783C64.3486 38.4469 64.2575 38.6748 64.2119 38.9619H62.332C62.373 38.3102 62.5553 37.7747 62.8789 37.3555C63.3939 36.6992 64.278 36.3711 65.5312 36.3711C66.347 36.3711 67.0716 36.5329 67.7051 36.8564C68.3385 37.18 68.6553 37.7907 68.6553 38.6885V42.1064C68.6553 42.3434 68.6598 42.6305 68.6689 42.9678C68.6826 43.223 68.7214 43.3962 68.7852 43.4873C68.849 43.5785 68.9447 43.6536 69.0723 43.7129V44H66.9531C66.8939 43.8496 66.8529 43.7083 66.8301 43.5762C66.8073 43.444 66.7891 43.2936 66.7754 43.125C66.5065 43.4167 66.1966 43.665 65.8457 43.8701C65.4264 44.1117 64.9525 44.2324 64.4238 44.2324C63.7493 44.2324 63.1911 44.041 62.749 43.6582C62.3115 43.2708 62.0928 42.724 62.0928 42.0176C62.0928 41.1016 62.446 40.4385 63.1523 40.0283C63.5397 39.805 64.1094 39.6455 64.8613 39.5498L65.5244 39.4678ZM75.5254 40.2744C75.5254 39.7002 75.3932 39.1921 75.1289 38.75C74.8691 38.3079 74.4453 38.0869 73.8574 38.0869C73.151 38.0869 72.6657 38.4219 72.4014 39.0918C72.2646 39.4473 72.1963 39.8984 72.1963 40.4453C72.1963 41.3112 72.4264 41.9196 72.8867 42.2705C73.1602 42.4756 73.4837 42.5781 73.8574 42.5781C74.3997 42.5781 74.8122 42.3685 75.0947 41.9492C75.3818 41.5299 75.5254 40.9717 75.5254 40.2744ZM74.418 36.3848C75.2884 36.3848 76.0244 36.7061 76.626 37.3486C77.2321 37.9912 77.5352 38.9346 77.5352 40.1787C77.5352 41.4912 77.2389 42.4915 76.6465 43.1797C76.0586 43.8678 75.2998 44.2119 74.3701 44.2119C73.7777 44.2119 73.2855 44.0638 72.8936 43.7676C72.6794 43.6035 72.4697 43.3643 72.2646 43.0498V46.9326H70.3369V36.5488H72.2031V37.6494C72.4128 37.3258 72.6361 37.0706 72.873 36.8838C73.306 36.5511 73.821 36.3848 74.418 36.3848ZM83.0586 36.3574C83.5189 36.3574 83.9359 36.4372 84.3096 36.5967C84.6878 36.7562 84.9977 37 85.2393 37.3281C85.4443 37.6061 85.5697 37.8932 85.6152 38.1895C85.6608 38.4811 85.6836 38.9596 85.6836 39.625V44H83.6943V39.4678C83.6943 39.0667 83.626 38.7432 83.4893 38.4971C83.3115 38.1507 82.9743 37.9775 82.4775 37.9775C81.9626 37.9775 81.5706 38.1507 81.3018 38.4971C81.0374 38.8389 80.9053 39.3288 80.9053 39.9668V44H78.9639V33.958H80.9053V37.5195C81.1878 37.0866 81.5137 36.7858 81.8828 36.6172C82.2565 36.444 82.6484 36.3574 83.0586 36.3574ZM90.4482 37.957C89.9971 37.957 89.6462 38.0983 89.3955 38.3809C89.1494 38.6634 88.9945 39.0462 88.9307 39.5293H91.959C91.9271 39.0143 91.7699 38.6247 91.4873 38.3604C91.2093 38.0915 90.863 37.957 90.4482 37.957ZM90.4482 36.3506C91.068 36.3506 91.6263 36.4668 92.123 36.6992C92.6198 36.9316 93.0299 37.2985 93.3535 37.7998C93.6452 38.2419 93.8343 38.7546 93.9209 39.3379C93.971 39.6797 93.9915 40.1719 93.9824 40.8145H88.8828C88.9102 41.5618 89.1449 42.0859 89.5869 42.3867C89.8558 42.5736 90.1794 42.667 90.5576 42.667C90.9587 42.667 91.2845 42.5531 91.5352 42.3252C91.6719 42.2021 91.7926 42.0312 91.8975 41.8125H93.8867C93.8366 42.2546 93.6064 42.7035 93.1963 43.1592C92.5583 43.8838 91.665 44.2461 90.5166 44.2461C89.5687 44.2461 88.7324 43.9408 88.0078 43.3301C87.2832 42.7194 86.9209 41.7259 86.9209 40.3496C86.9209 39.0599 87.2467 38.071 87.8984 37.3828C88.5547 36.6947 89.4046 36.3506 90.4482 36.3506ZM99.3486 36.3711C99.3851 36.3711 99.4147 36.3734 99.4375 36.3779C99.4648 36.3779 99.5218 36.3802 99.6084 36.3848V38.3809C99.4854 38.3672 99.376 38.3581 99.2803 38.3535C99.1846 38.349 99.1071 38.3467 99.0479 38.3467C98.264 38.3467 97.7376 38.6019 97.4688 39.1123C97.3184 39.3994 97.2432 39.8415 97.2432 40.4385V44H95.2812V36.5488H97.1406V37.8477C97.4414 37.3509 97.7035 37.0114 97.9268 36.8291C98.2913 36.5238 98.7653 36.3711 99.3486 36.3711ZM102.274 41.6211C102.315 41.9674 102.404 42.2135 102.541 42.3594C102.783 42.6191 103.229 42.749 103.881 42.749C104.264 42.749 104.567 42.6921 104.79 42.5781C105.018 42.4642 105.132 42.2933 105.132 42.0654C105.132 41.8467 105.041 41.6803 104.858 41.5664C104.676 41.4525 103.999 41.2565 102.828 40.9785C101.985 40.7689 101.39 40.5068 101.044 40.1924C100.698 39.8825 100.524 39.4359 100.524 38.8525C100.524 38.1644 100.793 37.5742 101.331 37.082C101.873 36.5853 102.634 36.3369 103.614 36.3369C104.544 36.3369 105.3 36.5238 105.884 36.8975C106.472 37.2666 106.809 37.9069 106.896 38.8184H104.947C104.92 38.5677 104.849 38.3695 104.735 38.2236C104.521 37.9593 104.157 37.8271 103.642 37.8271C103.218 37.8271 102.915 37.8932 102.732 38.0254C102.555 38.1576 102.466 38.3125 102.466 38.4902C102.466 38.7135 102.562 38.8753 102.753 38.9756C102.944 39.0804 103.621 39.2604 104.783 39.5156C105.558 39.6979 106.139 39.9736 106.526 40.3428C106.909 40.7165 107.101 41.1836 107.101 41.7441C107.101 42.4824 106.825 43.0863 106.273 43.5557C105.727 44.0205 104.879 44.2529 103.73 44.2529C102.559 44.2529 101.693 44.0068 101.133 43.5146C100.577 43.0179 100.299 42.3867 100.299 41.6211H102.274Z" fill="#495057"/>
<path d="M8.85449 53.8271H13.8301V54.7061H9.82617V56.8838H13.3467V57.7383H9.82617V61H8.85449V53.8271ZM14.7578 55.7949H15.6514V61H14.7578V55.7949ZM14.7578 53.8271H15.6514V54.8232H14.7578V53.8271ZM16.9844 55.7705H17.8193V56.5127C18.0667 56.2067 18.3288 55.987 18.6055 55.8535C18.8822 55.7201 19.1898 55.6533 19.5283 55.6533C20.2705 55.6533 20.7718 55.9121 21.0322 56.4297C21.1755 56.7129 21.2471 57.1182 21.2471 57.6455V61H20.3535V57.7041C20.3535 57.3851 20.3063 57.1279 20.2119 56.9326C20.0557 56.6071 19.7725 56.4443 19.3623 56.4443C19.154 56.4443 18.9831 56.4655 18.8496 56.5078C18.6087 56.5794 18.3971 56.7227 18.2148 56.9375C18.0684 57.11 17.9723 57.2891 17.9268 57.4746C17.8844 57.6569 17.8633 57.9189 17.8633 58.2607V61H16.9844V55.7705ZM23.1074 58.4463C23.1074 59.0062 23.2262 59.4749 23.4639 59.8525C23.7015 60.2301 24.0824 60.4189 24.6064 60.4189C25.0133 60.4189 25.347 60.2448 25.6074 59.8965C25.8711 59.5449 26.0029 59.042 26.0029 58.3877C26.0029 57.7269 25.8678 57.2386 25.5977 56.9229C25.3275 56.6038 24.9938 56.4443 24.5967 56.4443C24.154 56.4443 23.7943 56.6136 23.5176 56.9521C23.2441 57.2907 23.1074 57.7887 23.1074 58.4463ZM24.4307 55.6777C24.8311 55.6777 25.1663 55.7624 25.4365 55.9316C25.5928 56.0293 25.7702 56.2002 25.9688 56.4443V53.8027H26.8135V61H26.0225V60.2725C25.8174 60.5947 25.5749 60.8275 25.2949 60.9707C25.015 61.1139 24.6943 61.1855 24.333 61.1855C23.7503 61.1855 23.2458 60.9414 22.8193 60.4531C22.3929 59.9616 22.1797 59.3089 22.1797 58.4951C22.1797 57.7334 22.3734 57.0742 22.7607 56.5176C23.1514 55.9577 23.708 55.6777 24.4307 55.6777ZM30.9004 55.7705H31.7695V56.5127C31.9779 56.2555 32.1667 56.0684 32.3359 55.9512C32.6257 55.7526 32.9544 55.6533 33.3223 55.6533C33.7389 55.6533 34.0742 55.7559 34.3281 55.9609C34.4714 56.0781 34.6016 56.2507 34.7188 56.4785C34.9141 56.1986 35.1436 55.9919 35.4072 55.8584C35.6709 55.7217 35.9671 55.6533 36.2959 55.6533C36.999 55.6533 37.4775 55.9072 37.7314 56.415C37.8682 56.6885 37.9365 57.0563 37.9365 57.5186V61H37.0234V57.3672C37.0234 57.0189 36.9355 56.7796 36.7598 56.6494C36.5872 56.5192 36.3757 56.4541 36.125 56.4541C35.7799 56.4541 35.4821 56.5697 35.2314 56.8008C34.984 57.0319 34.8604 57.4176 34.8604 57.958V61H33.9668V57.5869C33.9668 57.2321 33.9245 56.9733 33.8398 56.8105C33.7064 56.5664 33.4574 56.4443 33.0928 56.4443C32.7607 56.4443 32.458 56.5729 32.1846 56.8301C31.9144 57.0872 31.7793 57.5527 31.7793 58.2266V61H30.9004V55.7705ZM41.3057 60.4336C41.8883 60.4336 42.2871 60.2139 42.502 59.7744C42.7201 59.3317 42.8291 58.8402 42.8291 58.2998C42.8291 57.8115 42.751 57.4144 42.5947 57.1084C42.3473 56.6266 41.9209 56.3857 41.3154 56.3857C40.7783 56.3857 40.3877 56.5908 40.1436 57.001C39.8994 57.4111 39.7773 57.9059 39.7773 58.4854C39.7773 59.042 39.8994 59.5059 40.1436 59.877C40.3877 60.248 40.7751 60.4336 41.3057 60.4336ZM41.3398 55.6191C42.0137 55.6191 42.5833 55.8438 43.0488 56.293C43.5143 56.7422 43.7471 57.403 43.7471 58.2754C43.7471 59.1185 43.542 59.8151 43.1318 60.3652C42.7217 60.9154 42.0853 61.1904 41.2227 61.1904C40.5033 61.1904 39.932 60.9479 39.5088 60.4629C39.0856 59.9746 38.874 59.3203 38.874 58.5C38.874 57.6211 39.097 56.9212 39.543 56.4004C39.9889 55.8796 40.5879 55.6191 41.3398 55.6191ZM45.3193 59.3594C45.3454 59.6523 45.4186 59.877 45.5391 60.0332C45.7604 60.3164 46.1445 60.458 46.6914 60.458C47.0169 60.458 47.3034 60.388 47.5508 60.248C47.7982 60.1048 47.9219 59.8851 47.9219 59.5889C47.9219 59.3643 47.8226 59.1934 47.624 59.0762C47.4971 59.0046 47.2464 58.9215 46.8721 58.8271L46.1738 58.6514C45.7279 58.5407 45.3991 58.417 45.1875 58.2803C44.8099 58.0426 44.6211 57.7139 44.6211 57.2939C44.6211 56.7992 44.7985 56.3988 45.1533 56.0928C45.5114 55.7868 45.9915 55.6338 46.5938 55.6338C47.3815 55.6338 47.9495 55.8649 48.2979 56.3271C48.516 56.6201 48.6217 56.9359 48.6152 57.2744H47.7852C47.7689 57.0758 47.6989 56.8952 47.5752 56.7324C47.3734 56.5013 47.0234 56.3857 46.5254 56.3857C46.1934 56.3857 45.9411 56.4492 45.7686 56.5762C45.5993 56.7031 45.5146 56.8708 45.5146 57.0791C45.5146 57.307 45.627 57.4893 45.8516 57.626C45.9818 57.7074 46.1738 57.779 46.4277 57.8408L47.0088 57.9824C47.6403 58.1354 48.0635 58.2835 48.2783 58.4268C48.6201 58.6514 48.791 59.0046 48.791 59.4863C48.791 59.9518 48.6136 60.3538 48.2588 60.6924C47.9072 61.0309 47.3701 61.2002 46.6475 61.2002C45.8695 61.2002 45.3177 61.0244 44.9922 60.6729C44.6699 60.318 44.4974 59.8802 44.4746 59.3594H45.3193ZM49.9727 54.3105H50.8613V55.7705H51.6963V56.4883H50.8613V59.9014C50.8613 60.0837 50.9232 60.2057 51.0469 60.2676C51.1152 60.3034 51.2292 60.3213 51.3887 60.3213C51.431 60.3213 51.4766 60.3213 51.5254 60.3213C51.5742 60.318 51.6312 60.3132 51.6963 60.3066V61C51.5954 61.0293 51.4896 61.0505 51.3789 61.0635C51.2715 61.0765 51.1543 61.083 51.0273 61.083C50.6172 61.083 50.3389 60.9788 50.1924 60.7705C50.0459 60.5589 49.9727 60.2855 49.9727 59.9502V56.4883H49.2646V55.7705H49.9727V54.3105ZM57.5703 60.4092C57.9805 60.4092 58.3206 60.2383 58.5908 59.8965C58.8643 59.5514 59.001 59.0371 59.001 58.3535C59.001 57.9368 58.9408 57.5788 58.8203 57.2793C58.5924 56.7031 58.1758 56.415 57.5703 56.415C56.9616 56.415 56.5449 56.7194 56.3203 57.3281C56.1999 57.6536 56.1396 58.0671 56.1396 58.5684C56.1396 58.972 56.1999 59.3154 56.3203 59.5986C56.5482 60.139 56.9648 60.4092 57.5703 60.4092ZM55.2949 55.7949H56.1494V56.4883C56.3252 56.2507 56.5173 56.0667 56.7256 55.9365C57.0218 55.7412 57.3701 55.6436 57.7705 55.6436C58.363 55.6436 58.8659 55.8714 59.2793 56.3271C59.6927 56.7796 59.8994 57.4274 59.8994 58.2705C59.8994 59.4098 59.6016 60.2236 59.0059 60.7119C58.6283 61.0212 58.1888 61.1758 57.6875 61.1758C57.2936 61.1758 56.9632 61.0895 56.6963 60.917C56.54 60.8193 56.3659 60.6517 56.1738 60.4141V63.085H55.2949V55.7949ZM60.9297 53.8027H61.8086V56.4785C62.0169 56.2148 62.2041 56.0293 62.3701 55.9219C62.6533 55.7363 63.0065 55.6436 63.4297 55.6436C64.1882 55.6436 64.7025 55.9089 64.9727 56.4395C65.1191 56.7292 65.1924 57.1312 65.1924 57.6455V61H64.2891V57.7041C64.2891 57.32 64.2402 57.0384 64.1426 56.8594C63.9831 56.5729 63.6836 56.4297 63.2441 56.4297C62.8796 56.4297 62.5492 56.555 62.2529 56.8057C61.9567 57.0563 61.8086 57.5299 61.8086 58.2266V61H60.9297V53.8027ZM68.5713 60.4336C69.154 60.4336 69.5527 60.2139 69.7676 59.7744C69.9857 59.3317 70.0947 58.8402 70.0947 58.2998C70.0947 57.8115 70.0166 57.4144 69.8604 57.1084C69.613 56.6266 69.1865 56.3857 68.5811 56.3857C68.0439 56.3857 67.6533 56.5908 67.4092 57.001C67.165 57.4111 67.043 57.9059 67.043 58.4854C67.043 59.042 67.165 59.5059 67.4092 59.877C67.6533 60.248 68.0407 60.4336 68.5713 60.4336ZM68.6055 55.6191C69.2793 55.6191 69.849 55.8438 70.3145 56.293C70.7799 56.7422 71.0127 57.403 71.0127 58.2754C71.0127 59.1185 70.8076 59.8151 70.3975 60.3652C69.9873 60.9154 69.3509 61.1904 68.4883 61.1904C67.7689 61.1904 67.1976 60.9479 66.7744 60.4629C66.3512 59.9746 66.1396 59.3203 66.1396 58.5C66.1396 57.6211 66.3626 56.9212 66.8086 56.4004C67.2546 55.8796 67.8535 55.6191 68.6055 55.6191ZM72.2383 54.3105H73.127V55.7705H73.9619V56.4883H73.127V59.9014C73.127 60.0837 73.1888 60.2057 73.3125 60.2676C73.3809 60.3034 73.4948 60.3213 73.6543 60.3213C73.6966 60.3213 73.7422 60.3213 73.791 60.3213C73.8398 60.318 73.8968 60.3132 73.9619 60.3066V61C73.861 61.0293 73.7552 61.0505 73.6445 61.0635C73.5371 61.0765 73.4199 61.083 73.293 61.083C72.8828 61.083 72.6045 60.9788 72.458 60.7705C72.3115 60.5589 72.2383 60.2855 72.2383 59.9502V56.4883H71.5303V55.7705H72.2383V54.3105ZM76.9209 60.4336C77.5036 60.4336 77.9023 60.2139 78.1172 59.7744C78.3353 59.3317 78.4443 58.8402 78.4443 58.2998C78.4443 57.8115 78.3662 57.4144 78.21 57.1084C77.9626 56.6266 77.5361 56.3857 76.9307 56.3857C76.3936 56.3857 76.0029 56.5908 75.7588 57.001C75.5146 57.4111 75.3926 57.9059 75.3926 58.4854C75.3926 59.042 75.5146 59.5059 75.7588 59.877C76.0029 60.248 76.3903 60.4336 76.9209 60.4336ZM76.9551 55.6191C77.6289 55.6191 78.1986 55.8438 78.6641 56.293C79.1296 56.7422 79.3623 57.403 79.3623 58.2754C79.3623 59.1185 79.1572 59.8151 78.7471 60.3652C78.3369 60.9154 77.7005 61.1904 76.8379 61.1904C76.1185 61.1904 75.5472 60.9479 75.124 60.4629C74.7008 59.9746 74.4893 59.3203 74.4893 58.5C74.4893 57.6211 74.7122 56.9212 75.1582 56.4004C75.6042 55.8796 76.2031 55.6191 76.9551 55.6191ZM80.9346 59.3594C80.9606 59.6523 81.0339 59.877 81.1543 60.0332C81.3757 60.3164 81.7598 60.458 82.3066 60.458C82.6322 60.458 82.9186 60.388 83.166 60.248C83.4134 60.1048 83.5371 59.8851 83.5371 59.5889C83.5371 59.3643 83.4378 59.1934 83.2393 59.0762C83.1123 59.0046 82.8617 58.9215 82.4873 58.8271L81.7891 58.6514C81.3431 58.5407 81.0143 58.417 80.8027 58.2803C80.4251 58.0426 80.2363 57.7139 80.2363 57.2939C80.2363 56.7992 80.4137 56.3988 80.7686 56.0928C81.1266 55.7868 81.6068 55.6338 82.209 55.6338C82.9967 55.6338 83.5648 55.8649 83.9131 56.3271C84.1312 56.6201 84.237 56.9359 84.2305 57.2744H83.4004C83.3841 57.0758 83.3141 56.8952 83.1904 56.7324C82.9886 56.5013 82.6387 56.3857 82.1406 56.3857C81.8086 56.3857 81.5563 56.4492 81.3838 56.5762C81.2145 56.7031 81.1299 56.8708 81.1299 57.0791C81.1299 57.307 81.2422 57.4893 81.4668 57.626C81.597 57.7074 81.7891 57.779 82.043 57.8408L82.624 57.9824C83.2555 58.1354 83.6787 58.2835 83.8936 58.4268C84.2354 58.6514 84.4062 59.0046 84.4062 59.4863C84.4062 59.9518 84.2288 60.3538 83.874 60.6924C83.5225 61.0309 82.9854 61.2002 82.2627 61.2002C81.4847 61.2002 80.9329 61.0244 80.6074 60.6729C80.2852 60.318 80.1126 59.8802 80.0898 59.3594H80.9346ZM85.4121 53.8027H86.291V56.4785C86.4993 56.2148 86.6865 56.0293 86.8525 55.9219C87.1357 55.7363 87.4889 55.6436 87.9121 55.6436C88.6706 55.6436 89.1849 55.9089 89.4551 56.4395C89.6016 56.7292 89.6748 57.1312 89.6748 57.6455V61H88.7715V57.7041C88.7715 57.32 88.7227 57.0384 88.625 56.8594C88.4655 56.5729 88.166 56.4297 87.7266 56.4297C87.362 56.4297 87.0316 56.555 86.7354 56.8057C86.4391 57.0563 86.291 57.5299 86.291 58.2266V61H85.4121V53.8027ZM93.0537 60.4336C93.6364 60.4336 94.0352 60.2139 94.25 59.7744C94.4681 59.3317 94.5771 58.8402 94.5771 58.2998C94.5771 57.8115 94.499 57.4144 94.3428 57.1084C94.0954 56.6266 93.6689 56.3857 93.0635 56.3857C92.5264 56.3857 92.1357 56.5908 91.8916 57.001C91.6475 57.4111 91.5254 57.9059 91.5254 58.4854C91.5254 59.042 91.6475 59.5059 91.8916 59.877C92.1357 60.248 92.5231 60.4336 93.0537 60.4336ZM93.0879 55.6191C93.7617 55.6191 94.3314 55.8438 94.7969 56.293C95.2624 56.7422 95.4951 57.403 95.4951 58.2754C95.4951 59.1185 95.29 59.8151 94.8799 60.3652C94.4697 60.9154 93.8333 61.1904 92.9707 61.1904C92.2513 61.1904 91.68 60.9479 91.2568 60.4629C90.8337 59.9746 90.6221 59.3203 90.6221 58.5C90.6221 57.6211 90.8451 56.9212 91.291 56.4004C91.737 55.8796 92.3359 55.6191 93.0879 55.6191ZM98.6201 60.4336C99.2028 60.4336 99.6016 60.2139 99.8164 59.7744C100.035 59.3317 100.144 58.8402 100.144 58.2998C100.144 57.8115 100.065 57.4144 99.9092 57.1084C99.6618 56.6266 99.2354 56.3857 98.6299 56.3857C98.0928 56.3857 97.7021 56.5908 97.458 57.001C97.2139 57.4111 97.0918 57.9059 97.0918 58.4854C97.0918 59.042 97.2139 59.5059 97.458 59.877C97.7021 60.248 98.0895 60.4336 98.6201 60.4336ZM98.6543 55.6191C99.3281 55.6191 99.8978 55.8438 100.363 56.293C100.829 56.7422 101.062 57.403 101.062 58.2754C101.062 59.1185 100.856 59.8151 100.446 60.3652C100.036 60.9154 99.3997 61.1904 98.5371 61.1904C97.8177 61.1904 97.2464 60.9479 96.8232 60.4629C96.4001 59.9746 96.1885 59.3203 96.1885 58.5C96.1885 57.6211 96.4115 56.9212 96.8574 56.4004C97.3034 55.8796 97.9023 55.6191 98.6543 55.6191ZM102.287 54.3105H103.176V55.7705H104.011V56.4883H103.176V59.9014C103.176 60.0837 103.238 60.2057 103.361 60.2676C103.43 60.3034 103.544 60.3213 103.703 60.3213C103.745 60.3213 103.791 60.3213 103.84 60.3213C103.889 60.318 103.946 60.3132 104.011 60.3066V61C103.91 61.0293 103.804 61.0505 103.693 61.0635C103.586 61.0765 103.469 61.083 103.342 61.083C102.932 61.083 102.653 60.9788 102.507 60.7705C102.36 60.5589 102.287 60.2855 102.287 59.9502V56.4883H101.579V55.7705H102.287V54.3105ZM105.417 59.3594C105.443 59.6523 105.516 59.877 105.637 60.0332C105.858 60.3164 106.242 60.458 106.789 60.458C107.115 60.458 107.401 60.388 107.648 60.248C107.896 60.1048 108.02 59.8851 108.02 59.5889C108.02 59.3643 107.92 59.1934 107.722 59.0762C107.595 59.0046 107.344 58.9215 106.97 58.8271L106.271 58.6514C105.826 58.5407 105.497 58.417 105.285 58.2803C104.908 58.0426 104.719 57.7139 104.719 57.2939C104.719 56.7992 104.896 56.3988 105.251 56.0928C105.609 55.7868 106.089 55.6338 106.691 55.6338C107.479 55.6338 108.047 55.8649 108.396 56.3271C108.614 56.6201 108.719 56.9359 108.713 57.2744H107.883C107.867 57.0758 107.797 56.8952 107.673 56.7324C107.471 56.5013 107.121 56.3857 106.623 56.3857C106.291 56.3857 106.039 56.4492 105.866 56.5762C105.697 56.7031 105.612 56.8708 105.612 57.0791C105.612 57.307 105.725 57.4893 105.949 57.626C106.079 57.7074 106.271 57.779 106.525 57.8408L107.106 57.9824C107.738 58.1354 108.161 58.2835 108.376 58.4268C108.718 58.6514 108.889 59.0046 108.889 59.4863C108.889 59.9518 108.711 60.3538 108.356 60.6924C108.005 61.0309 107.468 61.2002 106.745 61.2002C105.967 61.2002 105.415 61.0244 105.09 60.6729C104.768 60.318 104.595 59.8802 104.572 59.3594H105.417ZM10.8516 75.4092C11.2617 75.4092 11.6019 75.2383 11.8721 74.8965C12.1455 74.5514 12.2822 74.0371 12.2822 73.3535C12.2822 72.9368 12.222 72.5788 12.1016 72.2793C11.8737 71.7031 11.457 71.415 10.8516 71.415C10.2428 71.415 9.82617 71.7194 9.60156 72.3281C9.48112 72.6536 9.4209 73.0671 9.4209 73.5684C9.4209 73.972 9.48112 74.3154 9.60156 74.5986C9.82943 75.139 10.2461 75.4092 10.8516 75.4092ZM8.57617 70.7949H9.43066V71.4883C9.60645 71.2507 9.7985 71.0667 10.0068 70.9365C10.3031 70.7412 10.6514 70.6436 11.0518 70.6436C11.6442 70.6436 12.1471 70.8714 12.5605 71.3271C12.974 71.7796 13.1807 72.4274 13.1807 73.2705C13.1807 74.4098 12.8828 75.2236 12.2871 75.7119C11.9095 76.0212 11.4701 76.1758 10.9688 76.1758C10.5749 76.1758 10.2445 76.0895 9.97754 75.917C9.82129 75.8193 9.64714 75.6517 9.45508 75.4141V78.085H8.57617V70.7949ZM14.2109 68.8027H15.0898V71.4785C15.2982 71.2148 15.4854 71.0293 15.6514 70.9219C15.9346 70.7363 16.2878 70.6436 16.7109 70.6436C17.4694 70.6436 17.9837 70.9089 18.2539 71.4395C18.4004 71.7292 18.4736 72.1312 18.4736 72.6455V76H17.5703V72.7041C17.5703 72.32 17.5215 72.0384 17.4238 71.8594C17.2643 71.5729 16.9648 71.4297 16.5254 71.4297C16.1608 71.4297 15.8304 71.555 15.5342 71.8057C15.238 72.0563 15.0898 72.5299 15.0898 73.2266V76H14.2109V68.8027ZM21.8525 75.4336C22.4352 75.4336 22.834 75.2139 23.0488 74.7744C23.2669 74.3317 23.376 73.8402 23.376 73.2998C23.376 72.8115 23.2979 72.4144 23.1416 72.1084C22.8942 71.6266 22.4678 71.3857 21.8623 71.3857C21.3252 71.3857 20.9346 71.5908 20.6904 72.001C20.4463 72.4111 20.3242 72.9059 20.3242 73.4854C20.3242 74.042 20.4463 74.5059 20.6904 74.877C20.9346 75.248 21.3219 75.4336 21.8525 75.4336ZM21.8867 70.6191C22.5605 70.6191 23.1302 70.8438 23.5957 71.293C24.0612 71.7422 24.2939 72.403 24.2939 73.2754C24.2939 74.1185 24.0889 74.8151 23.6787 75.3652C23.2686 75.9154 22.6322 76.1904 21.7695 76.1904C21.0501 76.1904 20.4788 75.9479 20.0557 75.4629C19.6325 74.9746 19.4209 74.3203 19.4209 73.5C19.4209 72.6211 19.6439 71.9212 20.0898 71.4004C20.5358 70.8796 21.1348 70.6191 21.8867 70.6191ZM25.5195 69.3105H26.4082V70.7705H27.2432V71.4883H26.4082V74.9014C26.4082 75.0837 26.4701 75.2057 26.5938 75.2676C26.6621 75.3034 26.776 75.3213 26.9355 75.3213C26.9779 75.3213 27.0234 75.3213 27.0723 75.3213C27.1211 75.318 27.1781 75.3132 27.2432 75.3066V76C27.1423 76.0293 27.0365 76.0505 26.9258 76.0635C26.8184 76.0765 26.7012 76.083 26.5742 76.083C26.1641 76.083 25.8857 75.9788 25.7393 75.7705C25.5928 75.5589 25.5195 75.2855 25.5195 74.9502V71.4883H24.8115V70.7705H25.5195V69.3105ZM30.2021 75.4336C30.7848 75.4336 31.1836 75.2139 31.3984 74.7744C31.6165 74.3317 31.7256 73.8402 31.7256 73.2998C31.7256 72.8115 31.6475 72.4144 31.4912 72.1084C31.2438 71.6266 30.8174 71.3857 30.2119 71.3857C29.6748 71.3857 29.2842 71.5908 29.04 72.001C28.7959 72.4111 28.6738 72.9059 28.6738 73.4854C28.6738 74.042 28.7959 74.5059 29.04 74.877C29.2842 75.248 29.6715 75.4336 30.2021 75.4336ZM30.2363 70.6191C30.9102 70.6191 31.4798 70.8438 31.9453 71.293C32.4108 71.7422 32.6436 72.403 32.6436 73.2754C32.6436 74.1185 32.4385 74.8151 32.0283 75.3652C31.6182 75.9154 30.9818 76.1904 30.1191 76.1904C29.3997 76.1904 28.8285 75.9479 28.4053 75.4629C27.9821 74.9746 27.7705 74.3203 27.7705 73.5C27.7705 72.6211 27.9935 71.9212 28.4395 71.4004C28.8854 70.8796 29.4844 70.6191 30.2363 70.6191ZM35.5391 70.6777C35.9492 70.6777 36.3073 70.7786 36.6133 70.9805C36.7793 71.0944 36.9486 71.2604 37.1211 71.4785V70.8193H37.9316V75.5752C37.9316 76.2393 37.834 76.7633 37.6387 77.1475C37.2741 77.8571 36.5856 78.2119 35.5732 78.2119C35.0101 78.2119 34.5365 78.085 34.1523 77.8311C33.7682 77.5804 33.5534 77.1865 33.5078 76.6494H34.4014C34.4437 76.8838 34.5283 77.0645 34.6553 77.1914C34.8538 77.3867 35.1663 77.4844 35.5928 77.4844C36.2666 77.4844 36.7077 77.2467 36.916 76.7715C37.0397 76.4915 37.0967 75.9919 37.0869 75.2725C36.9111 75.5394 36.6995 75.738 36.4521 75.8682C36.2048 75.9984 35.8776 76.0635 35.4707 76.0635C34.9043 76.0635 34.4079 75.8633 33.9814 75.4629C33.5583 75.0592 33.3467 74.3936 33.3467 73.4658C33.3467 72.5902 33.5599 71.9066 33.9863 71.415C34.416 70.9235 34.9336 70.6777 35.5391 70.6777ZM37.1211 73.3633C37.1211 72.7155 36.9876 72.2354 36.7207 71.9229C36.4538 71.6104 36.1136 71.4541 35.7002 71.4541C35.0817 71.4541 34.6585 71.7438 34.4307 72.3232C34.3102 72.6325 34.25 73.0378 34.25 73.5391C34.25 74.1283 34.3688 74.5775 34.6064 74.8867C34.8473 75.1927 35.1696 75.3457 35.5732 75.3457C36.2048 75.3457 36.6491 75.0609 36.9062 74.4912C37.0495 74.1689 37.1211 73.793 37.1211 73.3633ZM39.2842 70.7705H40.1191V71.6738C40.1875 71.498 40.3551 71.2848 40.6221 71.0342C40.889 70.7803 41.1966 70.6533 41.5449 70.6533C41.5612 70.6533 41.5889 70.6549 41.6279 70.6582C41.667 70.6615 41.7337 70.668 41.8281 70.6777V71.6055C41.776 71.5957 41.7272 71.5892 41.6816 71.5859C41.6393 71.5827 41.5921 71.5811 41.54 71.5811C41.0973 71.5811 40.7572 71.7243 40.5195 72.0107C40.2819 72.2939 40.1631 72.6211 40.1631 72.9922V76H39.2842V70.7705ZM43.2637 74.6084C43.2637 74.8623 43.3564 75.0625 43.542 75.209C43.7275 75.3555 43.9473 75.4287 44.2012 75.4287C44.5104 75.4287 44.8099 75.3571 45.0996 75.2139C45.5879 74.9762 45.832 74.5872 45.832 74.0469V73.3389C45.7246 73.4072 45.5863 73.4642 45.417 73.5098C45.2477 73.5553 45.0817 73.5879 44.9189 73.6074L44.3867 73.6758C44.0677 73.7181 43.8285 73.7848 43.6689 73.876C43.3988 74.029 43.2637 74.2731 43.2637 74.6084ZM45.3926 72.8311C45.5944 72.805 45.7295 72.7204 45.7979 72.5771C45.8369 72.499 45.8564 72.3867 45.8564 72.2402C45.8564 71.9408 45.749 71.7243 45.5342 71.5908C45.3226 71.4541 45.0182 71.3857 44.6211 71.3857C44.1621 71.3857 43.8366 71.5094 43.6445 71.7568C43.5371 71.8936 43.4671 72.097 43.4346 72.3672H42.6143C42.6305 71.7227 42.8389 71.2751 43.2393 71.0244C43.6429 70.7705 44.11 70.6436 44.6406 70.6436C45.2559 70.6436 45.7555 70.7607 46.1396 70.9951C46.5205 71.2295 46.7109 71.5941 46.7109 72.0889V75.1016C46.7109 75.1927 46.7288 75.266 46.7646 75.3213C46.8037 75.3766 46.8835 75.4043 47.0039 75.4043C47.043 75.4043 47.0869 75.4027 47.1357 75.3994C47.1846 75.3929 47.2367 75.3848 47.292 75.375V76.0244C47.1553 76.0635 47.0511 76.0879 46.9795 76.0977C46.9079 76.1074 46.8102 76.1123 46.6865 76.1123C46.3838 76.1123 46.1641 76.0049 46.0273 75.79C45.9557 75.6761 45.9053 75.515 45.876 75.3066C45.6969 75.541 45.4398 75.7445 45.1045 75.917C44.7692 76.0895 44.3997 76.1758 43.9961 76.1758C43.5111 76.1758 43.1139 76.0293 42.8047 75.7363C42.4987 75.4401 42.3457 75.0706 42.3457 74.6279C42.3457 74.1429 42.4971 73.7669 42.7998 73.5C43.1025 73.2331 43.4997 73.0687 43.9912 73.0068L45.3926 72.8311ZM50.3633 75.4092C50.7734 75.4092 51.1136 75.2383 51.3838 74.8965C51.6572 74.5514 51.7939 74.0371 51.7939 73.3535C51.7939 72.9368 51.7337 72.5788 51.6133 72.2793C51.3854 71.7031 50.9688 71.415 50.3633 71.415C49.7546 71.415 49.3379 71.7194 49.1133 72.3281C48.9928 72.6536 48.9326 73.0671 48.9326 73.5684C48.9326 73.972 48.9928 74.3154 49.1133 74.5986C49.3411 75.139 49.7578 75.4092 50.3633 75.4092ZM48.0879 70.7949H48.9424V71.4883C49.1182 71.2507 49.3102 71.0667 49.5186 70.9365C49.8148 70.7412 50.1631 70.6436 50.5635 70.6436C51.1559 70.6436 51.6589 70.8714 52.0723 71.3271C52.4857 71.7796 52.6924 72.4274 52.6924 73.2705C52.6924 74.4098 52.3945 75.2236 51.7988 75.7119C51.4212 76.0212 50.9818 76.1758 50.4805 76.1758C50.0866 76.1758 49.7562 76.0895 49.4893 75.917C49.333 75.8193 49.1589 75.6517 48.9668 75.4141V78.085H48.0879V70.7949ZM53.7227 68.8027H54.6016V71.4785C54.8099 71.2148 54.9971 71.0293 55.1631 70.9219C55.4463 70.7363 55.7995 70.6436 56.2227 70.6436C56.9811 70.6436 57.4954 70.9089 57.7656 71.4395C57.9121 71.7292 57.9854 72.1312 57.9854 72.6455V76H57.082V72.7041C57.082 72.32 57.0332 72.0384 56.9355 71.8594C56.776 71.5729 56.4766 71.4297 56.0371 71.4297C55.6725 71.4297 55.3421 71.555 55.0459 71.8057C54.7497 72.0563 54.6016 72.5299 54.6016 73.2266V76H53.7227V68.8027ZM61.4668 70.6533C61.8379 70.6533 62.1976 70.7412 62.5459 70.917C62.8942 71.0895 63.1595 71.3141 63.3418 71.5908C63.5176 71.8545 63.6348 72.1621 63.6934 72.5137C63.7454 72.7546 63.7715 73.1387 63.7715 73.666H59.9385C59.9548 74.1966 60.0801 74.623 60.3145 74.9453C60.5488 75.2643 60.9118 75.4238 61.4033 75.4238C61.8623 75.4238 62.2285 75.2725 62.502 74.9697C62.6582 74.7939 62.7689 74.5905 62.834 74.3594H63.6982C63.6755 74.5514 63.599 74.7663 63.4688 75.0039C63.3418 75.2383 63.1986 75.4303 63.0391 75.5801C62.7721 75.8405 62.4417 76.0163 62.0479 76.1074C61.8363 76.1595 61.597 76.1855 61.3301 76.1855C60.679 76.1855 60.1273 75.9495 59.6748 75.4775C59.2223 75.0023 58.9961 74.3382 58.9961 73.4854C58.9961 72.6455 59.224 71.9635 59.6797 71.4395C60.1354 70.9154 60.7311 70.6533 61.4668 70.6533ZM62.8682 72.9678C62.8324 72.5869 62.7493 72.2826 62.6191 72.0547C62.3783 71.6315 61.9762 71.4199 61.4131 71.4199C61.0094 71.4199 60.6709 71.5664 60.3975 71.8594C60.124 72.1491 59.9792 72.5186 59.9629 72.9678H62.8682ZM64.8799 70.7705H65.7148V71.6738C65.7832 71.498 65.9508 71.2848 66.2178 71.0342C66.4847 70.7803 66.7923 70.6533 67.1406 70.6533C67.1569 70.6533 67.1846 70.6549 67.2236 70.6582C67.2627 70.6615 67.3294 70.668 67.4238 70.6777V71.6055C67.3717 71.5957 67.3229 71.5892 67.2773 71.5859C67.235 71.5827 67.1878 71.5811 67.1357 71.5811C66.693 71.5811 66.3529 71.7243 66.1152 72.0107C65.8776 72.2939 65.7588 72.6211 65.7588 72.9922V76H64.8799V70.7705ZM68.708 74.3594C68.734 74.6523 68.8073 74.877 68.9277 75.0332C69.1491 75.3164 69.5332 75.458 70.0801 75.458C70.4056 75.458 70.6921 75.388 70.9395 75.248C71.1868 75.1048 71.3105 74.8851 71.3105 74.5889C71.3105 74.3643 71.2113 74.1934 71.0127 74.0762C70.8857 74.0046 70.6351 73.9215 70.2607 73.8271L69.5625 73.6514C69.1165 73.5407 68.7878 73.417 68.5762 73.2803C68.1986 73.0426 68.0098 72.7139 68.0098 72.2939C68.0098 71.7992 68.1872 71.3988 68.542 71.0928C68.9001 70.7868 69.3802 70.6338 69.9824 70.6338C70.7702 70.6338 71.3382 70.8649 71.6865 71.3271C71.9046 71.6201 72.0104 71.9359 72.0039 72.2744H71.1738C71.1576 72.0758 71.0876 71.8952 70.9639 71.7324C70.762 71.5013 70.4121 71.3857 69.9141 71.3857C69.582 71.3857 69.3298 71.4492 69.1572 71.5762C68.988 71.7031 68.9033 71.8708 68.9033 72.0791C68.9033 72.307 69.0156 72.4893 69.2402 72.626C69.3704 72.7074 69.5625 72.779 69.8164 72.8408L70.3975 72.9824C71.029 73.1354 71.4521 73.2835 71.667 73.4268C72.0088 73.6514 72.1797 74.0046 72.1797 74.4863C72.1797 74.9518 72.0023 75.3538 71.6475 75.6924C71.2959 76.0309 70.7588 76.2002 70.0361 76.2002C69.2581 76.2002 68.7064 76.0244 68.3809 75.6729C68.0586 75.318 67.8861 74.8802 67.8633 74.3594H68.708Z" fill="#6C757D"/>
<path d="M16.5176 98.708H11.1855V100.848H16.0801V102.598H11.1855V105.188H16.7637V107H9.12793V96.9238H16.5176V98.708ZM17.5156 107L20.0586 103.227L17.625 99.5625H20.0107L21.2549 101.723L22.4717 99.5625H24.7891L22.3418 103.192L24.8848 107H22.458L21.1729 104.765L19.8809 107H17.5156ZM31.1738 103.274C31.1738 102.7 31.0417 102.192 30.7773 101.75C30.5176 101.308 30.0938 101.087 29.5059 101.087C28.7995 101.087 28.3141 101.422 28.0498 102.092C27.9131 102.447 27.8447 102.898 27.8447 103.445C27.8447 104.311 28.0749 104.92 28.5352 105.271C28.8086 105.476 29.1322 105.578 29.5059 105.578C30.0482 105.578 30.4606 105.368 30.7432 104.949C31.0303 104.53 31.1738 103.972 31.1738 103.274ZM30.0664 99.3848C30.9368 99.3848 31.6729 99.7061 32.2744 100.349C32.8805 100.991 33.1836 101.935 33.1836 103.179C33.1836 104.491 32.8874 105.492 32.2949 106.18C31.707 106.868 30.9482 107.212 30.0186 107.212C29.4261 107.212 28.9339 107.064 28.542 106.768C28.3278 106.604 28.1182 106.364 27.9131 106.05V109.933H25.9854V99.5488H27.8516V100.649C28.0612 100.326 28.2845 100.071 28.5215 99.8838C28.9544 99.5511 29.4694 99.3848 30.0664 99.3848ZM36.5879 107H34.6396V96.9238H36.5879V107ZM41.8379 105.626C42.4076 105.626 42.8451 105.423 43.1504 105.018C43.4557 104.612 43.6084 104.035 43.6084 103.288C43.6084 102.541 43.4557 101.966 43.1504 101.565C42.8451 101.16 42.4076 100.957 41.8379 100.957C41.2682 100.957 40.8285 101.16 40.5186 101.565C40.2132 101.966 40.0605 102.541 40.0605 103.288C40.0605 104.035 40.2132 104.612 40.5186 105.018C40.8285 105.423 41.2682 105.626 41.8379 105.626ZM45.6523 103.288C45.6523 104.382 45.3379 105.318 44.709 106.098C44.0801 106.872 43.1253 107.26 41.8447 107.26C40.5641 107.26 39.6094 106.872 38.9805 106.098C38.3516 105.318 38.0371 104.382 38.0371 103.288C38.0371 102.213 38.3516 101.281 38.9805 100.492C39.6094 99.7038 40.5641 99.3096 41.8447 99.3096C43.1253 99.3096 44.0801 99.7038 44.709 100.492C45.3379 101.281 45.6523 102.213 45.6523 103.288ZM51.1006 99.3711C51.137 99.3711 51.1667 99.3734 51.1895 99.3779C51.2168 99.3779 51.2738 99.3802 51.3604 99.3848V101.381C51.2373 101.367 51.1279 101.358 51.0322 101.354C50.9365 101.349 50.859 101.347 50.7998 101.347C50.016 101.347 49.4896 101.602 49.2207 102.112C49.0703 102.399 48.9951 102.841 48.9951 103.438V107H47.0332V99.5488H48.8926V100.848C49.1934 100.351 49.4554 100.011 49.6787 99.8291C50.0433 99.5238 50.5173 99.3711 51.1006 99.3711ZM55.4482 100.957C54.9971 100.957 54.6462 101.098 54.3955 101.381C54.1494 101.663 53.9945 102.046 53.9307 102.529H56.959C56.9271 102.014 56.7699 101.625 56.4873 101.36C56.2093 101.091 55.863 100.957 55.4482 100.957ZM55.4482 99.3506C56.068 99.3506 56.6263 99.4668 57.123 99.6992C57.6198 99.9316 58.0299 100.299 58.3535 100.8C58.6452 101.242 58.8343 101.755 58.9209 102.338C58.971 102.68 58.9915 103.172 58.9824 103.814H53.8828C53.9102 104.562 54.1449 105.086 54.5869 105.387C54.8558 105.574 55.1794 105.667 55.5576 105.667C55.9587 105.667 56.2845 105.553 56.5352 105.325C56.6719 105.202 56.7926 105.031 56.8975 104.812H58.8867C58.8366 105.255 58.6064 105.703 58.1963 106.159C57.5583 106.884 56.665 107.246 55.5166 107.246C54.5687 107.246 53.7324 106.941 53.0078 106.33C52.2832 105.719 51.9209 104.726 51.9209 103.35C51.9209 102.06 52.2467 101.071 52.8984 100.383C53.5547 99.6947 54.4046 99.3506 55.4482 99.3506Z" fill="#0088DD"/>
<path fill-rule="evenodd" clip-rule="evenodd" d="M145 102.5C145 102.086 145.336 101.75 145.75 101.75L158.34 101.75L156.24 99.7996C155.936 99.5177 155.919 99.0432 156.2 98.7397C156.482 98.4361 156.957 98.4186 157.26 98.7004L160.76 101.95C160.913 102.092 161 102.291 161 102.5C161 102.709 160.913 102.908 160.76 103.05L157.26 106.3C156.957 106.581 156.482 106.564 156.2 106.26C155.919 105.957 155.936 105.482 156.24 105.2L158.34 103.25L145.75 103.25C145.336 103.25 145 102.914 145 102.5Z" fill="#0088DD"/>
</svg>
