<svg width="65" height="65" viewBox="0 0 65 65" fill="none" xmlns="http://www.w3.org/2000/svg">
<path d="M48.7943 48.6171C57.7445 39.6669 57.7445 25.1558 48.7943 16.2057C39.8442 7.25552 25.3331 7.25552 16.3829 16.2057C7.43278 25.1558 7.43278 39.6669 16.3829 48.6171C25.3331 57.5672 39.8442 57.5672 48.7943 48.6171Z" fill="#407BFF"/>
<path opacity="0.4" d="M32.9999 49.5061C42.2047 49.5061 49.6666 42.0441 49.6666 32.8394C49.6666 23.6346 42.2047 16.1727 32.9999 16.1727C23.7952 16.1727 16.3333 23.6346 16.3333 32.8394C16.3333 42.0441 23.7952 49.5061 32.9999 49.5061Z" fill="#C7C7C7"/>
<path d="M33 24.3894C29.55 24.3894 26.75 27.1894 26.75 30.6394C26.75 34.0227 29.4 36.7727 32.9167 36.8727C32.9667 36.8727 33.0333 36.8727 33.0667 36.8727C33.1 36.8727 33.15 36.8727 33.1833 36.8727C33.2 36.8727 33.2167 36.8727 33.2167 36.8727C36.5833 36.7561 39.2333 34.0227 39.25 30.6394C39.25 27.1894 36.45 24.3894 33 24.3894Z" fill="white"/>
<path d="M44.3 45.0894C41.3333 47.8228 37.3666 49.5061 33 49.5061C28.6333 49.5061 24.6666 47.8228 21.7 45.0894C22.1 43.5728 23.1833 42.1894 24.7666 41.1228C29.3166 38.0894 36.7166 38.0894 41.2333 41.1228C42.8333 42.1894 43.9 43.5728 44.3 45.0894Z" fill="white"/>
<path opacity="0.3" d="M40.4936 33.928C40.4465 34.4664 40.4027 34.9981 40.3657 35.5264C40.3994 34.9981 40.4465 34.4631 40.4936 33.928Z" fill="black"/>
<path d="M31.8357 21.8413C31.8357 21.912 31.8592 21.9826 31.8727 22.0533C31.8727 21.9826 31.8492 21.912 31.8357 21.8413Z" fill="#7F3E3B"/>
<path opacity="0.2" d="M31.9259 22.5446C31.9259 22.3831 31.8956 22.2081 31.8721 22.0533C31.8956 22.2182 31.9158 22.3831 31.9259 22.5446Z" fill="black"/>
<path d="M21.7151 47.9003C22.5325 42.8648 19.113 38.1201 14.0776 37.3028C9.04206 36.4854 4.29737 39.9049 3.47999 44.9404C2.66261 49.9758 6.08208 54.7205 11.1176 55.5379C16.1531 56.3553 20.8978 52.9358 21.7151 47.9003Z" fill="#263238"/>
<path d="M17.6688 45.55H13.4558V41.337C13.4558 41.1077 13.3647 40.8877 13.2025 40.7255C13.0403 40.5633 12.8204 40.4722 12.591 40.4722C12.3617 40.4722 12.1417 40.5633 11.9795 40.7255C11.8173 40.8877 11.7262 41.1077 11.7262 41.337V45.55H7.51324C7.28388 45.55 7.06392 45.6411 6.90174 45.8033C6.73955 45.9655 6.64844 46.1854 6.64844 46.4148C6.64844 46.6442 6.73955 46.8641 6.90174 47.0263C7.06392 47.1885 7.28388 47.2796 7.51324 47.2796H11.7262V51.4926C11.7262 51.6061 11.7486 51.7186 11.792 51.8235C11.8355 51.9284 11.8992 52.0238 11.9795 52.1041C12.0598 52.1844 12.1551 52.2481 12.2601 52.2916C12.365 52.335 12.4774 52.3574 12.591 52.3574C12.7046 52.3574 12.817 52.335 12.922 52.2916C13.0269 52.2481 13.1222 52.1844 13.2025 52.1041C13.2828 52.0238 13.3465 51.9284 13.39 51.8235C13.4334 51.7186 13.4558 51.6061 13.4558 51.4926V47.2796H17.6688C17.8981 47.2796 18.1181 47.1885 18.2803 47.0263C18.4425 46.8641 18.5336 46.6442 18.5336 46.4148C18.5336 46.1854 18.4425 45.9655 18.2803 45.8033C18.1181 45.6411 17.8981 45.55 17.6688 45.55Z" fill="white"/>
</svg>
