<svg width="26" height="26" viewBox="0 0 26 26" fill="none" xmlns="http://www.w3.org/2000/svg">
<path d="M21.5017 6.0605C21.5017 5.1964 20.8014 4.49868 19.9405 4.49868C19.0796 4.49868 18.3787 5.1964 18.3787 6.0605C18.3787 6.92142 19.0796 7.61914 19.9405 7.61914C20.8014 7.61914 21.5017 6.92142 21.5017 6.0605Z" fill="url(#paint0_linear_5_568)"/>
<path d="M23.5804 18.2525C23.5226 19.5201 23.3106 20.2088 23.1346 20.6662C22.8981 21.2727 22.6161 21.7064 22.1587 22.1612C21.7064 22.6161 21.2727 22.8975 20.6662 23.1314C20.2088 23.31 19.5175 23.5226 18.2499 23.583C16.8795 23.6434 16.4735 23.6563 12.9984 23.6563C9.52651 23.6563 9.11723 23.6434 7.74685 23.583C6.47929 23.5226 5.79121 23.31 5.33374 23.1314C4.72406 22.8975 4.29362 22.6161 3.83875 22.1612C3.38066 21.7064 3.09863 21.2727 2.86542 20.6662C2.68935 20.2088 2.47416 19.5201 2.41951 18.2525C2.35273 16.8821 2.34049 16.4696 2.34049 13.0016C2.34049 9.52651 2.35273 9.11723 2.41951 7.74685C2.47416 6.47929 2.68935 5.79121 2.86542 5.32989C3.09863 4.72406 3.38066 4.29294 3.83875 3.83808C4.29362 3.38389 4.72406 3.10181 5.33374 2.86542C5.79121 2.68617 6.47929 2.47671 7.74685 2.41633C9.11723 2.35591 9.52651 2.34049 12.9984 2.34049C16.4735 2.34049 16.8795 2.35591 18.2499 2.41633C19.5175 2.47671 20.2088 2.68617 20.6662 2.86542C21.2727 3.10181 21.7064 3.38389 22.1587 3.83808C22.6161 4.29294 22.8981 4.72406 23.1346 5.32989C23.3106 5.79121 23.5226 6.47929 23.5804 7.74685C23.644 9.11723 23.6595 9.52651 23.6595 13.0016C23.6595 16.4696 23.644 16.8821 23.5804 18.2525ZM25.921 7.64021C25.8574 6.25504 25.6389 5.30869 25.3145 4.48443C24.9843 3.62929 24.5416 2.90459 23.8169 2.17989C23.0954 1.45841 22.3707 1.01574 21.5156 0.681673C20.6881 0.360424 19.7449 0.139399 18.3591 0.0790215C16.9733 0.0121899 16.5307 -3.8147e-06 12.9984 -3.8147e-06C9.46932 -3.8147e-06 9.02346 0.0121899 7.63766 0.0790215C6.25504 0.139399 5.31254 0.360424 4.48121 0.681673C3.62929 1.01574 2.90459 1.45841 2.18312 2.17989C1.45842 2.90459 1.01574 3.62929 0.6823 4.48443C0.36105 5.30869 0.142628 6.25504 0.075795 7.64021C0.0154192 9.02601 0 9.46932 0 13.0016C0 16.5307 0.0154192 16.9733 0.075795 18.3591C0.142628 19.7417 0.36105 20.6874 0.6823 21.5156C1.01574 22.3675 1.45842 23.0954 2.18312 23.8169C2.90459 24.5384 3.62929 24.9843 4.48121 25.3177C5.31254 25.6389 6.25504 25.8574 7.63766 25.921C9.02346 25.9846 9.46932 26 12.9984 26C16.5307 26 16.9733 25.9846 18.3591 25.921C19.7449 25.8574 20.6881 25.6389 21.5156 25.3177C22.3707 24.9843 23.0954 24.5384 23.8169 23.8169C24.5416 23.0954 24.9843 22.3675 25.3145 21.5156C25.6389 20.6874 25.8574 19.7417 25.921 18.3591C25.9846 16.9733 26 16.5307 26 13.0016C26 9.46932 25.9846 9.02601 25.921 7.64021Z" fill="url(#paint1_linear_5_568)"/>
<path d="M12.9977 17.3321C10.6058 17.3321 8.66495 15.3944 8.66495 13.0024C8.66495 10.6067 10.6058 8.66647 12.9977 8.66647C15.3903 8.66647 17.3338 10.6067 17.3338 13.0024C17.3338 15.3944 15.3903 17.3321 12.9977 17.3321ZM12.9977 6.32275C9.31063 6.32275 6.32446 9.31533 6.32446 13.0024C6.32446 16.6864 9.31063 19.6758 12.9977 19.6758C16.6849 19.6758 19.6743 16.6864 19.6743 13.0024C19.6743 9.31533 16.6849 6.32275 12.9977 6.32275Z" fill="url(#paint2_linear_5_568)"/>
<defs>
<linearGradient id="paint0_linear_5_568" x1="0.236081" y1="25.7306" x2="23.836" y2="2.13078" gradientUnits="userSpaceOnUse">
<stop stop-color="#FFD521"/>
<stop offset="0.05" stop-color="#FFD521"/>
<stop offset="0.501119" stop-color="#F50000"/>
<stop offset="0.95" stop-color="#B900B4"/>
<stop offset="0.950079" stop-color="#B900B4"/>
<stop offset="1" stop-color="#B900B4"/>
</linearGradient>
<linearGradient id="paint1_linear_5_568" x1="0.234516" y1="25.7636" x2="23.8538" y2="2.14423" gradientUnits="userSpaceOnUse">
<stop stop-color="#FFD521"/>
<stop offset="0.05" stop-color="#FFD521"/>
<stop offset="0.501119" stop-color="#F50000"/>
<stop offset="0.95" stop-color="#B900B4"/>
<stop offset="0.950079" stop-color="#B900B4"/>
<stop offset="1" stop-color="#B900B4"/>
</linearGradient>
<linearGradient id="paint2_linear_5_568" x1="0.240002" y1="25.7651" x2="23.8536" y2="2.15142" gradientUnits="userSpaceOnUse">
<stop stop-color="#FFD521"/>
<stop offset="0.05" stop-color="#FFD521"/>
<stop offset="0.501119" stop-color="#F50000"/>
<stop offset="0.95" stop-color="#B900B4"/>
<stop offset="0.950079" stop-color="#B900B4"/>
<stop offset="1" stop-color="#B900B4"/>
</linearGradient>
</defs>
</svg>
