<svg width="56" height="39" viewBox="0 0 56 39" fill="none" xmlns="http://www.w3.org/2000/svg">
<g clip-path="url(#clip0_1_292)">
<path fill-rule="evenodd" clip-rule="evenodd" d="M-0.0293207 -0.0292473C18.6374 -0.0292473 37.304 -0.0292473 55.9707 -0.0292473C55.9707 12.5396 55.9707 25.1083 55.9707 37.6771C37.304 37.6771 18.6374 37.6771 -0.0293207 37.6771C-0.0293207 25.1083 -0.0293207 12.5396 -0.0293207 -0.0292473Z" fill="#2F5497"/>
<path fill-rule="evenodd" clip-rule="evenodd" d="M52.7285 2.55912C52.8756 2.76184 52.9346 2.99714 52.9053 3.26501C52.8333 4.41484 52.2438 5.14034 51.1369 5.44151C51.0387 5.44151 50.9404 5.44151 50.8422 5.44151C50.8615 4.72513 50.8419 4.01924 50.7832 3.32383C50.7243 3.32383 50.6653 3.32383 50.6064 3.32383C50.496 4.15438 50.0245 4.47792 49.1917 4.29443C48.7639 4.04902 48.5477 3.67647 48.5432 3.17677C48.5913 2.72821 48.7485 2.32625 49.0148 1.97087C49.0148 1.95127 49.0148 1.93166 49.0148 1.91205C49.2356 1.73059 49.4714 1.57372 49.7222 1.44145C50.0788 1.4165 50.4226 1.33806 50.7538 1.20616C51.1229 1.29809 51.4865 1.39614 51.8443 1.50028C52.0339 1.75918 52.2402 2.01409 52.4632 2.26499C52.4835 2.42339 52.562 2.54104 52.699 2.61794C52.7225 2.60451 52.7323 2.58489 52.7285 2.55912Z" fill="#CBCCCD"/>
<path fill-rule="evenodd" clip-rule="evenodd" d="M52.7284 2.5595C52.7322 2.58528 52.7224 2.60489 52.6989 2.61832C52.5619 2.54142 52.4833 2.42377 52.4631 2.26538C52.2401 2.01447 52.0338 1.75956 51.8442 1.50066C51.4864 1.39652 51.1228 1.29848 50.7537 1.20654C50.4225 1.33844 50.0786 1.41688 49.7221 1.44184C50.5274 1.02579 51.3134 1.07481 52.08 1.5889C52.3819 1.8598 52.5981 2.18333 52.7284 2.5595Z" fill="#C0C8DA"/>
<path fill-rule="evenodd" clip-rule="evenodd" d="M52.3746 5.02959C52.3942 4.99037 52.4139 4.95115 52.4335 4.91194C52.4925 4.91194 52.5514 4.91194 52.6104 4.91194C52.4285 5.13288 52.4677 5.30935 52.7283 5.44136C52.7777 5.17862 52.7974 4.92371 52.7872 4.67664C52.856 13.363 52.8658 22.0493 52.8167 30.7358C52.7872 22.3632 52.7774 13.9905 52.7872 5.61783C52.6143 5.50581 52.4374 5.38816 52.2567 5.26488C52.2968 5.18489 52.3361 5.10646 52.3746 5.02959Z" fill="#FDFEF4"/>
<path fill-rule="evenodd" clip-rule="evenodd" d="M53.141 4.67664C53.1804 4.67664 53.2196 4.67664 53.2589 4.67664C53.2688 13.4415 53.2589 22.2063 53.2295 30.9711C53.1413 22.2096 53.1119 13.4448 53.141 4.67664Z" fill="#33558D"/>
<path fill-rule="evenodd" clip-rule="evenodd" d="M53.141 4.44151C53.256 4.42543 53.3444 4.46465 53.4063 4.55916C53.4554 13.3829 53.4456 22.2065 53.3768 31.0301C53.3375 22.2359 53.2982 13.4515 53.2589 4.67681C53.2196 4.67681 53.1803 4.67681 53.141 4.67681C53.141 4.59838 53.141 4.51994 53.141 4.44151Z" fill="#30529F"/>
<path fill-rule="evenodd" clip-rule="evenodd" d="M53.4948 4.67664C53.5733 8.90199 53.6126 13.1472 53.6126 17.4121C53.6028 21.6573 53.593 25.9024 53.5832 30.1476C53.4949 21.6655 53.4654 13.1752 53.4948 4.67664Z" fill="#295893"/>
<path fill-rule="evenodd" clip-rule="evenodd" d="M52.8462 31.0303C52.6394 31.629 52.2464 32.0604 51.6673 32.3245C51.6309 32.3179 51.6014 32.2984 51.5788 32.2656C51.4475 32.3605 51.3001 32.3998 51.1367 32.3833C36.9206 32.3245 22.6947 32.3049 8.45884 32.3245C8.45884 32.2264 8.45884 32.1284 8.45884 32.0303C22.6594 32.0108 36.8559 32.0304 51.0483 32.0892C51.1308 32.0464 51.2192 32.017 51.3136 32.0009C37.0287 31.9715 22.7438 31.9617 8.45884 31.9715C8.46868 24.344 8.45884 16.7164 8.42936 9.08888C8.40331 9.21705 8.34436 9.25623 8.25252 9.20652C8.22405 9.26229 8.21426 9.32111 8.22305 9.383C8.28199 9.383 8.34094 9.383 8.39989 9.383C8.39989 17.0497 8.39989 24.7165 8.39989 32.3833C8.39989 32.4421 8.39989 32.5009 8.39989 32.5598C8.24268 32.5598 8.08552 32.5598 7.92831 32.5598C7.94794 24.2165 7.92831 15.883 7.86936 7.55944C7.86936 7.53986 7.86936 7.52021 7.86936 7.50062C7.52723 6.76137 6.95739 6.49667 6.15989 6.70649C5.83508 6.88261 5.63859 7.14732 5.57041 7.50062C5.52788 7.52521 5.4984 7.56438 5.48199 7.61827C5.45253 8.40234 5.4427 9.1867 5.45252 9.97124C4.1584 9.81488 3.47068 9.07958 3.38936 7.76533C3.39919 7.63786 3.40901 7.51044 3.41884 7.38297C3.5444 7.11314 3.65247 6.83867 3.74305 6.55943C3.84129 6.48102 3.93954 6.40255 4.03778 6.32413C4.14941 6.2919 4.24765 6.23307 4.33252 6.14766C4.36706 6.15996 4.39654 6.1796 4.42094 6.20649C4.521 6.10213 4.62907 6.00407 4.74515 5.91236C4.78445 5.93195 4.82375 5.9516 4.86305 5.97119C5.10044 5.90619 5.33623 5.83758 5.57041 5.7653C15.0315 5.71631 24.4827 5.72612 33.9241 5.79471C24.4631 5.84373 14.9922 5.87314 5.51147 5.88295C5.4162 5.91913 5.3376 5.97795 5.27568 6.05942C14.8173 6.08842 24.3668 6.09819 33.9241 6.08884C33.9241 6.16725 33.9241 6.24572 33.9241 6.32413C33.983 6.32413 34.042 6.32413 34.1009 6.32413C34.0575 6.43031 33.9985 6.52831 33.9241 6.61826C33.3553 6.6672 32.7855 6.69661 32.2146 6.70649C32.0652 6.76108 32.0062 6.86896 32.0378 7.03003C32.0378 8.14769 32.0378 9.26535 32.0378 10.383C30.1121 10.3732 28.1865 10.383 26.2609 10.4124C26.2943 10.471 26.3336 10.52 26.3788 10.5595C26.3788 10.5987 26.3985 10.6183 26.4378 10.6183C26.6094 10.9467 26.8058 11.2604 27.0273 11.5595C27.6421 12.5325 28.2709 13.4933 28.9136 14.4419C29.301 15.0777 29.7039 15.7051 30.122 16.3243C30.1792 16.4286 30.2283 16.5364 30.2694 16.6478C30.2155 16.7305 30.1762 16.8187 30.1515 16.9125C30.0385 16.9954 29.9304 17.0934 29.8273 17.2066C29.4117 17.7288 29.0089 18.2582 28.6188 18.7949C27.8963 19.7028 27.1595 20.6048 26.4083 21.5008C26.3141 21.6417 26.3043 21.7789 26.3788 21.9126C26.3788 21.9322 26.3788 21.9518 26.3788 21.9714C26.5242 22.0381 26.6814 22.0479 26.8504 22.0008C26.9782 21.8733 27.1058 21.7459 27.2336 21.6185C27.8779 20.7043 28.5362 19.8024 29.2083 18.9125C29.1982 18.8542 29.2179 18.815 29.2673 18.7949C29.72 18.3134 30.1424 17.8036 30.5346 17.2655C30.6021 17.1958 30.6709 17.1958 30.7409 17.2655C30.8358 17.4772 30.9537 17.6733 31.0946 17.8537C31.2698 18.1844 31.4663 18.4981 31.6841 18.7949C32.2835 19.8347 32.9123 20.8543 33.5704 21.8537C35.5647 21.9222 37.5689 21.932 39.583 21.8832C39.5104 21.7851 39.4317 21.6969 39.3473 21.6185C37.8751 19.5051 36.4604 17.3482 35.103 15.1478C35.1244 15.1076 35.1441 15.0684 35.162 15.0301C35.5532 14.5414 35.9462 14.0512 36.3409 13.5595C37.0858 12.649 37.8226 11.7274 38.5515 10.7948C38.7303 10.476 38.6418 10.2995 38.2862 10.2654C38.2862 10.2261 38.2666 10.2065 38.2273 10.2065C38.2371 9.06911 38.2273 7.9318 38.1978 6.79473C38.1536 6.7579 38.1044 6.72849 38.0504 6.70649C37.4579 6.71502 36.888 6.66602 36.3409 6.55943C36.3359 6.50084 36.3556 6.45184 36.3999 6.41237C36.2051 6.24878 36.1068 6.04289 36.1052 5.79471C41.0461 5.75646 45.978 5.71724 50.9009 5.67707C51.1548 5.63292 51.4102 5.56429 51.6673 5.47118C51.9162 5.33756 52.152 5.1905 52.3746 5.03C52.3361 5.10687 52.2968 5.1853 52.2567 5.2653C52.4375 5.38857 52.6143 5.50622 52.7873 5.61824C52.7774 13.9909 52.7873 22.3636 52.8167 30.7362C52.8658 22.0497 52.856 13.3634 52.7873 4.67705C52.7974 4.92413 52.7777 5.17903 52.7283 5.44177C52.4678 5.30977 52.4285 5.13329 52.6104 4.91235C52.5515 4.91235 52.4925 4.91235 52.4336 4.91235C52.6504 4.72928 52.7978 4.49398 52.8757 4.20646C52.9244 13.149 52.9146 22.0903 52.8462 31.0303Z" fill="#FEFEFE"/>
<path fill-rule="evenodd" clip-rule="evenodd" d="M48.3663 5.61785C34.0323 5.59825 19.7081 5.61786 5.39371 5.67667C5.15566 5.7036 4.91987 5.74282 4.68634 5.79432C4.68634 5.65706 4.68634 5.5198 4.68634 5.38255C12.0741 5.3442 19.4622 5.3246 26.8506 5.32372C33.9463 5.32378 41.0298 5.363 48.1011 5.44137C48.1524 5.40561 48.1818 5.3566 48.1895 5.29431C48.0923 5.12399 48.112 4.97693 48.2485 4.85313C48.3204 4.87589 48.3597 4.92491 48.3663 5.00019C48.3208 5.20339 48.3208 5.40928 48.3663 5.61785Z" fill="#2E5492"/>
<path fill-rule="evenodd" clip-rule="evenodd" d="M48.6611 4.08863C48.6026 4.52875 48.583 4.97973 48.6021 5.44159C49.2702 5.44159 49.9383 5.44159 50.6063 5.44159C50.6255 4.97973 50.6059 4.52875 50.5474 4.08863C50.5641 4.04222 50.5935 4.003 50.6358 3.97099C50.6653 4.48042 50.6751 4.99023 50.6653 5.50042C49.9579 5.50042 49.2505 5.50042 48.5432 5.50042C48.5432 5.4612 48.5432 5.42199 48.5432 5.38277C48.5334 4.91177 48.5432 4.44117 48.5726 3.97099C48.6149 4.003 48.6444 4.04222 48.6611 4.08863Z" fill="#B8CADE"/>
<path fill-rule="evenodd" clip-rule="evenodd" d="M48.6612 4.08844C49.0725 4.50672 49.5637 4.61456 50.1349 4.41197C50.282 4.31394 50.4195 4.2061 50.5475 4.08844C50.606 4.52855 50.6256 4.97953 50.6064 5.4414C49.9384 5.4414 49.2703 5.4414 48.6022 5.4414C48.5831 4.97953 48.6027 4.52855 48.6612 4.08844Z" fill="#FAFCF8"/>
<path fill-rule="evenodd" clip-rule="evenodd" d="M53.1409 4.44171C53.1409 4.52014 53.1409 4.59857 53.1409 4.677C53.082 4.677 53.023 4.677 52.9641 4.677C52.9739 13.4026 52.9641 22.1282 52.9346 30.8538C52.9209 30.9266 52.8915 30.9854 52.8462 31.0303C52.9146 22.0902 52.9244 13.1489 52.8757 4.20641C52.7978 4.49393 52.6504 4.72923 52.4336 4.9123C52.4139 4.95152 52.3942 4.99073 52.3746 5.02995C52.152 5.19045 51.9162 5.33751 51.6672 5.47113C51.4102 5.56425 51.1547 5.63287 50.9009 5.67702C35.7318 5.67702 20.5627 5.67702 5.39355 5.67702C19.7079 5.6182 34.0321 5.5986 48.3662 5.61819C48.4652 5.63083 48.5241 5.59161 48.543 5.50054C49.2504 5.50054 49.9578 5.50054 50.6651 5.50054C50.6749 4.99036 50.6651 4.48055 50.6357 3.97111C50.5934 4.00312 50.5639 4.04234 50.5472 4.08876C50.4193 4.20642 50.2817 4.31426 50.1346 4.4123C49.5635 4.61488 49.0723 4.50704 48.6609 4.08876C48.6442 4.04234 48.6148 4.00312 48.5725 3.97111C48.543 4.4413 48.5332 4.9119 48.543 5.3829C48.4945 5.15864 48.465 4.92334 48.4546 4.677C48.3891 4.51213 48.2809 4.4533 48.1304 4.50053C48.0348 4.26866 48.1134 4.15101 48.3662 4.14759C48.3981 3.92437 48.2999 3.80672 48.0714 3.79464C48.1832 3.73784 48.3011 3.71823 48.4251 3.73582C48.4421 3.39882 48.4224 3.06548 48.3662 2.7358C48.5839 2.54589 48.7312 2.3106 48.8083 2.02991C48.8679 1.9807 48.9367 1.96109 49.0146 1.97109C48.7483 2.32646 48.5911 2.72843 48.543 3.17699C48.5475 3.67669 48.7637 4.04924 49.1914 4.29465C50.0243 4.47813 50.4958 4.1546 50.6062 3.32405C50.6651 3.32405 50.7241 3.32405 50.783 3.32405C50.783 4.04954 50.783 4.77505 50.783 5.50054C50.9148 5.51788 51.0327 5.49827 51.1367 5.44172C52.2436 5.14055 52.8331 4.41505 52.9051 3.26522C52.9344 2.99735 52.8754 2.76206 52.7283 2.55933C52.598 2.18316 52.3818 1.85963 52.0799 1.58873C51.3133 1.07465 50.5273 1.02562 49.722 1.44167C49.4712 1.57393 49.2354 1.7308 49.0146 1.91226C49.1699 1.66784 49.3663 1.44234 49.6041 1.23578C50.2012 1.05309 50.8103 0.994268 51.4314 1.05931C51.6631 1.23248 51.9185 1.35013 52.1978 1.41226C52.4734 1.66799 52.6797 1.97192 52.8167 2.32403C52.8739 2.36512 52.9427 2.36512 53.023 2.32403C53.1213 2.34364 53.1802 2.40246 53.1999 2.50051C53.2649 2.90176 53.2649 3.31353 53.1999 3.73582C53.111 3.43116 53.0521 3.11743 53.023 2.79463C52.9268 3.2022 52.966 3.59436 53.1409 3.97111C53.1986 3.99915 53.2477 4.03837 53.2883 4.08876C53.313 4.01981 53.3522 3.96099 53.4062 3.91229C53.4675 3.5427 53.5166 3.17014 53.5536 2.79463C53.6334 3.1856 53.6825 3.57777 53.7009 3.97111C53.6333 3.91475 53.5744 3.93437 53.5241 4.02994C53.5044 4.10837 53.4848 4.1868 53.4651 4.26523C53.4062 4.34366 53.3472 4.34366 53.2883 4.26523C53.2048 4.29923 53.1557 4.35805 53.1409 4.44171Z" fill="#4A5D86"/>
<path fill-rule="evenodd" clip-rule="evenodd" d="M50.7832 3.32375C50.8419 4.01915 50.8615 4.72504 50.8422 5.44142C50.9405 5.44142 51.0387 5.44142 51.1369 5.44142C51.0329 5.49797 50.915 5.51758 50.7832 5.50024C50.7832 4.77475 50.7832 4.04924 50.7832 3.32375Z" fill="#7E8EAB"/>
<path fill-rule="evenodd" clip-rule="evenodd" d="M5.39366 5.67686C20.5628 5.67686 35.7319 5.67686 50.901 5.67686C45.9781 5.71704 41.0462 5.75625 36.1052 5.79451C36.1069 6.04269 36.2051 6.24857 36.4 6.41216C36.3556 6.45164 36.336 6.50064 36.341 6.55923C36.1975 6.36222 36.06 6.15634 35.9284 5.94157C35.3979 5.90233 34.8673 5.90233 34.3368 5.94157C34.304 5.9641 34.2844 5.99351 34.2779 6.02981C34.2779 6.0494 34.2779 6.06904 34.2779 6.08863C34.2055 6.13604 34.1465 6.19487 34.101 6.2651C34.047 6.10175 34.0863 5.95469 34.2189 5.82392C34.1226 5.79489 34.0243 5.78509 33.9242 5.79451C24.4828 5.72591 15.0316 5.71611 5.5705 5.7651C5.33631 5.83737 5.10052 5.90598 4.86313 5.97098C4.82383 5.95139 4.78454 5.93175 4.74523 5.91216C4.62916 6.00387 4.52109 6.10193 4.42102 6.20628C4.39662 6.1794 4.36715 6.15975 4.3326 6.14746C4.24774 6.23287 4.14949 6.29169 4.03787 6.32393C4.22152 6.10522 4.43767 5.92875 4.68629 5.79451C4.91981 5.74301 5.1556 5.70379 5.39366 5.67686Z" fill="#F1F9FE"/>
<path fill-rule="evenodd" clip-rule="evenodd" d="M33.9242 5.79436C34.0244 5.78494 34.1226 5.79474 34.2189 5.82377C34.0864 5.95454 34.0471 6.1016 34.1011 6.26496C34.1011 6.28454 34.1011 6.30419 34.1011 6.32378C34.0421 6.32378 33.9832 6.32378 33.9242 6.32378C33.9242 6.24537 33.9242 6.1669 33.9242 6.08848C24.3669 6.09784 14.8174 6.08807 5.27579 6.05907C5.33772 5.9776 5.41632 5.91877 5.51158 5.8826C14.9923 5.87279 24.4632 5.84337 33.9242 5.79436Z" fill="#FDFDF7"/>
<path fill-rule="evenodd" clip-rule="evenodd" d="M34.2779 6.08862C34.2779 6.06904 34.2779 6.04939 34.2779 6.0298C34.7883 5.98568 35.2992 5.97592 35.8105 6.00039C35.8739 6.10192 35.8838 6.20974 35.84 6.32392C35.8115 6.26816 35.8017 6.20933 35.8105 6.14745C35.3966 6.14015 34.984 6.1598 34.5726 6.20627C34.4465 6.20298 34.3483 6.16374 34.2779 6.08862Z" fill="#32519F"/>
<path fill-rule="evenodd" clip-rule="evenodd" d="M36.3412 6.55916C36.8883 6.66575 37.4581 6.71475 38.0507 6.70622C38.1047 6.72822 38.1538 6.75763 38.198 6.79446C38.2275 7.93153 38.2373 9.06884 38.2275 10.2063C38.1785 9.2752 38.149 8.33401 38.1391 7.3827C38.0801 7.30429 38.0212 7.22582 37.9622 7.1474C37.9156 7.27117 37.8272 7.34958 37.697 7.3827C37.2858 7.43158 36.8731 7.461 36.4591 7.47094C36.5377 7.51017 36.5377 7.54935 36.4591 7.58859C36.3063 7.63223 36.1688 7.66165 36.0464 7.67682C36.124 7.78365 36.2124 7.88171 36.3117 7.97094C36.3712 8.06065 36.4007 8.15871 36.4001 8.26507C36.4694 8.25218 36.5283 8.27177 36.577 8.32389C36.5293 8.4163 36.5096 8.51436 36.518 8.61801C36.0245 7.62706 35.2778 7.38194 34.278 7.88271C33.8056 8.27754 33.6386 8.77754 33.777 9.38273C33.8556 9.61796 33.9636 9.83367 34.1012 10.0298C34.105 10.0556 34.0952 10.0752 34.0717 10.0886C33.9656 9.98173 33.8379 9.91309 33.6886 9.88273C33.7155 9.85838 33.7352 9.82897 33.7475 9.7945C33.6811 9.53673 33.6025 9.28178 33.5117 9.02978C33.4772 9.04208 33.4477 9.06172 33.4233 9.08861C33.4004 9.38337 33.4102 9.6775 33.4528 9.97097C33.3742 9.97097 33.2956 9.97097 33.217 9.97097C33.1933 9.77991 33.154 9.59361 33.0991 9.41214C33.1918 9.09808 33.2409 8.77454 33.2464 8.44154C33.3918 8.35007 33.4212 8.23242 33.3349 8.08859C33.0822 8.06077 32.8464 8.00194 32.6275 7.91212C32.9419 7.91212 33.2563 7.91212 33.5707 7.91212C33.5707 7.71606 33.5707 7.51994 33.5707 7.32388C33.2449 7.30499 32.9305 7.32458 32.6275 7.3827C32.4378 7.37382 32.4182 7.32482 32.5686 7.23564C32.9026 7.21605 33.2366 7.1964 33.5707 7.17682C33.6696 7.04734 33.7875 6.93952 33.9243 6.85328C33.6918 6.79499 33.456 6.7754 33.217 6.79446C33.2366 6.97093 33.158 7.04934 32.9812 7.02976C32.9812 6.93169 32.9812 6.83369 32.9812 6.73563C32.7528 6.71122 32.5366 6.74063 32.3328 6.82387C32.4767 6.82599 32.5946 6.87499 32.6864 6.97093C32.4738 7.02911 32.2577 7.04876 32.038 7.02976C32.0065 6.86869 32.0654 6.76081 32.2149 6.70622C32.7857 6.69634 33.3556 6.66693 33.9243 6.61799C33.9988 6.52804 34.0577 6.43004 34.1012 6.32386C34.1012 6.30428 34.1012 6.28463 34.1012 6.26504C34.1467 6.1948 34.2056 6.13598 34.278 6.08857C34.3484 6.16369 34.4466 6.20292 34.5728 6.20621C34.9842 6.15974 35.3968 6.1401 35.8107 6.14739C35.8019 6.20927 35.8117 6.2681 35.8401 6.32386C35.8839 6.20969 35.8741 6.10186 35.8107 6.00033C35.2994 5.97586 34.7885 5.98562 34.278 6.02974C34.2846 5.99345 34.3042 5.96404 34.337 5.94151C34.8675 5.90227 35.398 5.90227 35.9286 5.94151C36.0602 6.15627 36.1977 6.36216 36.3412 6.55916Z" fill="#335595"/>
<path fill-rule="evenodd" clip-rule="evenodd" d="M7.86935 7.5004C7.81087 7.49028 7.77162 7.50993 7.75146 7.55922C7.71214 7.55922 7.69251 7.53964 7.69251 7.5004C7.59701 7.28969 7.45949 7.11322 7.27988 6.97098C6.90149 6.7471 6.50855 6.73733 6.10093 6.94157C6.0296 7.00269 5.97066 7.07134 5.92409 7.14745C5.90446 7.18669 5.88479 7.22587 5.86514 7.2651C5.76294 7.35863 5.69416 7.47628 5.65882 7.61805C5.62936 8.22559 5.61954 8.83342 5.62935 9.4416C5.57072 8.80506 5.55107 8.158 5.5704 7.5004C5.63858 7.1471 5.83507 6.88239 6.15988 6.70627C6.95738 6.49645 7.52722 6.76116 7.86935 7.5004Z" fill="#455486"/>
<path fill-rule="evenodd" clip-rule="evenodd" d="M7.28006 6.97106C6.35695 6.8057 6.33732 6.89394 7.22111 7.23577C7.05258 7.26829 6.88559 7.25847 6.72006 7.20635C6.54988 7.31853 6.36325 7.37736 6.16006 7.38283C6.16006 7.324 6.16006 7.26518 6.16006 7.20635C6.38058 7.25935 6.49848 7.18094 6.51375 6.97106C6.39426 6.96153 6.27637 6.97135 6.16006 7.00047C6.10282 7.08759 6.02425 7.13665 5.92427 7.14753C5.97084 7.07141 6.02979 7.00276 6.10111 6.94164C6.50874 6.73741 6.90168 6.74717 7.28006 6.97106Z" fill="#C8C5D9"/>
<path fill-rule="evenodd" clip-rule="evenodd" d="M7.28001 6.9708C7.45962 7.11303 7.59715 7.28951 7.69264 7.50021C7.61519 7.64228 7.57587 7.80892 7.57475 8.00022C7.57487 8.17793 7.59455 8.34458 7.6337 8.50023C7.44324 8.95594 7.1485 9.3383 6.74949 9.6473C6.65959 9.70666 6.56133 9.73607 6.45475 9.73554C6.18506 9.74177 5.92965 9.68295 5.68843 9.55907C5.77142 9.51536 5.85002 9.4663 5.92422 9.412C5.89899 9.05365 5.84003 8.7007 5.74738 8.35317C5.85356 7.9874 5.89286 7.62463 5.86527 7.26492C5.88492 7.22568 5.90459 7.1865 5.92422 7.14727C6.0242 7.13639 6.10277 7.08733 6.16001 7.00021C6.27631 6.97109 6.39421 6.96127 6.5137 6.9708C6.49843 7.18068 6.38053 7.25909 6.16001 7.20609C6.16001 7.26492 6.16001 7.32374 6.16001 7.38257C6.3632 7.3771 6.54983 7.31827 6.72001 7.20609C6.88554 7.25821 7.05253 7.26804 7.22106 7.23551C6.33727 6.89368 6.3569 6.80544 7.28001 6.9708Z" fill="#CBCCCD"/>
<path fill-rule="evenodd" clip-rule="evenodd" d="M32.6273 7.91206C32.6273 7.73558 32.6273 7.55911 32.6273 7.38264C32.9303 7.32452 33.2447 7.30493 33.5705 7.32381C33.5705 7.51988 33.5705 7.716 33.5705 7.91206C33.2561 7.91206 32.9417 7.91206 32.6273 7.91206Z" fill="#F7FBFB"/>
<path fill-rule="evenodd" clip-rule="evenodd" d="M38.2273 10.2064C38.2666 10.2064 38.2862 10.226 38.2862 10.2652C38.2962 10.4033 38.3159 10.5406 38.3452 10.677C38.3047 10.7742 38.2653 10.8722 38.2273 10.9711C38.129 10.9711 38.0308 10.9711 37.9325 10.9711C37.8409 10.5852 37.8802 10.2126 38.0504 9.85344C38.0147 9.72349 37.9754 9.59602 37.9325 9.47108C37.9907 8.81901 38.0104 8.16212 37.9915 7.50046C37.9325 7.50046 37.8736 7.50046 37.8146 7.50046C37.8343 8.44248 37.8146 9.38366 37.7557 10.324C37.3659 10.3567 36.973 10.3567 36.5767 10.324C36.6138 10.1778 36.6728 10.0406 36.7536 9.91226C36.7437 9.85344 36.7339 9.79461 36.7241 9.73579C36.6496 9.85973 36.5415 9.91855 36.3999 9.91226C36.5048 9.70926 36.5638 9.48373 36.5767 9.23578C36.5765 9.0969 36.5569 8.96948 36.5178 8.85342C36.5178 8.77501 36.5178 8.69654 36.5178 8.61813C36.5094 8.51448 36.529 8.41642 36.5767 8.324C36.5281 8.27189 36.4692 8.2523 36.3999 8.26518C36.4004 8.15883 36.3709 8.06077 36.3115 7.97106C36.2121 7.88182 36.1237 7.78376 36.0462 7.67694C36.1686 7.66176 36.3061 7.63235 36.4588 7.5887C36.5374 7.54946 36.5374 7.51029 36.4588 7.47105C36.8729 7.46111 37.2855 7.4317 37.6967 7.38282C37.8269 7.3497 37.9154 7.27128 37.962 7.14752C38.0209 7.22593 38.0799 7.3044 38.1388 7.38282C38.1488 8.33412 38.1783 9.27531 38.2273 10.2064Z" fill="#2F5399"/>
<path fill-rule="evenodd" clip-rule="evenodd" d="M7.69262 7.50049C7.69262 7.53973 7.71225 7.55932 7.75157 7.55932C7.75912 7.81703 7.73949 8.07197 7.69262 8.32403C7.63934 8.36574 7.61971 8.42456 7.63368 8.50051C7.59454 8.34486 7.57485 8.17821 7.57473 8.0005C7.57585 7.8092 7.61517 7.64255 7.69262 7.50049Z" fill="#B7C6C5"/>
<path fill-rule="evenodd" clip-rule="evenodd" d="M3.15368 9.3829C3.23227 13.5985 3.27157 17.8338 3.27157 22.089C3.25192 26.3243 3.23227 30.5597 3.21262 34.795C3.15368 26.3244 3.13403 17.8537 3.15368 9.3829Z" fill="#275792"/>
<path fill-rule="evenodd" clip-rule="evenodd" d="M3.33064 9.3829C3.35029 9.3829 3.36994 9.3829 3.38959 9.3829C3.37976 18.0105 3.38959 26.6381 3.41906 35.2656C3.49475 35.5731 3.60282 35.8672 3.74327 36.148C3.69039 36.2125 3.64127 36.2125 3.5959 36.148C3.45979 35.976 3.3812 35.7799 3.36011 35.5597C3.33064 26.8341 3.32081 18.1085 3.33064 9.3829Z" fill="#384D83"/>
<path fill-rule="evenodd" clip-rule="evenodd" d="M5.15776 10.1473C5.31496 10.1473 5.47214 10.1473 5.62934 10.1473C6.54108 10.1183 7.20913 9.70649 7.63355 8.91201C7.6902 9.01583 7.70989 9.13348 7.6925 9.26495C7.61392 13.0295 7.5746 16.8139 7.5746 20.618C7.5746 24.4222 7.61392 28.2066 7.6925 31.9711C7.6925 32.9907 7.6925 34.0104 7.6925 35.03C7.61545 36.1758 7.00635 36.8523 5.86513 37.0594C5.28029 37.0973 4.73012 36.9698 4.2146 36.6771C4.05572 36.4991 3.89852 36.3226 3.74302 36.1477C3.60258 35.8669 3.4945 35.5728 3.41881 35.2653C3.38934 26.6378 3.37951 18.0102 3.38934 9.3826C3.37961 9.18554 3.38944 8.98948 3.41881 8.79436C3.78481 9.52272 4.36446 9.97373 5.15776 10.1473Z" fill="#FEFEFE"/>
<path fill-rule="evenodd" clip-rule="evenodd" d="M7.69274 9.26511C7.69274 16.8339 7.69274 24.4025 7.69274 31.9713C7.61416 28.2067 7.57484 24.4224 7.57484 20.6182C7.57484 16.814 7.61416 13.0297 7.69274 9.26511Z" fill="#FEFDF5"/>
<path fill-rule="evenodd" clip-rule="evenodd" d="M7.69252 8.79436C7.75146 16.8238 7.77109 24.8632 7.75146 32.9123C7.7708 33.6287 7.75117 34.3346 7.69252 35.03C7.69252 34.0104 7.69252 32.9907 7.69252 31.9711C7.69252 24.4024 7.69252 16.8337 7.69252 9.26495C7.7099 9.13348 7.69022 9.01583 7.63357 8.91201C7.6532 8.87277 7.67289 8.83359 7.69252 8.79436Z" fill="#CBD1F0"/>
<path fill-rule="evenodd" clip-rule="evenodd" d="M5.86514 7.26497C5.89272 7.62468 5.85342 7.98745 5.74724 8.35322C5.83989 8.70076 5.89885 9.0537 5.92408 9.41206C5.84988 9.46635 5.77129 9.51541 5.68829 9.55912C5.92951 9.683 6.18492 9.74183 6.45461 9.73559C6.21752 9.91871 5.94242 9.99718 5.62935 9.97089C5.62935 9.79442 5.62935 9.61794 5.62935 9.44147C5.61953 8.83329 5.62936 8.22546 5.65882 7.61792C5.69416 7.47615 5.76293 7.3585 5.86514 7.26497Z" fill="#C2C4CE"/>
<path fill-rule="evenodd" clip-rule="evenodd" d="M3.74302 6.55901C3.65244 6.83824 3.54437 7.11272 3.41881 7.38255C3.40898 7.51002 3.39916 7.63743 3.38933 7.7649C3.47065 9.07916 4.15837 9.81446 5.45249 9.97081C5.44267 9.18628 5.4525 8.40191 5.48196 7.61784C5.49838 7.56396 5.52785 7.52478 5.57039 7.50019C5.55106 8.15779 5.5707 8.80486 5.62933 9.4414C5.62933 9.61787 5.62933 9.79434 5.62933 9.97081C5.9424 9.99711 6.21751 9.91864 6.4546 9.73552C6.56117 9.73605 6.65944 9.70663 6.74933 9.64728C7.14835 9.33828 7.44309 8.95592 7.63354 8.50021C7.61957 8.42427 7.6392 8.36544 7.69249 8.32373C7.69249 8.48062 7.69249 8.63744 7.69249 8.79433C7.67286 8.83356 7.65317 8.87274 7.63354 8.91198C7.20912 9.70646 6.54107 10.1182 5.62933 10.1473C5.58018 10.0739 5.50158 10.0346 5.39354 10.0296C5.28551 10.0346 5.20691 10.0739 5.15775 10.1473C4.36445 9.9737 3.78481 9.52269 3.41881 8.79433C3.38943 8.98945 3.37961 9.18551 3.38933 9.38257C3.36969 9.38257 3.35003 9.38257 3.33039 9.38257C3.29128 9.14786 3.25198 8.91257 3.21249 8.67668C3.31 8.29044 3.34929 7.89826 3.33039 7.50019C3.26112 7.51308 3.20218 7.49349 3.15354 7.44137C3.37298 7.25825 3.48104 7.02295 3.47775 6.73548C3.53127 6.62142 3.61969 6.56259 3.74302 6.55901Z" fill="#435B83"/>
<path fill-rule="evenodd" clip-rule="evenodd" d="M5.62961 10.1474C5.47241 10.1474 5.31522 10.1474 5.15803 10.1474C5.20718 10.074 5.28578 10.0348 5.39382 10.0298C5.50186 10.0348 5.58045 10.074 5.62961 10.1474Z" fill="#3C4B94"/>
<path fill-rule="evenodd" clip-rule="evenodd" d="M36.5179 8.61785C36.5179 8.69626 36.5179 8.77473 36.5179 8.85314C36.5319 9.68239 36.1389 10.2118 35.3389 10.4414C35.1805 10.451 35.0233 10.4412 34.8673 10.412C34.5923 10.314 34.3369 10.1865 34.101 10.0296C33.9634 9.83351 33.8554 9.6178 33.7768 9.38256C33.6384 8.77738 33.8054 8.27737 34.2779 7.88254C35.2776 7.38177 36.0243 7.62689 36.5179 8.61785Z" fill="#F1F6F7"/>
<path fill-rule="evenodd" clip-rule="evenodd" d="M34.8673 7.91221C35.7832 7.91427 36.2253 8.36528 36.1936 9.26517C35.9069 9.99147 35.3862 10.2366 34.6315 10.0005C34.0669 9.59994 33.9196 9.08029 34.1894 8.44163C34.377 8.2041 34.603 8.02763 34.8673 7.91221Z" fill="#3B5991"/>
<path fill-rule="evenodd" clip-rule="evenodd" d="M34.8085 8.265C35.6591 8.18217 36.003 8.55471 35.8401 9.38266C35.3685 9.93167 34.8969 9.93167 34.4254 9.38266C34.2526 8.90448 34.3804 8.53194 34.8085 8.265Z" fill="#F7FAF9"/>
<path fill-rule="evenodd" clip-rule="evenodd" d="M38.2865 10.2652C38.6421 10.2994 38.7305 10.4758 38.5517 10.7947C37.8229 11.7273 37.086 12.6489 36.3412 13.5594C36.241 13.55 36.1428 13.5597 36.0465 13.5888C36.0958 13.6483 36.1154 13.7169 36.1054 13.7947C35.9633 13.816 35.8749 13.7572 35.8401 13.6182C35.8113 13.6943 35.8014 13.7728 35.8107 13.8535C35.7517 13.8535 35.6928 13.8535 35.6338 13.8535C35.6338 13.9319 35.6338 14.0104 35.6338 14.0888C35.5336 14.0962 35.4452 14.1355 35.3686 14.2065C35.3391 14.1869 35.3096 14.1672 35.2801 14.1476C35.4895 13.8849 35.6663 13.6103 35.8107 13.3241C36.0715 12.9406 36.3466 12.568 36.6359 12.2064C36.7272 12.1876 36.7665 12.1287 36.7538 12.03C36.9452 11.7853 37.1221 11.5304 37.2843 11.2652C37.3353 11.1954 37.3942 11.1267 37.4612 11.0594C36.9114 11.0299 36.3612 11.0202 35.8107 11.0299C36.2127 10.9812 36.6254 10.9518 37.0486 10.9417C36.5886 10.8401 36.1269 10.8303 35.6633 10.9123C35.5822 10.9231 35.5331 10.9624 35.5159 11.0299C34.5924 11.0299 33.6689 11.0299 32.7454 11.0299C32.7454 11.0104 32.7454 10.9907 32.7454 10.9711C33.4538 10.9907 34.1612 10.9711 34.8675 10.9123C34.2172 10.8919 33.5885 10.8331 32.9812 10.7358C33.2851 10.6967 33.5995 10.6771 33.9243 10.677C34.2845 10.6822 34.6382 10.7214 34.9854 10.7947C35.1921 10.7794 35.2314 10.7205 35.1033 10.6182C35.2212 10.5986 35.3391 10.5789 35.457 10.5594C36.1399 10.6841 36.8277 10.7331 37.5201 10.7064C37.5864 10.6918 37.6453 10.6624 37.697 10.6182C36.9123 10.5398 36.1264 10.481 35.3391 10.4417C36.1391 10.2121 36.5321 9.6827 36.518 8.85345C36.5571 8.96951 36.5767 9.09692 36.577 9.23581C36.564 9.48375 36.5051 9.70929 36.4001 9.91229C36.5418 9.91858 36.6498 9.85976 36.7243 9.73582C36.7342 9.79464 36.744 9.85346 36.7538 9.91229C36.673 10.0406 36.6141 10.1778 36.577 10.3241C36.9732 10.3567 37.3662 10.3567 37.7559 10.3241C37.8148 9.38369 37.8345 8.4425 37.8149 7.50049C37.8738 7.50049 37.9328 7.50049 37.9917 7.50049C38.0106 8.16215 37.9909 8.81904 37.9328 9.47111C37.9756 9.59605 38.0149 9.72352 38.0507 9.85346C37.8804 10.2126 37.8411 10.5852 37.9328 10.9711C38.031 10.9711 38.1292 10.9711 38.2275 10.9711C38.2656 10.8722 38.3049 10.7742 38.3454 10.677C38.3161 10.5406 38.2965 10.4034 38.2865 10.2652Z" fill="#335594"/>
<path fill-rule="evenodd" clip-rule="evenodd" d="M32.038 10.383C30.3089 10.4222 28.5797 10.4614 26.8506 10.5006C26.708 10.5129 26.5704 10.4932 26.438 10.4418C26.3909 10.4687 26.3713 10.5079 26.379 10.5595C26.3338 10.5199 26.2945 10.4709 26.2611 10.4124C28.1867 10.383 30.1123 10.3732 32.038 10.383Z" fill="#495E76"/>
<path fill-rule="evenodd" clip-rule="evenodd" d="M26.8506 10.5003C28.5798 10.4905 30.309 10.5003 32.038 10.5297C32.2705 10.6126 32.2705 10.6812 32.038 10.7356C32.038 10.716 32.038 10.6964 32.038 10.6768C30.1722 10.6206 28.3055 10.601 26.438 10.618C26.3987 10.618 26.379 10.5984 26.379 10.5592C26.3713 10.5076 26.3909 10.4684 26.438 10.4415C26.5704 10.4929 26.708 10.5126 26.8506 10.5003Z" fill="#3351A2"/>
<path fill-rule="evenodd" clip-rule="evenodd" d="M32.6275 7.38279C32.6275 7.55927 32.6275 7.73574 32.6275 7.91221C32.8463 8.00204 33.0821 8.06086 33.3348 8.08868C33.4212 8.23251 33.3917 8.35016 33.2464 8.44163C33.2409 8.77463 33.1918 9.09817 33.099 9.41223C33.154 9.5937 33.1933 9.78 33.2169 9.97106C33.2955 9.97106 33.3741 9.97106 33.4527 9.97106C33.4102 9.67759 33.4004 9.38347 33.4233 9.0887C33.4477 9.06181 33.4771 9.04217 33.5117 9.02987C33.6025 9.28188 33.681 9.53682 33.7475 9.79459C33.7351 9.82906 33.7155 9.85847 33.6885 9.88282C33.8379 9.91318 33.9656 9.98183 34.0717 10.0887C34.0952 10.0753 34.105 10.0557 34.1011 10.0299C34.337 10.1868 34.5924 10.3142 34.8675 10.4122C35.0234 10.4415 35.1806 10.4513 35.339 10.4417C36.1263 10.4809 36.9123 10.5398 37.6969 10.6181C37.6453 10.6623 37.5863 10.6917 37.5201 10.7064C36.8276 10.733 36.1399 10.684 35.4569 10.5593C35.339 10.5789 35.2211 10.5985 35.1033 10.6181C35.2314 10.7205 35.1921 10.7793 34.9854 10.7946C34.6382 10.7214 34.2845 10.6821 33.9243 10.677C33.5994 10.677 33.2851 10.6966 32.9811 10.7358C32.7869 10.7328 32.7083 10.8112 32.7454 10.9711C32.7454 10.9907 32.7454 11.0103 32.7454 11.0299C32.6937 11.0222 32.6544 11.0418 32.6275 11.0887C32.6535 11.1616 32.6928 11.2204 32.7454 11.2652C33.3217 12.1928 33.872 13.134 34.3959 14.0888C34.4436 14.301 34.5222 14.4971 34.6317 14.677C34.6937 14.6858 34.7526 14.676 34.8085 14.6476C34.933 14.5455 35.0508 14.4377 35.1622 14.3241C35.2931 14.4447 35.3323 14.5819 35.2801 14.7358C35.1981 14.6685 35.1195 14.6685 35.0443 14.7358C35.1298 14.8152 35.1691 14.9132 35.1622 15.03C35.1443 15.0682 35.1246 15.1074 35.1033 15.1476C36.4606 17.348 37.8753 19.5049 39.3475 21.6183C39.3575 21.696 39.3379 21.7647 39.2885 21.8242C37.3767 21.8508 35.4708 21.8606 33.5706 21.8536C32.9125 20.8541 32.2837 19.8345 31.6843 18.7947C31.6679 18.5333 31.5599 18.3176 31.3601 18.1476C31.3006 18.0579 31.2711 17.9599 31.2717 17.8535C31.2127 17.8535 31.1538 17.8535 31.0948 17.8535C30.9539 17.6732 30.8361 17.477 30.7411 17.2653C30.7667 17.1084 30.7078 17.0398 30.5643 17.0594C30.3965 17.2564 30.2393 17.4623 30.0927 17.677C30.0215 17.5644 29.9429 17.4566 29.8569 17.3535C29.9718 17.0723 30.0503 17.0821 30.0927 17.3829C30.1431 17.2589 30.1824 17.1315 30.2106 17.0006C30.2065 16.9556 30.1869 16.9262 30.1517 16.9123C30.1764 16.8186 30.2157 16.7303 30.2696 16.6476C30.2285 16.5363 30.1794 16.4284 30.1222 16.3241C29.7041 15.705 29.3012 15.0775 28.9138 14.4417C28.9203 14.4054 28.94 14.376 28.9727 14.3535C28.8242 14.1766 28.6965 13.9903 28.5896 13.7946C28.5502 13.677 28.511 13.5593 28.4717 13.4417C28.4121 13.3925 28.3433 13.3729 28.2654 13.3829C28.2411 13.0995 28.1133 12.8838 27.8822 12.7358C27.8056 12.5714 27.7171 12.4146 27.6169 12.2652C27.7288 12.1965 27.7386 12.0984 27.6464 11.9711C27.3964 11.8863 27.19 11.749 27.0275 11.5593C26.8061 11.2602 26.6096 10.9465 26.438 10.6181C28.3056 10.6011 30.1722 10.6208 32.038 10.677C30.4656 10.6574 28.8936 10.677 27.3222 10.7358C28.9038 10.814 30.4757 10.814 32.038 10.7358C32.2705 10.6814 32.2705 10.6128 32.038 10.5299C30.309 10.5005 28.5798 10.4907 26.8506 10.5005C28.5797 10.4612 30.3089 10.4221 32.038 10.3828C32.038 9.26517 32.038 8.14751 32.038 7.02985C32.2576 7.04885 32.4738 7.0292 32.6864 6.97102C32.5945 6.87508 32.4766 6.82608 32.3327 6.82396C32.5366 6.74072 32.7527 6.71131 32.9811 6.73572C32.9811 6.83379 32.9811 6.93179 32.9811 7.02985C33.158 7.04943 33.2366 6.97102 33.2169 6.79455C33.456 6.77549 33.6918 6.79508 33.9243 6.85337C33.7875 6.93961 33.6696 7.04743 33.5706 7.17691C33.2366 7.1965 32.9026 7.21614 32.5685 7.23573C32.4181 7.32491 32.4378 7.37391 32.6275 7.38279Z" fill="#2F5497"/>
<path fill-rule="evenodd" clip-rule="evenodd" d="M32.0378 10.6772C32.0378 10.6968 32.0378 10.7164 32.0378 10.736C30.4755 10.8142 28.9035 10.8142 27.322 10.736C28.8934 10.6772 30.4653 10.6576 32.0378 10.6772Z" fill="#2C578D"/>
<path fill-rule="evenodd" clip-rule="evenodd" d="M32.9811 10.7355C33.5884 10.8328 34.2171 10.8916 34.8674 10.912C34.1611 10.9708 33.4537 10.9904 32.7453 10.9708C32.7082 10.811 32.7868 10.7326 32.9811 10.7355Z" fill="#3350A5"/>
<path fill-rule="evenodd" clip-rule="evenodd" d="M35.8105 11.0298C35.7123 11.0298 35.6141 11.0298 35.5158 11.0298C35.533 10.9622 35.5821 10.923 35.6632 10.9122C36.1268 10.8302 36.5885 10.84 37.0484 10.9416C36.6252 10.9517 36.2126 10.9811 35.8105 11.0298Z" fill="#354FA4"/>
<path fill-rule="evenodd" clip-rule="evenodd" d="M32.7452 11.0296C33.6687 11.0296 34.5922 11.0296 35.5157 11.0296C35.614 11.0296 35.7122 11.0296 35.8105 11.0296C36.361 11.0199 36.9112 11.0296 37.461 11.0591C37.394 11.1264 37.3351 11.1951 37.2841 11.2649C37.2841 11.2061 37.2841 11.1473 37.2841 11.0885C35.7907 11.0786 34.2973 11.0885 32.8041 11.1179C32.7598 11.1573 32.7401 11.2064 32.7452 11.2649C32.6927 11.2202 32.6534 11.1613 32.6273 11.0885C32.6542 11.0415 32.6936 11.0219 32.7452 11.0296Z" fill="#D7E6F3"/>
<path fill-rule="evenodd" clip-rule="evenodd" d="M37.2842 11.2652C37.1219 11.5304 36.9451 11.7852 36.7536 12.0299C36.7005 12.0764 36.6612 12.1352 36.6358 12.2064C36.3464 12.568 36.0713 12.9405 35.8105 13.324C35.4705 13.7164 35.1365 14.1184 34.8084 14.5299C34.7593 14.5704 34.7201 14.5606 34.6905 14.5005C34.6054 14.3489 34.5072 14.2117 34.3958 14.0887C33.8718 13.134 33.3216 12.1928 32.7452 11.2652C32.7402 11.2066 32.7598 11.1576 32.8042 11.1181C34.2974 11.0887 35.7907 11.0789 37.2842 11.0887C37.2842 11.1475 37.2842 11.2064 37.2842 11.2652Z" fill="#FBFDFC"/>
<path fill-rule="evenodd" clip-rule="evenodd" d="M36.7529 12.0302C36.7655 12.1285 36.7264 12.1871 36.6356 12.2059C36.6609 12.135 36.7001 12.0765 36.7529 12.0302Z" fill="#525E6D"/>
<path fill-rule="evenodd" clip-rule="evenodd" d="M48.1305 12.7947C48.7082 12.7348 49.111 12.9701 49.3389 13.5006C49.4572 14.1485 49.2115 14.5897 48.6021 14.8241C47.7287 14.8578 47.3259 14.4362 47.3936 13.5594C47.5339 13.1941 47.7795 12.9392 48.1305 12.7947Z" fill="#455982"/>
<path fill-rule="evenodd" clip-rule="evenodd" d="M27.0274 11.5592C27.19 11.7489 27.3963 11.8861 27.6464 11.971C27.7386 12.0983 27.7287 12.1964 27.6169 12.2651C27.7171 12.4144 27.8055 12.5713 27.8822 12.7357C28.1133 12.8837 28.241 13.0994 28.2653 13.3827C28.3433 13.3727 28.412 13.3923 28.4716 13.4416C28.511 13.5592 28.5502 13.6769 28.5895 13.7945C28.6965 13.9902 28.8242 14.1765 28.9727 14.3533C28.9399 14.3759 28.9203 14.4053 28.9137 14.4416C28.2711 13.493 27.6423 12.5322 27.0274 11.5592Z" fill="#3D588C"/>
<path fill-rule="evenodd" clip-rule="evenodd" d="M35.8104 13.3238C35.666 13.61 35.4892 13.8846 35.2799 14.1473C35.3093 14.1669 35.3388 14.1866 35.3683 14.2062C35.4449 14.1352 35.5333 14.0959 35.6335 14.0885C35.6335 14.0101 35.6335 13.9316 35.6335 13.8532C35.6925 13.8532 35.7514 13.8532 35.8104 13.8532C35.8011 13.7724 35.811 13.694 35.8399 13.6179C35.8746 13.7569 35.963 13.8157 36.1051 13.7944C36.1151 13.7166 36.0955 13.648 36.0462 13.5885C36.1425 13.5594 36.2408 13.5497 36.3409 13.5591C35.9461 14.0507 35.5531 14.5409 35.162 15.0297C35.1689 14.913 35.1295 14.815 35.0441 14.7356C35.1193 14.6682 35.1979 14.6682 35.2799 14.7356C35.3321 14.5817 35.2928 14.4445 35.162 14.3238C35.0506 14.4375 34.9327 14.5453 34.8083 14.6473C34.7524 14.6758 34.6934 14.6855 34.6314 14.6768C34.522 14.4969 34.4434 14.3007 34.3956 14.0885C34.5071 14.2115 34.6053 14.3487 34.6904 14.5003C34.72 14.5603 34.7592 14.5702 34.8083 14.5297C35.1364 14.1182 35.4704 13.7161 35.8104 13.3238Z" fill="#3B5991"/>
<path fill-rule="evenodd" clip-rule="evenodd" d="M48.1306 12.9711C48.8935 12.9579 49.2373 13.3304 49.1622 14.0888C48.9079 14.6113 48.5051 14.778 47.9538 14.5888C47.357 13.9709 47.4159 13.4317 48.1306 12.9711Z" fill="#EFF7F7"/>
<path fill-rule="evenodd" clip-rule="evenodd" d="M48.3662 13.9121C48.5234 13.8533 48.5234 13.7945 48.3662 13.7356C48.4714 13.5411 48.4124 13.443 48.1894 13.4415C48.1858 13.4096 48.1662 13.39 48.1304 13.3827C48.1108 13.5102 48.0911 13.6376 48.0715 13.7651C48.0734 13.9186 48.1127 14.0461 48.1894 14.1474C48.1476 14.2006 48.0886 14.2202 48.0125 14.2062C48.0125 13.9121 48.0125 13.618 48.0125 13.3239C48.194 13.3098 48.3709 13.3293 48.543 13.3827C48.6122 13.5285 48.6122 13.6756 48.543 13.8239C48.6084 13.9443 48.6477 14.0717 48.6609 14.2062C48.4985 14.179 48.4003 14.0809 48.3662 13.9121Z" fill="#3C77A9"/>
<path fill-rule="evenodd" clip-rule="evenodd" d="M48.1895 13.4417C48.1895 13.5397 48.1895 13.6377 48.1895 13.7358C48.2484 13.7358 48.3073 13.7358 48.3663 13.7358C48.5235 13.7946 48.5235 13.8534 48.3663 13.9122C48.3245 13.8591 48.2656 13.8395 48.1895 13.8534C48.1895 13.9515 48.1895 14.0495 48.1895 14.1475C48.1128 14.0462 48.0735 13.9187 48.0716 13.7652C48.0912 13.6377 48.1109 13.5103 48.1305 13.3828C48.1663 13.3901 48.1859 13.4097 48.1895 13.4417Z" fill="#0F70C5"/>
<path fill-rule="evenodd" clip-rule="evenodd" d="M48.1896 13.4418C48.4126 13.4433 48.4716 13.5413 48.3664 13.7359C48.3074 13.7359 48.2485 13.7359 48.1896 13.7359C48.1896 13.6379 48.1896 13.5399 48.1896 13.4418Z" fill="#D6EBF0"/>
<path fill-rule="evenodd" clip-rule="evenodd" d="M45.419 15.3828C44.3383 15.3828 43.2576 15.3828 42.1769 15.3828C42.1769 17.4613 42.1769 19.5398 42.1769 21.6182C42.1769 21.7163 42.1769 21.8143 42.1769 21.9123C42.1208 21.8289 42.1012 21.7309 42.1179 21.6182C42.1179 19.7358 42.1179 17.8535 42.1179 15.9711C42.1179 15.7554 42.1179 15.5397 42.1179 15.324C43.2286 15.3046 44.3289 15.3242 45.419 15.3828Z" fill="#A2B3C9"/>
<path fill-rule="evenodd" clip-rule="evenodd" d="M15.9453 15.4419C15.6506 15.4419 15.3558 15.4419 15.0611 15.4419C14.9432 15.4419 14.8253 15.4419 14.7074 15.4419C12.9389 15.4321 11.1705 15.4419 9.40216 15.4713C9.25373 15.5778 9.25373 15.6856 9.40216 15.7948C9.36284 15.7948 9.32358 15.7948 9.28426 15.7948C9.21812 15.6896 9.20828 15.572 9.25479 15.4419C9.299 15.4051 9.34816 15.3756 9.40216 15.3536C11.5439 15.3144 13.6857 15.3144 15.8274 15.3536C15.8814 15.37 15.9207 15.3994 15.9453 15.4419Z" fill="#526C93"/>
<path fill-rule="evenodd" clip-rule="evenodd" d="M23.4904 15.7947C23.4095 15.8039 23.3308 15.7941 23.2546 15.7653C23.1734 15.6645 23.0751 15.5861 22.9599 15.53C22.4226 15.3411 21.8921 15.3608 21.3683 15.5888C21.782 15.6221 22.1946 15.6123 22.6062 15.5594C22.6062 15.6378 22.6062 15.7163 22.6062 15.7947C22.7064 15.7853 22.8046 15.7951 22.9009 15.8241C22.9596 15.932 23.048 16.0007 23.1662 16.03C23.2876 15.9642 23.4153 15.925 23.5494 15.9124C23.7913 16.1032 23.7618 16.26 23.4609 16.383C23.1513 16.1722 22.8271 15.986 22.4883 15.8241C22.1799 15.7232 21.8655 15.684 21.5452 15.7065C21.3915 15.7329 21.313 15.8212 21.3094 15.9712C20.8766 15.981 20.4444 15.9712 20.0125 15.9418C20.1681 15.876 20.3351 15.8466 20.5136 15.8535C20.7415 15.874 20.9675 15.8838 21.1915 15.8829C21.2433 15.8032 21.263 15.7149 21.2504 15.6182C21.0693 15.6369 20.8925 15.6173 20.7199 15.5594C20.9353 15.5077 21.1514 15.4587 21.3683 15.4124C21.3094 15.3928 21.2504 15.3731 21.1915 15.3535C21.4273 15.3339 21.663 15.3143 21.8988 15.2947C21.8792 15.2751 21.8595 15.2555 21.8399 15.2359C21.4662 15.2154 21.0928 15.2252 20.7199 15.2653C21.4524 15.0906 22.1795 15.1396 22.9009 15.4124C23.1315 15.4973 23.328 15.6248 23.4904 15.7947Z" fill="#385890"/>
<path fill-rule="evenodd" clip-rule="evenodd" d="M46.1853 15.4417C46.1853 15.5005 46.1853 15.5593 46.1853 15.6182C46.6425 15.5525 47.0551 15.6505 47.4232 15.9123C47.3072 16.0856 47.1697 16.115 47.0106 16.0005C46.8348 15.9712 46.6579 15.9614 46.48 15.9711C46.4604 15.9711 46.4407 15.9711 46.4211 15.9711C46.4145 15.9348 46.3949 15.9054 46.3621 15.8829C45.0352 15.7313 43.7089 15.7019 42.3832 15.7946C42.3054 15.6917 42.276 15.574 42.2948 15.4417C43.5916 15.4417 44.8885 15.4417 46.1853 15.4417Z" fill="#2F539A"/>
<path fill-rule="evenodd" clip-rule="evenodd" d="M23.4907 15.795C23.5401 15.8151 23.5598 15.8543 23.5497 15.9126C23.4156 15.9253 23.2879 15.9645 23.1665 16.0303C23.0483 16.0009 22.9599 15.9323 22.9013 15.8244C22.8049 15.7953 22.7067 15.7856 22.6065 15.795C22.6065 15.7166 22.6065 15.6381 22.6065 15.5597C22.195 15.6126 21.7823 15.6223 21.3686 15.5891C21.8924 15.361 22.423 15.3414 22.9602 15.5303C23.0755 15.5863 23.1737 15.6648 23.2549 15.7656C23.3312 15.7944 23.4098 15.8042 23.4907 15.795Z" fill="#2F5499"/>
<path fill-rule="evenodd" clip-rule="evenodd" d="M45.4189 15.3827C45.6861 15.364 45.9415 15.3836 46.1852 15.4415C44.8884 15.4415 43.5915 15.4415 42.2947 15.4415C42.2759 15.5738 42.3054 15.6915 42.3831 15.7944C43.7088 15.7017 45.0352 15.7311 46.3621 15.8827C46.3948 15.9052 46.4145 15.9346 46.421 15.9709C46.0301 15.922 45.6371 15.9024 45.2421 15.9121C44.3092 15.8535 43.3661 15.8339 42.4126 15.8533C42.4224 17.7749 42.4126 19.6965 42.3831 21.618C42.3143 14.0887 42.2652 14.0887 42.2357 21.618C42.2161 21.618 42.1964 21.618 42.1768 21.618C42.1768 19.5396 42.1768 17.4611 42.1768 15.3827C43.2575 15.3827 44.3382 15.3827 45.4189 15.3827Z" fill="#36568F"/>
<path fill-rule="evenodd" clip-rule="evenodd" d="M20.72 15.2652C20.2398 15.4656 19.7682 15.7009 19.3053 15.9711C19.6939 15.5811 20.1655 15.3458 20.72 15.2652Z" fill="#455C88"/>
<path fill-rule="evenodd" clip-rule="evenodd" d="M9.2841 15.795C9.32342 15.795 9.36268 15.795 9.40199 15.795C9.97184 15.8343 10.5416 15.8734 11.1115 15.9127C11.0918 15.9127 11.0721 15.9127 11.0525 15.9127C10.4824 15.9224 9.91254 15.9127 9.34305 15.8833C9.31027 15.8607 9.29064 15.8313 9.2841 15.795Z" fill="#5A6E8C"/>
<path fill-rule="evenodd" clip-rule="evenodd" d="M45.242 15.9123C45.242 17.3633 45.242 18.8143 45.242 20.2653C45.4546 20.3432 45.6904 20.3824 45.9494 20.383C46.1852 20.3731 46.4209 20.3634 46.6567 20.3535C46.8555 20.3457 47.0422 20.2966 47.2167 20.2065C47.3596 20.3042 47.4677 20.2748 47.5409 20.1183C47.5213 20.0987 47.5016 20.079 47.482 20.0594C47.5783 20.0304 47.6766 20.0206 47.7767 20.03C47.7068 20.3838 47.5005 20.5015 47.1578 20.383C47.1287 20.4791 47.1189 20.5771 47.1283 20.6771C46.5126 20.8663 45.8838 20.9056 45.242 20.7947C45.242 21.1281 45.242 21.4614 45.242 21.7947C44.2593 21.8046 43.2769 21.7947 42.2946 21.7653C42.2503 21.7259 42.2306 21.6769 42.2357 21.6183C42.2652 14.0889 42.3143 14.0889 42.3831 21.6183C42.4125 19.6968 42.4224 17.7752 42.4125 15.8535C43.366 15.8341 44.3092 15.8537 45.242 15.9123Z" fill="#2F5498"/>
<path fill-rule="evenodd" clip-rule="evenodd" d="M14.7072 15.4416C13.5384 15.4906 12.3594 15.52 11.1704 15.5299C11.6756 15.5969 12.1864 15.6263 12.703 15.6181C13.7056 15.6039 14.7077 15.5745 15.7094 15.5299C15.4821 15.5195 15.2659 15.4901 15.0609 15.4416C15.3557 15.4416 15.6504 15.4416 15.9451 15.4416C16.0304 15.4789 16.0697 15.5476 16.063 15.6475C16.0597 15.7775 16.0007 15.8657 15.8862 15.9122C15.336 15.9122 14.7858 15.9122 14.2357 15.9122C14.1921 15.9045 14.1528 15.9144 14.1178 15.9416C14.1765 17.8295 14.1961 19.7217 14.1767 21.6182C14.1234 21.6599 14.1038 21.7187 14.1178 21.7947C13.1522 21.776 12.1894 21.7955 11.2294 21.8535C11.1892 21.8098 11.1498 21.7706 11.1115 21.7358C11.1115 21.3829 11.1115 21.03 11.1115 20.677C11.1317 19.0953 11.1906 17.5169 11.2883 15.9416C11.2324 15.9132 11.1735 15.9035 11.1115 15.9122C10.5416 15.873 9.97183 15.8338 9.40198 15.7946C9.25356 15.6854 9.25356 15.5775 9.40198 15.4711C11.1703 15.4416 12.9387 15.4318 14.7072 15.4416Z" fill="#2F5497"/>
<path fill-rule="evenodd" clip-rule="evenodd" d="M14.7074 15.4417C14.8253 15.4417 14.9432 15.4417 15.0611 15.4417C15.266 15.4901 15.4822 15.5195 15.7095 15.5299C14.7079 15.5746 13.7058 15.604 12.7032 15.6182C12.1866 15.6263 11.6757 15.5969 11.1705 15.5299C12.3596 15.52 13.5385 15.4906 14.7074 15.4417Z" fill="#3150A2"/>
<path fill-rule="evenodd" clip-rule="evenodd" d="M21.3096 15.9711C21.478 16.3159 21.6941 16.6297 21.958 16.9123C22.0906 17.1534 22.238 17.3887 22.4002 17.6182C22.5523 17.7421 22.6997 17.8696 22.8423 18.0006C22.766 18.0294 22.6874 18.0392 22.6065 18.03C22.6065 18.128 22.6065 18.226 22.6065 18.3241C22.6654 18.3241 22.7244 18.3241 22.7833 18.3241C22.7833 18.2457 22.7833 18.1672 22.7833 18.0888C22.9396 18.16 23.0968 18.2385 23.2549 18.3241C23.5922 18.663 23.8575 19.0551 24.0507 19.5006C24.2948 20.3384 24.0688 21.0148 23.3728 21.53C22.2211 22.1506 21.0225 22.2487 19.777 21.8241C19.4051 21.6488 19.0907 21.4038 18.8338 21.0888C18.8338 21.0104 18.8338 20.9319 18.8338 20.8535C19.0107 20.9319 19.1875 20.9319 19.3644 20.8535C19.9236 21.3971 20.5917 21.6227 21.3686 21.53C21.4812 21.506 21.5401 21.4374 21.5454 21.3241C21.4832 21.1019 21.3752 20.9058 21.2212 20.7359C20.5903 20.0868 19.9812 19.4202 19.3938 18.7359C18.9234 18.1709 18.727 17.5238 18.8044 16.7947C18.8981 16.4693 19.0651 16.1948 19.3054 15.9711C19.7683 15.7009 20.2399 15.4656 20.7202 15.2652C21.0931 15.2251 21.4665 15.2153 21.8402 15.2358C21.8598 15.2554 21.8795 15.2751 21.8991 15.2946C21.6633 15.3142 21.4275 15.3339 21.1917 15.3535C21.2507 15.3731 21.3096 15.3927 21.3686 15.4123C21.1517 15.4586 20.9355 15.5076 20.7202 15.5593C20.8927 15.6172 21.0696 15.6368 21.2507 15.6182C21.2633 15.7149 21.2436 15.8031 21.1917 15.8829C20.9678 15.8837 20.7418 15.8739 20.5138 15.8535C20.3354 15.8465 20.1683 15.8759 20.0128 15.9417C20.4446 15.9711 20.8769 15.9809 21.3096 15.9711Z" fill="#315497"/>
<path fill-rule="evenodd" clip-rule="evenodd" d="M45.2421 15.9123C45.6372 15.9027 46.0302 15.9223 46.421 15.9712C46.4407 15.9712 46.4604 15.9712 46.48 15.9712C47.5195 16.185 48.1483 16.8124 48.3663 17.8535C48.4131 18.3288 48.3344 18.7798 48.1305 19.2065C48.1109 19.2457 48.0912 19.2849 48.0716 19.3241C47.3326 20.2105 46.3895 20.5242 45.2421 20.2653C45.2421 18.8143 45.2421 17.3634 45.2421 15.9123Z" fill="#FCFDFC"/>
<path fill-rule="evenodd" clip-rule="evenodd" d="M47.7179 15.9709C47.7764 15.9608 47.8156 15.9805 47.8358 16.0298C47.8551 16.1869 47.9436 16.285 48.1011 16.3239C48.1676 16.4324 48.197 16.5501 48.1895 16.6768C48.0046 16.5691 47.8179 16.4515 47.6295 16.3239C47.563 16.2154 47.5335 16.0977 47.5411 15.9709C47.6 15.9709 47.659 15.9709 47.7179 15.9709Z" fill="#2F539E"/>
<path fill-rule="evenodd" clip-rule="evenodd" d="M46.1851 15.4417C46.676 15.4955 47.1476 15.623 47.5999 15.824C47.6518 15.8657 47.6911 15.9147 47.7178 15.9711C47.6588 15.9711 47.5999 15.9711 47.5409 15.9711C47.5334 16.0979 47.5629 16.2155 47.6294 16.324C47.8178 16.4516 48.0044 16.5693 48.1894 16.677C48.1969 16.5502 48.1674 16.4326 48.1009 16.324C47.9434 16.2852 47.855 16.1871 47.8357 16.0299C48.991 16.9842 49.2366 18.1411 48.5725 19.5006C48.5166 19.5943 48.4478 19.6727 48.3662 19.7359C48.4119 19.4717 48.5003 19.2169 48.6315 18.9711C48.6761 18.5952 48.6565 18.2227 48.5725 17.8535C48.5129 18.1732 48.4638 18.487 48.4251 18.7947C48.4441 18.4696 48.4244 18.1558 48.3662 17.8535C48.1482 16.8123 47.5194 16.1849 46.4799 15.9711C46.6578 15.9614 46.8346 15.9712 47.0104 16.0005C47.1696 16.115 47.3071 16.0856 47.423 15.9123C47.055 15.6505 46.6423 15.5525 46.1851 15.6182C46.1851 15.5593 46.1851 15.5005 46.1851 15.4417Z" fill="#395892"/>
<path fill-rule="evenodd" clip-rule="evenodd" d="M30.1517 16.9127C30.1869 16.9265 30.2065 16.9559 30.2106 17.0009C30.1824 17.1319 30.1431 17.2593 30.0927 17.3833C30.0503 17.0825 29.9718 17.0727 29.8569 17.3539C29.9429 17.4569 30.0214 17.5648 30.0927 17.6774C30.2393 17.4626 30.3965 17.2568 30.5643 17.0597C30.7078 17.0402 30.7667 17.1088 30.7411 17.2656C30.6711 17.196 30.6023 17.196 30.5348 17.2656C30.1426 17.8038 29.7202 18.3136 29.2675 18.7951C29.2557 18.6504 29.2165 18.5131 29.1496 18.3833C28.9522 18.5027 28.7754 18.6399 28.619 18.7951C29.0091 18.2584 29.4119 17.729 29.8275 17.2068C29.9306 17.0936 30.0387 16.9956 30.1517 16.9127Z" fill="#385893"/>
<path fill-rule="evenodd" clip-rule="evenodd" d="M21.9579 16.9127C22.4103 17.3641 22.8425 17.8347 23.2548 18.3245C23.0967 18.2389 22.9395 18.1604 22.7832 18.0892C22.7832 18.1676 22.7832 18.2461 22.7832 18.3245C22.7242 18.3245 22.6653 18.3245 22.6063 18.3245C22.6063 18.2264 22.6063 18.1284 22.6063 18.0304C22.6873 18.0396 22.7659 18.0298 22.8421 18.0009C22.6995 17.8699 22.5522 17.7425 22.4 17.6186C22.2379 17.389 22.0905 17.1538 21.9579 16.9127Z" fill="#3D588A"/>
<path fill-rule="evenodd" clip-rule="evenodd" d="M31.0948 17.8535C31.1538 17.8535 31.2127 17.8535 31.2717 17.8535C31.2711 17.9599 31.3006 18.0579 31.3601 18.1477C31.5598 18.3176 31.6679 18.5333 31.6843 18.7947C31.4665 18.498 31.27 18.1842 31.0948 17.8535Z" fill="#415A85"/>
<path fill-rule="evenodd" clip-rule="evenodd" d="M14.3538 15.9712C14.4049 17.853 14.4246 19.7354 14.4128 21.6183C14.3342 20.6976 14.2949 19.7564 14.2949 18.7947C14.2949 17.8435 14.3145 16.9023 14.3538 15.9712Z" fill="#F9FFF2"/>
<path fill-rule="evenodd" clip-rule="evenodd" d="M42.1179 15.9712C42.1179 17.8535 42.1179 19.7359 42.1179 21.6183C42.0393 20.6976 42.0001 19.7564 42 18.7947C42.0001 17.8331 42.0393 16.8919 42.1179 15.9712Z" fill="#FBFEF0"/>
<path fill-rule="evenodd" clip-rule="evenodd" d="M29.2675 18.7945C29.2181 18.8146 29.1984 18.8538 29.2085 18.9121C29.1035 18.8403 28.9856 18.8012 28.8548 18.7945C28.8548 18.8533 28.8548 18.9121 28.8548 18.9709C28.7959 18.9709 28.7369 18.9709 28.678 18.9709C28.7079 19.1284 28.7178 19.2852 28.7075 19.4415C28.6183 19.397 28.5397 19.3382 28.4717 19.2651C28.5162 19.1144 28.5653 18.9575 28.619 18.7945C28.7754 18.6393 28.9522 18.5021 29.1496 18.3827C29.2165 18.5125 29.2557 18.6498 29.2675 18.7945Z" fill="#2F539F"/>
<path fill-rule="evenodd" clip-rule="evenodd" d="M48.3664 17.8535C48.4246 18.1559 48.4443 18.4697 48.4253 18.7947C48.3781 18.8801 48.3486 18.9781 48.3369 19.0888C48.2888 19.1667 48.22 19.2058 48.1306 19.2065C48.3345 18.7798 48.4131 18.3288 48.3664 17.8535Z" fill="#4F688E"/>
<path fill-rule="evenodd" clip-rule="evenodd" d="M48.3664 19.7359C48.2281 19.8056 48.1102 19.9036 48.0127 20.03C47.9466 19.9392 47.9662 19.8608 48.0717 19.7947C48.0239 19.7526 47.9846 19.7036 47.9538 19.6477C48.0354 19.5537 48.0747 19.4459 48.0717 19.3241C48.0913 19.2849 48.111 19.2457 48.1306 19.2065C48.2201 19.2058 48.2888 19.1667 48.3369 19.0888C48.3486 18.9781 48.3781 18.8801 48.4254 18.7947C48.464 18.4871 48.5131 18.1733 48.5727 17.8535C48.6567 18.2227 48.6764 18.5952 48.6317 18.9712C48.5005 19.2169 48.4121 19.4718 48.3664 19.7359Z" fill="#2F549C"/>
<path fill-rule="evenodd" clip-rule="evenodd" d="M48.0715 19.3241C48.0745 19.4459 48.0352 19.5537 47.9536 19.6477C47.9844 19.7035 48.0237 19.7526 48.0715 19.7947C47.966 19.8608 47.9464 19.9392 48.0125 20.03C48.11 19.9036 48.2279 19.8055 48.3662 19.7359C48.0583 20.1797 47.6456 20.4934 47.1283 20.6771C47.1189 20.5771 47.1287 20.4791 47.1578 20.383C47.5005 20.5015 47.7068 20.3838 47.7767 20.03C47.6766 20.0206 47.5783 20.0304 47.482 20.0594C47.5016 20.079 47.5213 20.0987 47.541 20.1183C47.4677 20.2748 47.3596 20.3042 47.2167 20.2065C47.0422 20.2966 46.8555 20.3457 46.6567 20.3536C46.421 20.3634 46.1852 20.3731 45.9494 20.383C45.6904 20.3824 45.4546 20.3432 45.242 20.2653C46.3894 20.5242 47.3325 20.2105 48.0715 19.3241Z" fill="#3B598C"/>
<path fill-rule="evenodd" clip-rule="evenodd" d="M28.6189 18.7947C28.5652 18.9578 28.5161 19.1147 28.4716 19.2653C28.5396 19.3384 28.6182 19.3973 28.7073 19.4418C28.7177 19.2855 28.7078 19.1286 28.6779 18.9712C28.7368 18.9712 28.7958 18.9712 28.8547 18.9712C28.8547 18.9124 28.8547 18.8535 28.8547 18.7947C28.9855 18.8014 29.1034 18.8406 29.2084 18.9124C28.5363 19.8022 27.878 20.7042 27.2337 21.6183C27.1059 21.7458 26.9782 21.8732 26.8505 22.0006C26.6815 22.0478 26.5243 22.0379 26.3789 21.9712C26.7491 21.9612 26.9849 21.7847 27.0863 21.4418C26.9392 21.4007 26.8017 21.3419 26.6737 21.2653C26.6652 21.369 26.6849 21.467 26.7326 21.5595C26.5883 21.6522 26.4704 21.7699 26.3789 21.9124C26.3044 21.7788 26.3142 21.6415 26.4084 21.5006C27.1596 20.6046 27.8964 19.7027 28.6189 18.7947Z" fill="#385790"/>
<path fill-rule="evenodd" clip-rule="evenodd" d="M28.2653 19.3241C28.3293 19.3312 28.3686 19.3704 28.3832 19.4418C28.2438 19.5672 28.2438 19.6849 28.3832 19.7947C28.282 19.824 28.1838 19.8436 28.0884 19.8535C28.1008 19.888 28.1205 19.9174 28.1474 19.9418C28.0881 20.1093 28.0291 20.276 27.9705 20.4418C27.7732 20.5594 27.6749 20.5006 27.6758 20.2653C27.8753 19.9496 28.0718 19.6359 28.2653 19.3241Z" fill="#2F53A0"/>
<path fill-rule="evenodd" clip-rule="evenodd" d="M19.3641 20.8534C19.1873 20.9318 19.0105 20.9318 18.8336 20.8534C18.8336 20.9318 18.8336 21.0103 18.8336 21.0887C18.6686 20.9236 18.6883 20.7766 18.8926 20.6475C19.0998 20.6039 19.257 20.6725 19.3641 20.8534Z" fill="#455C8B"/>
<path fill-rule="evenodd" clip-rule="evenodd" d="M26.379 21.9714C26.379 21.9518 26.379 21.9322 26.379 21.9126C26.4704 21.7701 26.5883 21.6524 26.7327 21.5597C26.685 21.4672 26.6653 21.3692 26.6737 21.2655C26.8018 21.3421 26.9393 21.4009 27.0864 21.442C26.985 21.7849 26.7492 21.9614 26.379 21.9714Z" fill="#2E539D"/>
<path fill-rule="evenodd" clip-rule="evenodd" d="M39.3475 21.6183C39.432 21.6967 39.5106 21.7849 39.5833 21.883C37.5691 21.9319 35.5649 21.922 33.5707 21.8536C35.4708 21.8606 37.3768 21.8508 39.2886 21.8242C39.3379 21.7647 39.3575 21.696 39.3475 21.6183Z" fill="#41526D"/>
<path fill-rule="evenodd" clip-rule="evenodd" d="M42.1768 21.6183C42.1964 21.6183 42.2161 21.6183 42.2357 21.6183C42.2307 21.6769 42.2504 21.7259 42.2947 21.7653C43.2769 21.7947 44.2594 21.8046 45.2421 21.7947C44.2418 21.9116 43.2201 21.9508 42.1768 21.9124C42.1768 21.8143 42.1768 21.7163 42.1768 21.6183Z" fill="#3B5478"/>
<path fill-rule="evenodd" clip-rule="evenodd" d="M11.0526 15.9121C11.0723 15.9121 11.092 15.9121 11.1116 15.9121C11.1116 17.5004 11.1116 19.0886 11.1116 20.6769C11.1116 21.0298 11.1116 21.3828 11.1116 21.7357C11.1116 21.7946 11.1116 21.8534 11.1116 21.9122C12.1333 21.9122 13.1551 21.9122 14.1768 21.9122C14.2357 19.9222 14.2554 17.9222 14.2358 15.9121C14.7859 15.9121 15.3362 15.9121 15.8863 15.9121C15.556 15.9715 15.1434 15.9911 14.6484 15.9709C14.6288 17.2258 14.6091 17.2258 14.5895 15.9709C14.5109 15.9709 14.4323 15.9709 14.3537 15.9709C14.3144 16.9021 14.2947 17.8433 14.2947 18.7945C14.2948 19.7562 14.3341 20.6974 14.4126 21.6181C14.4478 21.6319 14.4675 21.6613 14.4716 21.7063C14.4136 21.8038 14.3546 21.9018 14.2947 22.0004C13.2704 22.011 12.2486 22.0404 11.2295 22.0887C10.9244 21.9308 10.8556 21.6956 11.0232 21.3828C11.0526 19.5593 11.0625 17.7358 11.0526 15.9121Z" fill="#ECF9FD"/>
<path fill-rule="evenodd" clip-rule="evenodd" d="M14.1768 21.6183C14.1768 21.7163 14.1768 21.8143 14.1768 21.9124C13.155 21.9124 12.1332 21.9124 11.1115 21.9124C11.1115 21.8536 11.1115 21.7947 11.1115 21.7359C11.1499 21.7707 11.1892 21.8099 11.2294 21.8536C12.1894 21.7956 13.1522 21.776 14.1178 21.7947C14.1039 21.7188 14.1235 21.66 14.1768 21.6183Z" fill="#3C5478"/>
<path fill-rule="evenodd" clip-rule="evenodd" d="M14.2357 15.9122C14.2552 17.9223 14.2355 19.9223 14.1767 21.9123C14.1767 21.8142 14.1767 21.7162 14.1767 21.6181C14.1961 19.7216 14.1765 17.8294 14.1178 15.9416C14.1528 15.9143 14.1921 15.9045 14.2357 15.9122Z" fill="#8799C3"/>
<path fill-rule="evenodd" clip-rule="evenodd" d="M11.1115 15.9121C11.1735 15.9034 11.2325 15.9131 11.2883 15.9415C11.1907 17.5168 11.1317 19.0952 11.1115 20.6769C11.1115 19.0886 11.1115 17.5004 11.1115 15.9121Z" fill="#41597B"/>
<path fill-rule="evenodd" clip-rule="evenodd" d="M11.4062 26.324C11.4192 26.5766 11.3406 26.6158 11.1704 26.4416C11.0549 26.4637 10.9468 26.5028 10.8462 26.5593C10.8692 26.9871 10.879 27.4185 10.8756 27.8534C10.7799 27.8452 10.7112 27.8844 10.6693 27.971C10.6497 27.9515 10.63 27.9318 10.6104 27.9122C10.5809 27.4617 10.5711 27.0107 10.5809 26.5593C10.442 26.5688 10.3044 26.5591 10.1683 26.5298C10.0903 26.4818 10.051 26.4132 10.0504 26.324C10.5023 26.2455 10.9542 26.2455 11.4062 26.324Z" fill="#395797"/>
<path fill-rule="evenodd" clip-rule="evenodd" d="M11.7599 26.2657C11.9962 26.2371 12.1043 26.3351 12.0841 26.5598C11.8925 26.7339 11.7648 26.6947 11.701 26.4421C11.7119 26.3784 11.7315 26.3196 11.7599 26.2657Z" fill="#4A5E8F"/>
<path fill-rule="evenodd" clip-rule="evenodd" d="M39.9368 26.3242C39.9851 26.4892 40.0146 26.6657 40.0253 26.8536C40.234 26.7001 40.4403 26.7001 40.6442 26.8536C40.5247 26.8441 40.4068 26.8539 40.2905 26.883C40.3399 26.9425 40.3595 27.0111 40.3495 27.0889C40.2438 27.081 40.1456 27.1006 40.0547 27.1477C40.0465 26.8601 39.9581 26.8405 39.7895 27.0889C39.7796 27.0301 39.7698 26.9713 39.76 26.9124C39.8235 26.7141 39.8824 26.5181 39.9368 26.3242Z" fill="#3D5A8B"/>
<path fill-rule="evenodd" clip-rule="evenodd" d="M17.5959 26.501C17.5118 26.7043 17.5314 26.9005 17.6548 27.0892C17.9076 27.2575 18.1827 27.3751 18.4801 27.4422C18.5707 27.6768 18.4823 27.7944 18.2148 27.7951C18.0163 27.745 17.8886 27.6175 17.8317 27.4128C17.7531 27.3735 17.6745 27.3735 17.5959 27.4128C17.5316 27.5342 17.5217 27.6616 17.5664 27.7951C17.6558 27.8975 17.7442 27.9955 17.8317 28.0892C17.6623 27.9949 17.4855 27.9165 17.3011 27.8539C17.3023 27.9506 17.263 28.029 17.1832 28.0892C17.1176 28.1643 17.0586 28.1643 17.0064 28.0892C17.2377 27.9608 17.3261 27.7647 17.2717 27.501C17.0101 27.3462 16.7448 27.209 16.4759 27.0892C16.6578 26.9985 16.815 27.0279 16.9475 27.1775C17.0904 27.2355 17.1886 27.1962 17.2422 27.0598C17.1941 26.9632 17.1352 26.8749 17.0653 26.7951C17.1938 26.8151 17.3018 26.8739 17.3896 26.9716C17.4342 26.8381 17.4244 26.7106 17.3601 26.5892C17.4335 26.5427 17.5121 26.5133 17.5959 26.501Z" fill="#ECF3F6"/>
<path fill-rule="evenodd" clip-rule="evenodd" d="M20.0716 26.8535C19.9853 26.8534 19.887 26.873 19.7768 26.9124C19.9684 26.9291 20.0863 27.0272 20.1305 27.2065C20.1772 27.4521 20.187 27.707 20.16 27.9712C20.1796 28.0104 20.1993 28.0496 20.2189 28.0888C20.2846 28.0176 20.3533 28.0176 20.4253 28.0888C20.4968 27.6954 20.487 27.3032 20.3958 26.9124C20.3362 26.8631 20.2674 26.8435 20.1895 26.8535C20.2896 26.6992 20.3976 26.6992 20.5137 26.8535C20.553 27.4025 20.553 27.9516 20.5137 28.5006C20.3958 28.6575 20.2779 28.6575 20.16 28.5006C20.1493 28.3403 20.1198 28.1834 20.0716 28.03C19.3373 28.1497 19.0524 27.8359 19.2168 27.0888C19.4301 26.727 19.715 26.6486 20.0716 26.8535Z" fill="#3F5B8B"/>
<path fill-rule="evenodd" clip-rule="evenodd" d="M31.9789 27.0299C31.8946 27.0346 31.816 27.015 31.7431 26.9711C31.7235 27.0005 31.7038 27.0299 31.6842 27.0593C31.7627 27.275 31.7627 27.4907 31.6842 27.7064C31.6927 27.7518 31.7123 27.7911 31.7431 27.8241C31.8394 27.8531 31.9377 27.8629 32.0378 27.8535C32.0378 27.9123 32.0378 27.9711 32.0378 28.0299C31.8641 28.0462 31.6971 28.0266 31.5368 27.9711C31.4761 27.7315 31.427 27.4962 31.3894 27.2652C31.2797 27.1332 31.2208 26.9763 31.2126 26.7946C31.2715 26.7946 31.3305 26.7946 31.3894 26.7946C31.3798 26.656 31.3896 26.5187 31.4189 26.3829C31.5206 26.3196 31.6287 26.3097 31.7431 26.3534C31.7792 26.4797 31.8185 26.6072 31.861 26.7358C32.0213 26.7991 32.0606 26.8972 31.9789 27.0299Z" fill="#38569A"/>
<path fill-rule="evenodd" clip-rule="evenodd" d="M13.4104 26.8536C13.2675 26.8355 13.13 26.8551 12.9978 26.9124C13.0174 26.9712 13.0567 27.0105 13.1157 27.0301C13.1743 27.3216 13.1939 27.6157 13.1746 27.9124C13.2957 27.9045 13.394 27.9437 13.4694 28.0301C13.3487 28.1162 13.2406 28.0967 13.1451 27.9712C13.1157 27.6778 13.1059 27.3836 13.1157 27.0889C13.0174 27.0889 12.9192 27.0889 12.8209 27.0889C12.8193 26.9889 12.78 26.9105 12.703 26.8536C12.8146 26.7741 12.9422 26.7349 13.0862 26.7359C13.2171 26.7296 13.3252 26.7689 13.4104 26.8536Z" fill="#49618C"/>
<path fill-rule="evenodd" clip-rule="evenodd" d="M20.0717 26.8534C20.111 26.8534 20.1503 26.8534 20.1896 26.8534C20.2675 26.8434 20.3363 26.863 20.3959 26.9122C20.4871 27.3031 20.4969 27.6952 20.4254 28.0887C20.3535 28.0175 20.2847 28.0175 20.2191 28.0887C20.1995 28.0495 20.1798 28.0103 20.1601 27.9711C20.1871 27.7068 20.1774 27.4519 20.1307 27.2063C20.0865 27.0271 19.9686 26.929 19.777 26.9122C19.8872 26.8729 19.9854 26.8532 20.0717 26.8534Z" fill="#2F5598"/>
<path fill-rule="evenodd" clip-rule="evenodd" d="M44.2989 27.2652C44.4487 27.1511 44.4487 27.0236 44.2989 26.8829C44.1634 26.8442 44.0258 26.8147 43.8863 26.7946C43.7302 26.8513 43.5731 26.9101 43.4147 26.9711C43.6181 26.7479 43.8736 26.6793 44.181 26.7652C44.4594 26.8266 44.5675 26.9932 44.5052 27.2652C44.4291 27.3412 44.3604 27.3412 44.2989 27.2652Z" fill="#485E87"/>
<path fill-rule="evenodd" clip-rule="evenodd" d="M18.0674 26.9124C18.3269 26.9375 18.5627 27.0159 18.7748 27.1477C18.5052 27.1434 18.2694 27.0649 18.0674 26.9124Z" fill="#425A7C"/>
<path fill-rule="evenodd" clip-rule="evenodd" d="M29.0906 27.2652C29.1391 27.4697 29.1685 27.6854 29.179 27.9122C29.2386 27.9615 29.3074 27.981 29.3853 27.971C29.3853 27.8926 29.3853 27.8142 29.3853 27.7357C29.3264 27.7357 29.2674 27.7357 29.2085 27.7357C29.1815 27.5655 29.2208 27.4184 29.3264 27.2946C29.287 27.275 29.2478 27.2553 29.2085 27.2357C29.306 27.1508 29.3453 27.0429 29.3264 26.9122C29.2478 26.9122 29.1691 26.9122 29.0906 26.9122C29.0906 26.9906 29.0906 27.0691 29.0906 27.1475C28.9252 26.9828 28.7778 27.0024 28.6485 27.2063C28.6288 27.4809 28.6091 27.7553 28.5895 28.0299C28.4894 28.0832 28.3812 28.1027 28.2653 28.0887C28.2555 27.5001 28.2653 26.9119 28.2948 26.324C28.393 26.2455 28.4912 26.2455 28.5895 26.324C28.6091 26.5004 28.6288 26.6769 28.6485 26.8534C28.915 26.688 29.1704 26.7076 29.4148 26.9122C29.508 27.2783 29.5277 27.6508 29.4737 28.0299C29.3558 28.1083 29.2379 28.1083 29.12 28.0299C29.0906 27.7757 29.0808 27.5208 29.0906 27.2652Z" fill="#3C5995"/>
<path fill-rule="evenodd" clip-rule="evenodd" d="M44.2989 27.2655C43.989 26.9164 43.7728 26.9654 43.6504 27.4126C43.6763 27.7135 43.8335 27.8312 44.122 27.7655C44.1829 27.5965 44.3008 27.5082 44.4757 27.5008C44.4851 27.6008 44.4754 27.6988 44.4462 27.7949C44.3457 27.8425 44.2966 27.9209 44.2989 28.0302C44.088 28.0943 43.8718 28.1041 43.6504 28.0596C43.4984 27.9963 43.4002 27.8885 43.3557 27.7361C43.3557 27.5204 43.3557 27.3048 43.3557 27.089C43.3456 27.0307 43.3653 26.9915 43.4147 26.9714C43.573 26.9104 43.7301 26.8516 43.8862 26.7949C44.0258 26.815 44.1633 26.8445 44.2989 26.8832C44.4487 27.0239 44.4487 27.1514 44.2989 27.2655Z" fill="#345595"/>
<path fill-rule="evenodd" clip-rule="evenodd" d="M14 26.7947C14.1652 26.9538 14.2144 27.1498 14.1474 27.383C14.1278 27.3437 14.1081 27.3046 14.0884 27.2653C14.0948 27.5465 14.0457 27.8014 13.9411 28.03C13.9411 28.0104 13.9411 27.9908 13.9411 27.9712C13.9337 27.6357 13.9533 27.3024 14 26.9712C13.8232 26.9712 13.6463 26.9712 13.4695 26.9712C13.4771 27.0721 13.4967 27.1702 13.5284 27.2653C13.5472 27.5319 13.5276 27.7869 13.4695 28.03C13.3941 27.9437 13.2958 27.9044 13.1748 27.9124C13.194 27.6157 13.1744 27.3216 13.1158 27.03C13.0569 27.0104 13.0175 26.9712 12.9979 26.9124C13.1301 26.8551 13.2677 26.8354 13.4105 26.8535C13.5477 26.8153 13.6852 26.776 13.8232 26.7359C13.8954 26.7371 13.9544 26.7567 14 26.7947Z" fill="#32549A"/>
<path fill-rule="evenodd" clip-rule="evenodd" d="M13.9412 27.9711C13.883 27.6885 13.8633 27.3944 13.8822 27.0888C13.7138 27.061 13.5959 27.1198 13.5285 27.2652C13.4968 27.1701 13.4772 27.0721 13.4696 26.9711C13.6464 26.9711 13.8233 26.9711 14.0001 26.9711C13.9534 27.3023 13.9338 27.6357 13.9412 27.9711Z" fill="#516A98"/>
<path fill-rule="evenodd" clip-rule="evenodd" d="M24.2571 27.9715C24.2473 27.6962 24.2571 27.4218 24.2865 27.1479C24.3521 27.0738 24.362 27.0052 24.316 26.9421C24.4691 26.8962 24.4691 26.8668 24.316 26.8538C24.3225 26.8175 24.3422 26.7881 24.3749 26.7656C24.693 26.6587 24.8502 26.7665 24.8465 27.0891C24.6846 27.0707 24.5274 27.0903 24.3749 27.1479C24.3386 27.4302 24.2993 27.7048 24.2571 27.9715Z" fill="#475D8B"/>
<path fill-rule="evenodd" clip-rule="evenodd" d="M39.9368 26.3241C39.8824 26.5179 39.8235 26.714 39.76 26.9123C39.7698 26.9711 39.7796 27.0299 39.7894 27.0888C39.9581 26.8404 40.0465 26.8599 40.0547 27.1476C40.0351 27.1868 40.0154 27.226 39.9958 27.2652C39.8824 27.4728 39.8431 27.7081 39.8779 27.9711C39.7767 27.9635 39.6784 27.944 39.5831 27.9123C39.5733 27.3825 39.5831 26.8531 39.6126 26.3241C39.7271 26.2472 39.8352 26.2472 39.9368 26.3241Z" fill="#345698"/>
<path fill-rule="evenodd" clip-rule="evenodd" d="M20.8968 26.7359C21.0278 26.7169 21.1359 26.7562 21.221 26.8535C21.2406 27.1476 21.2603 27.4418 21.2799 27.7359C21.4136 27.8203 21.5315 27.8007 21.6336 27.6771C21.6533 27.4025 21.6729 27.128 21.6926 26.8535C21.7947 26.7299 21.9126 26.7103 22.0463 26.7947C22.0941 27.221 22.0843 27.6426 22.0168 28.0594C21.887 28.1079 21.779 28.0785 21.6926 27.9712C21.0388 28.2476 20.7539 28.0319 20.8378 27.3241C20.8401 27.1231 20.8598 26.927 20.8968 26.7359Z" fill="#375893"/>
<path fill-rule="evenodd" clip-rule="evenodd" d="M27.4989 27.3828C27.3221 27.3828 27.1452 27.3828 26.9684 27.3828C26.9684 27.5789 26.9684 27.775 26.9684 27.9711C26.8441 28.1229 26.7165 28.1229 26.5852 27.9711C26.5459 27.4417 26.5459 26.9122 26.5852 26.3828C26.6147 26.3534 26.6442 26.324 26.6737 26.2946C26.9684 26.2553 27.2631 26.2553 27.5579 26.2946C27.9703 26.4792 28.0784 26.7832 27.8821 27.2064C27.7734 27.3047 27.6458 27.3635 27.4989 27.3828Z" fill="#395790"/>
<path fill-rule="evenodd" clip-rule="evenodd" d="M26.9684 26.6183C27.1677 26.616 27.3642 26.6356 27.5579 26.6771C27.5364 27.0421 27.3399 27.1793 26.9684 27.0889C26.9684 26.932 26.9684 26.7752 26.9684 26.6183Z" fill="#DDE7F0"/>
<path fill-rule="evenodd" clip-rule="evenodd" d="M38.4041 28.0299C38.3568 28.1153 38.3273 28.2133 38.3156 28.324C38.2538 28.3839 38.185 28.3937 38.1093 28.3535C38.0712 28.1722 38.0516 27.9859 38.0504 27.7946C38.0879 27.4888 38.1173 27.1947 38.1388 26.9123C38.1984 26.863 38.2672 26.8434 38.3451 26.8534C39.1322 26.6087 39.4564 26.9028 39.3177 27.7358C39.1004 28.0813 38.7958 28.1793 38.4041 28.0299Z" fill="#365693"/>
<path fill-rule="evenodd" clip-rule="evenodd" d="M41.1749 27.2653C41.1389 27.2129 41.1193 27.1541 41.1159 27.0889C41.1067 27.0081 41.1165 26.9296 41.1454 26.8536C41.1877 26.7976 41.2368 26.7879 41.2928 26.8241C41.3479 26.9642 41.3675 27.1113 41.3517 27.2653C41.2928 27.2653 41.2338 27.2653 41.1749 27.2653Z" fill="#364D9F"/>
<path fill-rule="evenodd" clip-rule="evenodd" d="M11.7011 27.9126C11.7964 27.9442 11.8947 27.9638 11.9959 27.9714C11.9959 27.6969 11.9959 27.4224 11.9959 27.1479C11.8976 27.1479 11.7994 27.1479 11.7011 27.1479C11.6322 26.7544 11.7599 26.6563 12.0843 26.8538C12.1311 27.2489 12.1213 27.6411 12.0548 28.0302C11.962 28.0968 11.8638 28.1066 11.7601 28.0597C11.7157 28.0202 11.696 27.9712 11.7011 27.9126Z" fill="#47618E"/>
<path fill-rule="evenodd" clip-rule="evenodd" d="M14.9431 26.7361C15.1406 26.7264 15.3371 26.7362 15.5326 26.7655C15.8442 26.9164 15.9424 27.1517 15.8274 27.4714C15.5567 27.5334 15.2816 27.5824 15.0021 27.6185C15.1846 27.8414 15.3812 27.8513 15.5916 27.6479C15.9308 27.6435 15.9701 27.7611 15.7095 28.0008C14.9129 28.2561 14.5494 27.9718 14.6189 27.1479C14.7171 27.0011 14.8252 26.8638 14.9431 26.7361Z" fill="#3B5894"/>
<path fill-rule="evenodd" clip-rule="evenodd" d="M15.12 27.03C15.3245 26.9939 15.4424 27.0724 15.4737 27.2653C15.3117 27.2837 15.1545 27.2641 15.0021 27.2064C15.0429 27.1466 15.0822 27.0877 15.12 27.03Z" fill="#EFF3F7"/>
<path fill-rule="evenodd" clip-rule="evenodd" d="M20.1304 27.2065C20.1437 27.3682 20.1241 27.5251 20.0715 27.6771C19.917 27.8183 19.7697 27.8183 19.6294 27.6771C19.59 27.5006 19.59 27.3241 19.6294 27.1477C19.8131 26.9897 19.9801 27.0093 20.1304 27.2065Z" fill="#EFF2F7"/>
<path fill-rule="evenodd" clip-rule="evenodd" d="M29.0906 27.2653C29.0906 27.2261 29.0906 27.1869 29.0906 27.1477C29.0906 27.0693 29.0906 26.9908 29.0906 26.9124C29.1692 26.9124 29.2479 26.9124 29.3264 26.9124C29.3454 27.0431 29.3061 27.151 29.2085 27.2359C29.2479 27.2555 29.2871 27.2752 29.3264 27.2947C29.2209 27.4186 29.1815 27.5657 29.2085 27.7359C29.2675 27.7359 29.3264 27.7359 29.3854 27.7359C29.3854 27.8143 29.3854 27.8928 29.3854 27.9712C29.3075 27.9812 29.2387 27.9616 29.1791 27.9124C29.1686 27.6856 29.1392 27.4699 29.0906 27.2653Z" fill="#3052A8"/>
<path fill-rule="evenodd" clip-rule="evenodd" d="M30.1516 26.736C30.9284 26.6991 31.2133 27.0521 31.0063 27.7949C30.7623 28.072 30.4578 28.1602 30.0926 28.0596C29.6626 27.7821 29.5741 27.4193 29.8274 26.9713C29.9158 26.8555 30.0239 26.7771 30.1516 26.736Z" fill="#385695"/>
<path fill-rule="evenodd" clip-rule="evenodd" d="M37.6967 27.8535C37.5985 27.8928 37.5003 27.932 37.402 27.9712C37.3627 27.9712 37.3234 27.9712 37.2841 27.9712C37.2032 27.9804 37.1245 27.9706 37.0483 27.9418C37.181 27.8978 37.2596 27.8095 37.2841 27.6771C37.2841 27.6182 37.2841 27.5594 37.2841 27.5006C37.141 27.5019 37.0035 27.5314 36.8715 27.5888C36.7954 27.6648 36.7954 27.7334 36.8715 27.7947C36.9026 27.8665 36.9419 27.9351 36.9894 28.0006C36.6845 28.0637 36.5077 27.9461 36.4589 27.6477C36.6488 27.5249 36.8257 27.3975 36.9894 27.2653C37.0703 27.2745 37.1489 27.2647 37.2252 27.2359C37.3037 27.1771 37.3037 27.1182 37.2252 27.0594C37.022 26.9942 36.8648 27.053 36.7536 27.2359C36.4409 27.2628 36.3819 27.1451 36.5767 26.8829C37.5131 26.5323 37.8865 26.8558 37.6967 27.8535Z" fill="#365594"/>
<path fill-rule="evenodd" clip-rule="evenodd" d="M11.701 27.1479C11.7992 27.1479 11.8974 27.1479 11.9957 27.1479C11.9957 27.4224 11.9957 27.6969 11.9957 27.9714C11.8946 27.9638 11.7963 27.9442 11.701 27.9126C11.701 27.6577 11.701 27.4028 11.701 27.1479Z" fill="#325495"/>
<path fill-rule="evenodd" clip-rule="evenodd" d="M12.703 26.7949C12.703 26.8144 12.703 26.8341 12.703 26.8537C12.78 26.9106 12.8193 26.989 12.8209 27.089C12.8209 27.1086 12.8209 27.1282 12.8209 27.1478C12.7068 27.3957 12.6675 27.6702 12.703 27.9713C12.6187 27.976 12.5401 27.9564 12.4672 27.9125C12.3987 27.6006 12.3889 27.2869 12.4378 26.9713C12.4725 26.8323 12.5609 26.7735 12.703 26.7949Z" fill="#2F5499"/>
<path fill-rule="evenodd" clip-rule="evenodd" d="M30.2694 27.0303C30.516 27.0215 30.6535 27.1392 30.6821 27.3833C30.665 27.7688 30.498 27.8669 30.181 27.6774C30.1228 27.4436 30.1523 27.2279 30.2694 27.0303Z" fill="#F2F7F7"/>
<path fill-rule="evenodd" clip-rule="evenodd" d="M35.4569 26.7359C35.6915 26.7916 35.9273 26.8014 36.1643 26.7653C36.332 26.817 36.3714 26.9151 36.2822 27.0594C36.1292 27.0727 35.9818 27.1021 35.8401 27.1477C35.7679 27.4351 35.7286 27.7292 35.7222 28.03C35.5885 28.1144 35.4706 28.0949 35.3685 27.9712C35.3292 27.5987 35.3292 27.2261 35.3685 26.8535C35.4108 26.8215 35.4402 26.7823 35.4569 26.7359Z" fill="#3D5B94"/>
<path fill-rule="evenodd" clip-rule="evenodd" d="M43.3557 27.0889C43.3557 27.3046 43.3557 27.5202 43.3557 27.7359C43.2045 27.5221 43.2045 27.3065 43.3557 27.0889Z" fill="#546E8D"/>
<path fill-rule="evenodd" clip-rule="evenodd" d="M45.183 26.7358C45.929 26.6665 46.2335 26.9998 46.0967 27.7359C46.0504 27.8409 45.9817 27.9292 45.8904 28.0006C45.0941 28.2559 44.7306 27.9716 44.7999 27.1476C44.8997 26.9795 45.0275 26.8423 45.183 26.7358Z" fill="#375791"/>
<path fill-rule="evenodd" clip-rule="evenodd" d="M13.9999 26.7949C14.1113 26.7829 14.1997 26.8221 14.2652 26.9125C14.3045 27.285 14.3045 27.6576 14.2652 28.0302C14.1506 28.107 14.0425 28.107 13.941 28.0302C14.0456 27.8016 14.0947 27.5466 14.0883 27.2654C14.108 27.3047 14.1277 27.3439 14.1473 27.3831C14.2143 27.15 14.1651 26.9539 13.9999 26.7949Z" fill="#36588E"/>
<path fill-rule="evenodd" clip-rule="evenodd" d="M19.4231 26.9715C19.4851 26.9627 19.544 26.9725 19.5999 27.0009C19.4855 27.2995 19.4462 27.6035 19.482 27.9126C19.1903 27.6169 19.1707 27.3032 19.4231 26.9715Z" fill="#2F51A2"/>
<path fill-rule="evenodd" clip-rule="evenodd" d="M36.9897 27.2657C36.826 27.3979 36.6491 27.5253 36.4591 27.6481C36.5079 27.9465 36.6848 28.0641 36.9897 28.001C36.9422 27.9355 36.9029 27.867 36.8718 27.7951C37.0302 27.8148 37.1677 27.7756 37.2844 27.6775C37.2599 27.81 37.1813 27.8982 37.0486 27.9422C37.1248 27.971 37.2035 27.9808 37.2844 27.9716C37.2598 28.0141 37.2205 28.0435 37.1665 28.0598C36.9897 28.0991 36.8128 28.0991 36.636 28.0598C36.3539 27.8681 36.3342 27.6524 36.577 27.4128C36.7093 27.346 36.8468 27.2969 36.9897 27.2657Z" fill="#4B628B"/>
<path fill-rule="evenodd" clip-rule="evenodd" d="M40.6441 26.8535C40.703 26.873 40.7423 26.9123 40.762 26.9711C40.6987 27.3055 40.6987 27.6388 40.762 27.9711C40.6637 27.9711 40.5655 27.9711 40.4672 27.9711C40.486 27.6851 40.4664 27.4105 40.4083 27.1476C40.4083 27.1083 40.3887 27.0888 40.3493 27.0888C40.3594 27.011 40.3397 26.9423 40.2904 26.8829C40.4067 26.8537 40.5246 26.8439 40.6441 26.8535Z" fill="#35529A"/>
<path fill-rule="evenodd" clip-rule="evenodd" d="M45.3599 27.0302C45.6684 27.0374 45.7961 27.1943 45.743 27.5007C45.6989 27.7604 45.5516 27.8486 45.3009 27.7655C45.1299 27.5008 45.1495 27.2557 45.3599 27.0302Z" fill="#F3F5F7"/>
<path fill-rule="evenodd" clip-rule="evenodd" d="M24.3158 26.8539C24.4689 26.8669 24.4689 26.8963 24.3158 26.9421C24.3617 27.0053 24.3519 27.0739 24.2863 27.148C24.2569 27.4219 24.247 27.6963 24.2568 27.9716C24.1785 28.1036 24.0705 28.1232 23.9326 28.0304C23.8933 27.6186 23.8933 27.2068 23.9326 26.7951C24.0749 26.7153 24.2026 26.735 24.3158 26.8539Z" fill="#325593"/>
<path fill-rule="evenodd" clip-rule="evenodd" d="M38.3454 26.8536C38.2674 26.8436 38.1986 26.8632 38.139 26.9124C38.1176 27.1949 38.0881 27.489 38.0506 27.7948C38.0519 27.9861 38.0715 28.1724 38.1096 28.3536C38.1853 28.3939 38.254 28.384 38.3159 28.3242C38.3276 28.2135 38.357 28.1155 38.4043 28.0301C38.414 28.1882 38.4041 28.345 38.3748 28.5007C38.252 28.6497 38.1341 28.6497 38.0211 28.5007C37.9818 27.932 37.9818 27.3634 38.0211 26.7948C38.1529 26.7077 38.2609 26.7273 38.3454 26.8536Z" fill="#4B6081"/>
<path fill-rule="evenodd" clip-rule="evenodd" d="M38.581 27.0302C38.911 27.0894 39.0191 27.2855 38.9053 27.6184C38.7564 27.847 38.5992 27.847 38.4337 27.6184C38.3665 27.3877 38.4157 27.1917 38.581 27.0302Z" fill="#F1F7F7"/>
<path fill-rule="evenodd" clip-rule="evenodd" d="M27.4989 27.3828C27.3546 27.4401 27.1974 27.4597 27.0273 27.4417C27.0456 27.6307 27.026 27.8071 26.9684 27.9711C26.9684 27.775 26.9684 27.5789 26.9684 27.3828C27.1452 27.3828 27.3221 27.3828 27.4989 27.3828Z" fill="#9EB3CF"/>
<path fill-rule="evenodd" clip-rule="evenodd" d="M41.1747 27.2654C41.2337 27.2654 41.2926 27.2654 41.3516 27.2654C41.3674 27.1114 41.3478 26.9643 41.2926 26.8243C41.2367 26.788 41.1876 26.7977 41.1453 26.8537C41.1164 26.9297 41.1065 27.0082 41.1158 27.089C40.9919 26.8342 41.0706 26.7264 41.3516 26.7654C41.4709 27.0244 41.579 27.2891 41.6758 27.5596C41.7891 27.3091 41.8972 27.0541 42 26.7948C42.2702 26.705 42.3586 26.803 42.2653 27.089C42.1065 27.6046 41.8806 28.085 41.5874 28.5302C41.4105 28.5694 41.2337 28.5694 41.0568 28.5302C40.9783 28.4518 40.9783 28.3733 41.0568 28.2949C41.2541 28.3081 41.3917 28.2297 41.4695 28.0596C41.365 27.7957 41.2668 27.531 41.1747 27.2654Z" fill="#395791"/>
<path fill-rule="evenodd" clip-rule="evenodd" d="M46.7746 27.2652C46.7844 27.5209 46.7745 27.7757 46.7451 28.0299C46.6073 28.1227 46.4992 28.1032 46.4209 27.9711C46.4111 27.6372 46.421 27.3039 46.4504 26.9711C46.5573 26.897 46.6654 26.897 46.7746 26.9711C46.7465 27.0286 46.7072 27.0776 46.6567 27.1181C46.6901 27.1767 46.7294 27.2257 46.7746 27.2652Z" fill="#325497"/>
<path fill-rule="evenodd" clip-rule="evenodd" d="M47.5409 27.2064C47.5409 27.1084 47.5409 27.0104 47.5409 26.9123C47.325 26.8763 47.1088 26.8665 46.8925 26.8829C46.9997 26.9264 47.0783 26.9951 47.1283 27.0888C47.0281 27.0794 46.9299 27.0891 46.8336 27.1182C46.7892 27.1577 46.7695 27.2067 46.7746 27.2653C46.7294 27.2257 46.6901 27.1767 46.6567 27.1182C46.7072 27.0777 46.7465 27.0287 46.7746 26.9711C46.6654 26.897 46.5573 26.897 46.4504 26.9711C46.421 27.3039 46.4111 27.6373 46.4209 27.9712C46.3427 27.575 46.3427 27.173 46.4209 26.7653C46.557 26.7208 46.6749 26.7502 46.7746 26.8535C47.0154 26.7037 47.261 26.7037 47.5115 26.8535C47.7294 26.7105 47.9554 26.7007 48.1893 26.8241C48.2262 26.8682 48.2557 26.9173 48.2778 26.9711C48.3171 27.3241 48.3171 27.677 48.2778 28.03C48.1404 28.1201 48.0225 28.1004 47.9241 27.9712C47.8947 27.6777 47.8848 27.3836 47.8946 27.0888C47.7556 27.0743 47.6377 27.1134 47.5409 27.2064Z" fill="#425D8C"/>
<path fill-rule="evenodd" clip-rule="evenodd" d="M47.5411 27.2063C47.5411 27.2259 47.5411 27.2456 47.5411 27.2652C47.4735 27.4614 47.3655 27.6379 47.2169 27.7946C47.2064 27.5678 47.177 27.352 47.1285 27.1475C47.1285 27.1279 47.1285 27.1083 47.1285 27.0887C47.0785 26.995 46.9999 26.9263 46.8927 26.8828C47.109 26.8664 47.3252 26.8762 47.5411 26.9122C47.5411 27.0103 47.5411 27.1083 47.5411 27.2063Z" fill="#30539B"/>
<path fill-rule="evenodd" clip-rule="evenodd" d="M32.5683 26.7361C33.3155 26.668 33.6201 27.0014 33.482 27.7361C33.3518 28.007 33.1357 28.1247 32.8336 28.0891C32.4903 28.1043 32.2742 27.9474 32.1852 27.6185C32.0888 27.2229 32.2165 26.9288 32.5683 26.7361Z" fill="#395893"/>
<path fill-rule="evenodd" clip-rule="evenodd" d="M32.7453 27.0299C32.868 27.0282 32.9761 27.0675 33.0695 27.1475C33.1298 27.3721 33.1003 27.578 32.9811 27.7652C32.8026 27.8323 32.6748 27.7832 32.5979 27.6181C32.5309 27.385 32.58 27.189 32.7453 27.0299Z" fill="#F3F8F6"/>
<path fill-rule="evenodd" clip-rule="evenodd" d="M48.0127 26.9124C48.089 26.9589 48.1578 27.0177 48.219 27.0889C48.2485 27.3823 48.2583 27.6765 48.2485 27.9712C48.0868 27.9961 48.0083 27.9275 48.0127 27.7653C48.0454 27.6741 48.0846 27.5859 48.1306 27.5006C48.0852 27.367 48.0262 27.2396 47.9538 27.1183C47.9625 27.0444 47.9822 26.9757 48.0127 26.9124Z" fill="#2F539C"/>
<path fill-rule="evenodd" clip-rule="evenodd" d="M37.2843 27.6771C37.1677 27.7752 37.0302 27.8144 36.8717 27.7947C36.7956 27.7334 36.7956 27.6648 36.8717 27.5888C37.0037 27.5314 37.1413 27.5019 37.2843 27.5006C37.2843 27.5594 37.2843 27.6182 37.2843 27.6771Z" fill="#E7F5F5"/>
<path fill-rule="evenodd" clip-rule="evenodd" d="M47.1283 27.1479C47.1768 27.3524 47.2063 27.5681 47.2168 27.7949C47.3654 27.6382 47.4734 27.4618 47.541 27.2655C47.5507 27.5212 47.5409 27.776 47.5115 28.0302C47.4097 28.0935 47.3017 28.1033 47.1873 28.0596C47.13 27.7613 47.1104 27.4574 47.1283 27.1479Z" fill="#3C5D95"/>
<path fill-rule="evenodd" clip-rule="evenodd" d="M10.0506 26.3242C10.0513 26.4134 10.0905 26.4821 10.1685 26.5301C10.3047 26.5593 10.4422 26.5691 10.5811 26.5595C10.5714 27.0109 10.5811 27.4619 10.6106 27.9124C10.6302 27.932 10.6499 27.9517 10.6696 27.9713C10.7114 27.8846 10.7802 27.8454 10.8759 27.8536C10.8792 27.4187 10.8694 26.9874 10.8464 26.5595C10.947 26.5031 11.0551 26.4639 11.1706 26.4418C11.3409 26.6161 11.4194 26.5768 11.4064 26.3242C11.5291 26.388 11.5488 26.4762 11.4654 26.5889C11.2896 26.6182 11.1127 26.628 10.9348 26.6183C10.9446 27.0893 10.9348 27.5599 10.9054 28.0301C10.7875 28.1085 10.6696 28.1085 10.5517 28.0301C10.5222 27.5599 10.5124 27.0893 10.5222 26.6183C10.3443 26.628 10.1675 26.6182 9.99167 26.5889C9.9082 26.4762 9.92789 26.388 10.0506 26.3242Z" fill="#3B5587"/>
<path fill-rule="evenodd" clip-rule="evenodd" d="M44.4757 27.5006C44.5863 27.5688 44.6158 27.6668 44.5641 27.7947C44.5022 27.9055 44.4138 27.984 44.2988 28.03C44.2965 27.9207 44.3456 27.8422 44.4462 27.7947C44.4753 27.6986 44.4851 27.6005 44.4757 27.5006Z" fill="#4C627F"/>
<path fill-rule="evenodd" clip-rule="evenodd" d="M25.3768 26.7358C25.8541 26.6301 26.1489 26.8065 26.261 27.2652C26.2569 27.34 26.2373 27.4086 26.2021 27.4711C25.9315 27.533 25.6564 27.582 25.3768 27.6181C25.5594 27.8411 25.7559 27.8509 25.9663 27.6475C26.3055 27.6431 26.3449 27.7608 26.0842 28.0005C25.2893 28.2564 24.9258 27.9721 24.9937 27.1475C25.0935 26.9794 25.2213 26.8422 25.3768 26.7358Z" fill="#3B5892"/>
<path fill-rule="evenodd" clip-rule="evenodd" d="M25.4948 27.03C25.7153 26.977 25.8332 27.0554 25.8484 27.2653C25.6865 27.2837 25.5293 27.2641 25.3769 27.2065C25.4177 27.1466 25.457 27.0878 25.4948 27.03Z" fill="#E8F0F4"/>
<path fill-rule="evenodd" clip-rule="evenodd" d="M34.042 26.7357C34.261 26.7179 34.4673 26.7571 34.6609 26.8534C34.7631 26.7297 34.881 26.7102 35.0146 26.7946C35.0539 27.2848 35.0539 27.775 35.0146 28.2652C34.7482 28.6215 34.4043 28.7098 33.983 28.5299C33.7916 28.4425 33.7326 28.3053 33.8062 28.1181C33.8848 28.0789 33.9634 28.0789 34.042 28.1181C34.1912 28.2602 34.3681 28.2994 34.5725 28.2358C34.6219 28.1763 34.6415 28.1076 34.6315 28.0299C33.9657 28.1598 33.6611 27.8852 33.7178 27.2063C33.7546 26.994 33.8627 26.8372 34.042 26.7357Z" fill="#3D5A93"/>
<path fill-rule="evenodd" clip-rule="evenodd" d="M34.2778 27.0299C34.4005 27.0282 34.5086 27.0675 34.602 27.1475C34.6413 27.3044 34.6413 27.4613 34.602 27.6181C34.1892 27.8152 34.032 27.678 34.1304 27.2064C34.192 27.155 34.2411 27.0962 34.2778 27.0299Z" fill="#F4F6F7"/>
<path fill-rule="evenodd" clip-rule="evenodd" d="M40.7621 26.9711C40.8402 27.3281 40.8402 27.6908 40.7621 28.0594C40.6477 28.1031 40.5396 28.0933 40.4379 28.03C40.4085 27.7365 40.3986 27.4424 40.4084 27.1476C40.4665 27.4105 40.4862 27.6851 40.4673 27.9711C40.5656 27.9711 40.6638 27.9711 40.7621 27.9711C40.6988 27.6388 40.6988 27.3055 40.7621 26.9711Z" fill="#556994"/>
<path fill-rule="evenodd" clip-rule="evenodd" d="M17.0652 26.7947C17.1351 26.8745 17.194 26.9627 17.2421 27.0594C17.1885 27.1958 17.0903 27.235 16.9473 27.177C16.8149 27.0275 16.6577 26.9981 16.4757 27.0888C16.7447 27.2085 17.0099 27.3458 17.2715 27.5005C17.3259 27.7643 17.2375 27.9604 17.0063 28.0888C16.7892 28.0985 16.5731 28.0887 16.3579 28.0594C16.1307 27.9648 16.0717 27.808 16.181 27.5888C16.24 27.5495 16.2989 27.5495 16.3579 27.5888C16.4579 27.8057 16.6152 27.8744 16.8294 27.7947C16.8817 27.7461 16.9013 27.6873 16.8884 27.6182C16.6079 27.6047 16.3623 27.5067 16.1515 27.3241C16.0656 27.0722 16.1343 26.886 16.3579 26.7652C16.5968 26.7244 16.8326 26.7342 17.0652 26.7947Z" fill="#3C5793"/>
<path fill-rule="evenodd" clip-rule="evenodd" d="M18.0674 26.9121C18.2694 27.0647 18.5052 27.1431 18.7747 27.1474C18.9197 27.2283 18.9786 27.3557 18.9516 27.5298C18.9526 27.784 18.8347 27.9604 18.5979 28.0592C18.3432 28.0886 18.0878 28.0984 17.8316 28.0886C17.7442 27.9949 17.6557 27.8969 17.5663 27.7945C17.5216 27.661 17.5315 27.5336 17.5958 27.4121C17.6744 27.3729 17.753 27.3729 17.8316 27.4121C17.8885 27.6169 18.0163 27.7444 18.2147 27.7945C18.4822 27.7938 18.5706 27.6761 18.48 27.4416C18.1826 27.3745 17.9076 27.2568 17.6547 27.0886C17.5313 26.8998 17.5117 26.7037 17.5958 26.5004C17.9615 26.219 18.3545 26.1895 18.7747 26.4121C18.8948 26.5592 18.9144 26.7161 18.8337 26.8827C18.7551 26.922 18.6765 26.922 18.5979 26.8827C18.4669 26.5553 18.2606 26.4867 17.9789 26.6768C17.9504 26.7764 17.9799 26.8549 18.0674 26.9121Z" fill="#385695"/>
<path fill-rule="evenodd" clip-rule="evenodd" d="M31.9789 27.0299C31.9371 27.0831 31.8781 27.1027 31.802 27.0888C31.802 27.3241 31.802 27.5594 31.802 27.7947C31.9022 27.7852 32.0005 27.795 32.0968 27.8241C32.1754 27.9025 32.1754 27.981 32.0968 28.0594C31.8851 28.1058 31.6788 28.096 31.4778 28.03C31.3973 27.7829 31.3678 27.528 31.3894 27.2652C31.427 27.4962 31.4761 27.7315 31.5368 27.9711C31.6971 28.0267 31.8641 28.0463 32.0378 28.03C32.0378 27.9711 32.0378 27.9123 32.0378 27.8535C31.9377 27.8629 31.8394 27.8531 31.7431 27.8241C31.7123 27.7911 31.6927 27.7518 31.6842 27.7064C31.7627 27.4907 31.7627 27.2751 31.6842 27.0594C31.7038 27.0299 31.7235 27.0005 31.7431 26.9711C31.816 27.015 31.8946 27.0346 31.9789 27.0299Z" fill="#526489"/>
<path fill-rule="evenodd" clip-rule="evenodd" d="M23.5495 27.03C23.5688 27.3073 23.5491 27.5818 23.4905 27.8536C23.4305 27.8943 23.3716 27.9335 23.3137 27.9712C23.1608 28.0508 22.9938 28.09 22.8126 28.0889C22.4245 28.1134 22.2673 27.9369 22.3411 27.5594C22.5556 27.341 22.8209 27.2331 23.1368 27.2359C23.2154 27.1771 23.2154 27.1183 23.1368 27.0594C23.019 27.0202 22.9011 27.0202 22.7832 27.0594C22.726 27.2403 22.6081 27.2991 22.4295 27.2359C22.3394 27.0664 22.3787 26.9292 22.5474 26.8241C22.8421 26.7065 23.1368 26.7065 23.4316 26.8241C23.5096 26.8721 23.5488 26.9408 23.5495 27.03Z" fill="#385893"/>
<path fill-rule="evenodd" clip-rule="evenodd" d="M22.96 27.5006C23.0385 27.5006 23.1172 27.5006 23.1957 27.5006C23.1569 27.7649 22.9997 27.863 22.7242 27.7947C22.7187 27.6241 22.7973 27.5261 22.96 27.5006Z" fill="#ECF3F8"/>
<path fill-rule="evenodd" clip-rule="evenodd" d="M23.5494 27.0302C23.5945 27.3151 23.6339 27.6092 23.6673 27.9125C23.663 28.0442 23.5942 28.103 23.461 28.089C23.3799 28.0782 23.3308 28.0389 23.3137 27.9713C23.3715 27.9336 23.4305 27.8945 23.4905 27.8537C23.549 27.5819 23.5687 27.3074 23.5494 27.0302Z" fill="#506C82"/>
<path fill-rule="evenodd" clip-rule="evenodd" d="M39.9956 27.2657C40.0054 27.5214 39.9956 27.7763 39.9662 28.0304C39.8644 28.0937 39.7564 28.1036 39.642 28.0598C39.5976 28.0204 39.5779 27.9714 39.583 27.9128C39.6783 27.9444 39.7766 27.964 39.8777 27.9716C39.843 27.7086 39.8823 27.4733 39.9956 27.2657Z" fill="#3F5881"/>
<path fill-rule="evenodd" clip-rule="evenodd" d="M42.6484 27.6775C42.9423 27.666 43.0405 27.7935 42.9432 28.0598C42.6037 28.1268 42.5054 27.9994 42.6484 27.6775Z" fill="#3D5C8C"/>
<path fill-rule="evenodd" clip-rule="evenodd" d="M12.7033 26.7947C12.5612 26.7734 12.4728 26.8322 12.438 26.9712C12.3892 27.2867 12.399 27.6005 12.4675 27.9124C12.5404 27.9563 12.619 27.9759 12.7033 27.9712C12.6678 27.6701 12.7071 27.3956 12.8212 27.1477C12.7752 27.437 12.7457 27.7311 12.7328 28.03C12.6149 28.1085 12.497 28.1085 12.3791 28.03C12.3301 27.6169 12.34 27.2051 12.4086 26.7947C12.5156 26.7221 12.6139 26.7221 12.7033 26.7947Z" fill="#465C83"/>
<path fill-rule="evenodd" clip-rule="evenodd" d="M37.6969 27.8536C37.7756 28.0591 37.697 28.1277 37.4612 28.0595C37.4284 28.0369 37.4088 28.0075 37.4022 27.9712C37.5005 27.932 37.5987 27.8928 37.6969 27.8536Z" fill="#3B5A7C"/>
<path fill-rule="evenodd" clip-rule="evenodd" d="M51.1366 32.3834C36.8968 32.4618 22.6512 32.4618 8.3998 32.3834C8.3998 24.7166 8.3998 17.0498 8.3998 9.38308C8.34085 9.38308 8.28191 9.38308 8.22296 9.38308C8.21418 9.3212 8.22396 9.26237 8.25243 9.20661C8.34427 9.25631 8.40322 9.21714 8.42927 9.08896C8.45875 16.7165 8.46859 24.344 8.45875 31.9716C22.7437 31.9618 37.0286 31.9716 51.3135 32.001C51.2191 32.0171 51.1307 32.0465 51.0482 32.0893C36.8558 32.0305 22.6593 32.0108 8.45875 32.0304C8.45875 32.1285 8.45875 32.2265 8.45875 32.3246C22.6946 32.305 36.9205 32.3246 51.1366 32.3834Z" fill="#FBFFF5"/>
<path fill-rule="evenodd" clip-rule="evenodd" d="M51.6675 32.3241C51.4389 32.4719 51.1835 32.5503 50.9012 32.5594C36.7342 32.5594 22.5671 32.5594 8.40013 32.5594C8.40013 32.5005 8.40013 32.4417 8.40013 32.3829C22.6515 32.4613 36.8971 32.4613 51.137 32.3829C51.3004 32.3994 51.4477 32.3601 51.5791 32.2652C51.6016 32.2979 51.6311 32.3175 51.6675 32.3241Z" fill="#F3FEFD"/>
<path fill-rule="evenodd" clip-rule="evenodd" d="M7.86933 7.55949C7.92827 15.8831 7.9479 24.2165 7.92827 32.5598C8.08549 32.5598 8.24264 32.5598 8.39985 32.5598C22.5669 32.5598 36.7339 32.5598 50.9009 32.5598C50.9009 32.5794 50.9009 32.599 50.9009 32.6186C36.7535 32.6579 22.6062 32.6971 8.4588 32.7363C8.32688 32.6753 8.18935 32.6655 8.04617 32.7069C8.0154 32.7399 7.99577 32.7791 7.98722 32.8245C8.06391 33.4803 8.06391 34.1371 7.98722 34.7951C7.93818 34.1686 7.9087 33.5411 7.8988 32.9128C7.86933 24.4617 7.85948 16.0106 7.86933 7.55949Z" fill="#50648F"/>
<path fill-rule="evenodd" clip-rule="evenodd" d="M50.901 32.6182C50.963 32.6095 51.0219 32.6192 51.0778 32.6476C51.1564 32.6869 51.1564 32.726 51.0778 32.7653C36.8616 32.8143 22.6553 32.8045 8.45885 32.7359C22.6062 32.6966 36.7536 32.6575 50.901 32.6182Z" fill="#305096"/>
<path fill-rule="evenodd" clip-rule="evenodd" d="M7.75151 32.9125C7.81335 33.8961 7.85266 34.8863 7.86941 35.8831C7.8483 36.0026 7.79914 36.1105 7.72204 36.2066C7.66309 36.1282 7.60414 36.1282 7.54519 36.2066C7.5159 36.3623 7.50605 36.5192 7.51572 36.6772C7.45677 36.6772 7.39783 36.6772 7.33888 36.6772C7.33888 36.6184 7.33888 36.5596 7.33888 36.5008C7.17023 36.5015 7.11128 36.5701 7.16204 36.7066C7.06442 36.8142 6.94653 36.8927 6.80835 36.9419C6.37031 37.0537 5.92821 37.1419 5.48204 37.2066C5.09076 37.1928 4.72725 37.085 4.39151 36.8831C4.29938 36.8385 4.24043 36.7698 4.21467 36.6772C4.73019 36.97 5.28036 37.0974 5.86519 37.0596C7.00642 36.8525 7.61552 36.176 7.69256 35.0302C7.75122 34.3347 7.77084 33.6288 7.75151 32.9125Z" fill="#385488"/>
<path fill-rule="evenodd" clip-rule="evenodd" d="M-0.0295162 37.6771C18.6372 37.6771 37.3038 37.6771 55.9705 37.6771C55.9705 37.7164 55.9705 37.7555 55.9705 37.7948C37.3038 37.7948 18.6372 37.7948 -0.0295162 37.7948C-0.0295162 37.7555 -0.0295162 37.7164 -0.0295162 37.6771Z" fill="#2C549E"/>
<path fill-rule="evenodd" clip-rule="evenodd" d="M-0.0295162 37.7949C18.6372 37.7949 37.3038 37.7949 55.9705 37.7949C55.9705 37.8537 55.9705 37.9125 55.9705 37.9714C37.3038 37.9714 18.6372 37.9714 -0.0295162 37.9714C-0.0295162 37.9125 -0.0295162 37.8537 -0.0295162 37.7949Z" fill="#2D5691"/>
<path fill-rule="evenodd" clip-rule="evenodd" d="M-0.0294914 37.9717C18.6372 37.9717 37.3038 37.9717 55.9705 37.9717C55.9705 38.0305 55.9705 38.0893 55.9705 38.1482C37.3038 38.1482 18.6372 38.1482 -0.0294914 38.1482C-0.0294914 38.0893 -0.0294914 38.0305 -0.0294914 37.9717Z" fill="#36509C"/>
<path fill-rule="evenodd" clip-rule="evenodd" d="M-0.0295162 38.1479C18.6372 38.1479 37.3038 38.1479 55.9705 38.1479C55.9705 38.1871 55.9705 38.2263 55.9705 38.2655C37.3038 38.2655 18.6372 38.2655 -0.0295162 38.2655C-0.0295162 38.2263 -0.0295162 38.1871 -0.0295162 38.1479Z" fill="#285891"/>
<path fill-rule="evenodd" clip-rule="evenodd" d="M-0.0294914 38.2656C18.6372 38.2656 37.3038 38.2656 55.9705 38.2656C55.9705 38.344 55.9705 38.4225 55.9705 38.5009C37.3038 38.5009 18.6372 38.5009 -0.0294914 38.5009C-0.0294914 38.4225 -0.0294914 38.344 -0.0294914 38.2656Z" fill="#284380"/>
</g>
<defs>
<clipPath id="clip0_1_292">
<rect width="56" height="38.5299" fill="white"/>
</clipPath>
</defs>
</svg>
