<svg width="20" height="21" viewBox="0 0 20 21" fill="none" xmlns="http://www.w3.org/2000/svg">
<path d="M12.8569 15.3468C14.7514 15.1221 16.5783 14.6767 18.3111 14.037C16.8743 12.4422 15.9998 10.3308 15.9998 8.01514V7.31432C15.9999 7.29794 16 7.28155 16 7.26514C16 3.95143 13.3137 1.26514 10 1.26514C6.6863 1.26514 4.00001 3.95143 4.00001 7.26514L3.99982 8.01514C3.99982 10.3308 3.12529 12.4422 1.68849 14.037C3.42142 14.6767 5.24845 15.1222 7.14315 15.3469M12.8569 15.3468C11.92 15.458 10.9666 15.5151 9.99982 15.5151C9.03318 15.5151 8.07989 15.458 7.14315 15.3469M12.8569 15.3468C12.9498 15.6363 13 15.9448 13 16.2651C13 17.922 11.6569 19.2651 10 19.2651C8.34316 19.2651 7.00001 17.922 7.00001 16.2651C7.00001 15.9449 7.0502 15.6363 7.14315 15.3469M1.12445 5.76514C1.41173 4.05278 2.18254 2.50438 3.29169 1.26514M16.7083 1.26514C17.8175 2.50438 18.5883 4.05278 18.8756 5.76514" stroke="#6C757D" stroke-width="1.5" stroke-linecap="round" stroke-linejoin="round"/>
</svg>
